<?xml version="1.0" encoding="UTF-8"?>
<!DOCTYPE svg PUBLIC "-//W3C//DTD SVG 1.1//EN" "http://www.w3.org/Graphics/SVG/1.1/DTD/svg11.dtd">
<svg xmlns="http://www.w3.org/2000/svg" version="1.1" width="471px" height="377px" style="shape-rendering:geometricPrecision; text-rendering:geometricPrecision; image-rendering:optimizeQuality; fill-rule:evenodd; clip-rule:evenodd" xmlns:xlink="http://www.w3.org/1999/xlink">
<g><path style="opacity:0.94" fill="#f31c1b" d="M 331.5,147.5 C 330.833,147.5 330.167,147.5 329.5,147.5C 329.158,146.662 328.492,146.328 327.5,146.5C 327.5,146.167 327.5,145.833 327.5,145.5C 327.441,142.31 327.107,139.143 326.5,136C 327.699,129.204 329.366,122.537 331.5,116C 328.788,108.759 329.121,101.759 332.5,95C 317.065,93.3074 301.731,90.9741 286.5,88C 263.665,85.2011 240.831,83.3677 218,82.5C 203.42,83.7485 188.92,84.7485 174.5,85.5C 172.571,85.4604 170.738,85.1271 169,84.5C 168.25,85.1258 167.416,85.6258 166.5,86C 169.35,87.1711 172.184,88.3377 175,89.5C 179.049,102.263 185.216,113.93 193.5,124.5C 197.263,126.557 201.263,128.057 205.5,129C 206.701,129.903 207.535,131.069 208,132.5C 206.787,148.027 205.787,163.694 205,179.5C 211.689,185.182 216.355,192.182 219,200.5C 224.411,206.984 229.078,213.984 233,221.5C 239.667,230.167 246.333,238.833 253,247.5C 253.665,252.181 252.665,256.514 250,260.5C 249.064,264.114 248.564,267.78 248.5,271.5C 253.064,270.526 257.564,270.526 262,271.5C 270.687,305.789 277.187,340.789 281.5,376.5C 266.5,376.5 251.5,376.5 236.5,376.5C 235.589,372.343 233.422,369.009 230,366.5C 226.726,359.971 222.393,354.304 217,349.5C 214.427,345.358 212.094,341.024 210,336.5C 204.667,329.833 199.333,323.167 194,316.5C 191.383,313.231 189.717,309.565 189,305.5C 185.631,301.963 182.131,298.629 178.5,295.5C 177.692,302.473 176.858,309.473 176,316.5C 175.667,327.833 175.333,339.167 175,350.5C 174,351.833 173,351.833 172,350.5C 171.788,333.292 172.621,316.125 174.5,299C 174.038,296.46 174.038,294.127 174.5,292C 173.833,291 173.167,290 172.5,289C 174.121,286.834 174.955,284.334 175,281.5C 175.43,270.795 175.763,260.128 176,249.5C 173.167,250.87 170.5,250.536 168,248.5C 167.048,237.518 166.382,226.518 166,215.5C 165.227,211.468 164.394,207.468 163.5,203.5C 161.161,205.507 158.828,207.507 156.5,209.5C 159.577,212.686 161.244,216.519 161.5,221C 161.518,234.278 156.518,245.278 146.5,254C 131.596,262.37 118.763,273.204 108,286.5C 103.698,292.143 99.3644,297.809 95,303.5C 89.3241,308.01 84.1575,313.01 79.5,318.5C 86.0956,325.597 92.9289,332.597 100,339.5C 102.729,343.388 105.229,347.388 107.5,351.5C 115.048,360.07 122.715,368.403 130.5,376.5C 128.833,376.5 127.167,376.5 125.5,376.5C 118.533,369.364 111.7,362.03 105,354.5C 102.73,349.902 100.063,345.569 97,341.5C 90.9559,335.279 84.7892,329.113 78.5,323C 76.017,321.674 73.517,320.507 71,319.5C 65.2395,321.585 59.4062,323.418 53.5,325C 45.4717,325.228 37.4717,325.728 29.5,326.5C 28.5581,326.392 27.7247,326.059 27,325.5C 19.8202,341.885 14.6535,358.885 11.5,376.5C 7.5,376.5 3.5,376.5 -0.5,376.5C -0.5,376.167 -0.5,375.833 -0.5,375.5C 1.92397,375.808 4.25731,375.474 6.5,374.5C 10.7811,351.704 18.2811,330.037 29,309.5C 33.3333,303.833 37.6667,298.167 42,292.5C 64.3807,271.109 88.214,251.609 113.5,234C 115.438,226.728 120.105,222.062 127.5,220C 129.35,216.638 131.683,213.638 134.5,211C 138.737,209.681 143.071,208.681 147.5,208C 152.703,205.23 157.37,201.73 161.5,197.5C 161.603,183.871 162.27,170.204 163.5,156.5C 163.43,155.228 163.097,154.062 162.5,153C 164.129,149.573 165.629,146.073 167,142.5C 173.023,135.976 179.523,129.976 186.5,124.5C 180.828,115.826 175.661,106.826 171,97.5C 170.506,95.8659 170.34,94.1992 170.5,92.5C 166.634,92.0458 163.134,90.7125 160,88.5C 159.333,86.8333 159.333,85.1667 160,83.5C 166.991,80.2795 174.158,77.4462 181.5,75C 188.971,73.6071 196.305,71.7737 203.5,69.5C 207.1,55.004 210.267,40.3373 213,25.5C 217.19,21.6487 221.69,18.1487 226.5,15C 234.943,9.78071 243.61,5.11404 252.5,1C 263.167,0.333333 273.833,0.333333 284.5,1C 288.153,2.27344 291.819,3.44011 295.5,4.5C 300.961,2.21741 306.628,1.38407 312.5,2C 319.468,5.55311 325.301,10.3864 330,16.5C 330.351,24.8495 330.351,33.1828 330,41.5C 332.812,50.7458 335.312,60.0792 337.5,69.5C 342.82,70.7126 348.154,71.8793 353.5,73C 363.814,78.2167 374.314,83.05 385,87.5C 386.236,91.4633 385.07,94.2966 381.5,96C 366.126,100.841 350.459,104.341 334.5,106.5C 335.084,109.67 335.75,112.837 336.5,116C 335.387,121.619 333.887,127.119 332,132.5C 331.501,137.489 331.334,142.489 331.5,147.5 Z M 132.5,222.5 C 135.601,222.692 138.601,223.358 141.5,224.5C 142.614,225.723 142.781,227.056 142,228.5C 135.968,230.393 130.468,233.226 125.5,237C 122.404,237.927 120.07,236.927 118.5,234C 119.126,233.25 119.626,232.416 120,231.5C 123.969,228.111 128.136,225.111 132.5,222.5 Z"/></g>
<g><path style="opacity:1" fill="#000000" d="M 273.5,48.5 C 291.863,47.6008 309.863,49.6008 327.5,54.5C 328.659,59.4678 329.659,64.4678 330.5,69.5C 307.09,66.2282 283.757,65.2282 260.5,66.5C 260.334,61.4889 260.501,56.4889 261,51.5C 265.203,50.2151 269.37,49.2151 273.5,48.5 Z"/></g>
<g><path style="opacity:1" fill="#000000" d="M 254.5,50.5 C 256.45,55.7351 257.117,61.4018 256.5,67.5C 244.923,67.054 233.423,67.7207 222,69.5C 217.808,68.9974 213.641,68.3307 209.5,67.5C 210.309,65.9291 210.643,64.2624 210.5,62.5C 225.282,58.6802 239.948,54.6802 254.5,50.5 Z"/></g>
<g><path style="opacity:1" fill="#000000" d="M 327.5,145.5 C 326.609,144.89 325.609,144.557 324.5,144.5C 320.26,142.514 315.926,141.847 311.5,142.5C 308.715,141.115 306.382,141.782 304.5,144.5C 303.974,146.23 302.974,147.564 301.5,148.5C 300.209,148.263 299.209,148.596 298.5,149.5C 297.599,148.71 296.932,147.71 296.5,146.5C 296.53,145.503 296.03,144.836 295,144.5C 289.553,141.839 284.386,142.173 279.5,145.5C 279.5,146.167 279.167,146.5 278.5,146.5C 276.315,145.913 274.648,146.913 273.5,149.5C 273.167,150.5 272.5,151.167 271.5,151.5C 271.565,151.062 271.399,150.728 271,150.5C 265.56,156.244 259.06,157.911 251.5,155.5C 250.5,153.167 248.833,151.5 246.5,150.5C 246.119,146.976 245.119,143.642 243.5,140.5C 242.252,144.4 242.585,148.067 244.5,151.5C 245.931,152.78 246.598,154.447 246.5,156.5C 248.393,161.079 251.393,164.912 255.5,168C 256.437,168.692 257.103,168.525 257.5,167.5C 264.677,170.612 272.177,172.279 280,172.5C 283.279,170.809 286.779,169.809 290.5,169.5C 295.979,168.608 299.645,165.608 301.5,160.5C 302.417,164.129 304.75,166.129 308.5,166.5C 309.946,167.94 311.779,168.607 314,168.5C 315.385,168.486 316.551,168.152 317.5,167.5C 321.5,167.5 325.5,167.5 329.5,167.5C 328.391,168.29 327.058,168.79 325.5,169C 328.19,182.793 326.356,195.959 320,208.5C 318.234,206.404 316.901,204.071 316,201.5C 314.921,199.606 313.587,199.273 312,200.5C 311.393,203.202 311.56,205.868 312.5,208.5C 311.988,211.713 310.821,215.047 309,218.5C 308.333,221.167 308.333,223.833 309,226.5C 315.302,233.803 321.968,240.803 329,247.5C 338.758,262.677 347.758,278.344 356,294.5C 363.176,308.857 369.842,323.524 376,338.5C 376.918,341.598 377.418,344.765 377.5,348C 376.74,352.827 376.574,357.66 377,362.5C 378.801,367.095 380.301,371.761 381.5,376.5C 348.167,376.5 314.833,376.5 281.5,376.5C 277.187,340.789 270.687,305.789 262,271.5C 257.564,270.526 253.064,270.526 248.5,271.5C 248.564,267.78 249.064,264.114 250,260.5C 252.665,256.514 253.665,252.181 253,247.5C 246.333,238.833 239.667,230.167 233,221.5C 229.078,213.984 224.411,206.984 219,200.5C 216.355,192.182 211.689,185.182 205,179.5C 205.787,163.694 206.787,148.027 208,132.5C 207.535,131.069 206.701,129.903 205.5,129C 201.263,128.057 197.263,126.557 193.5,124.5C 185.216,113.93 179.049,102.263 175,89.5C 172.184,88.3377 169.35,87.1711 166.5,86C 167.416,85.6258 168.25,85.1258 169,84.5C 170.738,85.1271 172.571,85.4604 174.5,85.5C 188.92,84.7485 203.42,83.7485 218,82.5C 240.831,83.3677 263.665,85.2011 286.5,88C 301.731,90.9741 317.065,93.3074 332.5,95C 329.121,101.759 328.788,108.759 331.5,116C 329.366,122.537 327.699,129.204 326.5,136C 327.107,139.143 327.441,142.31 327.5,145.5 Z"/></g>
<g><path style="opacity:1" fill="#8d8d8d" d="M 354.5,145.5 C 354.784,143.585 354.451,141.919 353.5,140.5C 353.187,137.753 353.52,135.086 354.5,132.5C 355.811,136.984 355.811,141.317 354.5,145.5 Z"/></g>
<g><path style="opacity:1" fill="#f31f1d" d="M 353.5,140.5 C 354.451,141.919 354.784,143.585 354.5,145.5C 354.737,146.791 354.404,147.791 353.5,148.5C 351.992,150.181 350.992,152.181 350.5,154.5C 348.738,155.262 347.738,156.596 347.5,158.5C 347.167,159.5 346.5,160.167 345.5,160.5C 343.973,160.427 342.973,161.094 342.5,162.5C 340.973,162.427 339.973,163.094 339.5,164.5C 335.952,165.13 332.619,166.13 329.5,167.5C 325.5,167.5 321.5,167.5 317.5,167.5C 314.455,167.492 311.455,167.159 308.5,166.5C 306.192,164.529 303.858,162.529 301.5,160.5C 301.631,159.624 301.298,158.957 300.5,158.5C 298.854,163.808 295.52,167.475 290.5,169.5C 286.779,169.809 283.279,170.809 280,172.5C 272.177,172.279 264.677,170.612 257.5,167.5C 253.5,164.167 249.833,160.5 246.5,156.5C 246.598,154.447 245.931,152.78 244.5,151.5C 244.367,148.075 245.033,147.742 246.5,150.5C 247.167,153.167 248.833,154.833 251.5,155.5C 259.064,159.005 265.73,157.672 271.5,151.5C 272.5,151.167 273.167,150.5 273.5,149.5C 275.411,148.925 277.078,147.925 278.5,146.5C 279.167,146.5 279.5,146.167 279.5,145.5C 285.313,143.916 290.98,144.249 296.5,146.5C 296.932,147.71 297.599,148.71 298.5,149.5C 300.079,153.317 301.079,152.984 301.5,148.5C 302.974,147.564 303.974,146.23 304.5,144.5C 306.746,143.545 309.079,142.878 311.5,142.5C 315.926,141.847 320.26,142.514 324.5,144.5C 324.973,145.906 325.973,146.573 327.5,146.5C 328.492,146.328 329.158,146.662 329.5,147.5C 330.287,149.104 331.62,149.771 333.5,149.5C 336.455,150.159 339.455,150.492 342.5,150.5C 344.698,150.88 346.365,150.213 347.5,148.5C 350.167,147.833 351.833,146.167 352.5,143.5C 352.263,142.209 352.596,141.209 353.5,140.5 Z"/></g>
<g><path style="opacity:0.627" fill="#757474" d="M 311.5,142.5 C 309.079,142.878 306.746,143.545 304.5,144.5C 306.382,141.782 308.715,141.115 311.5,142.5 Z"/></g>
<g><path style="opacity:0.443" fill="#716867" d="M 296.5,146.5 C 290.98,144.249 285.313,143.916 279.5,145.5C 284.386,142.173 289.553,141.839 295,144.5C 296.03,144.836 296.53,145.503 296.5,146.5 Z"/></g>
<g><path style="opacity:1" fill="#686766" d="M 246.5,150.5 C 245.033,147.742 244.367,148.075 244.5,151.5C 242.585,148.067 242.252,144.4 243.5,140.5C 245.119,143.642 246.119,146.976 246.5,150.5 Z"/></g>
<g><path style="opacity:1" fill="#999796" d="M 324.5,144.5 C 325.609,144.557 326.609,144.89 327.5,145.5C 327.5,145.833 327.5,146.167 327.5,146.5C 325.973,146.573 324.973,145.906 324.5,144.5 Z"/></g>
<g><path style="opacity:1" fill="#9e9e9d" d="M 352.5,143.5 C 351.833,146.167 350.167,147.833 347.5,148.5C 348.833,146.5 350.5,144.833 352.5,143.5 Z"/></g>
<g><path style="opacity:0.988" fill="#716f6e" d="M 278.5,146.5 C 277.078,147.925 275.411,148.925 273.5,149.5C 274.648,146.913 276.315,145.913 278.5,146.5 Z"/></g>
<g><path style="opacity:0.141" fill="#a1a09f" d="M 301.5,148.5 C 301.079,152.984 300.079,153.317 298.5,149.5C 299.209,148.596 300.209,148.263 301.5,148.5 Z"/></g>
<g><path style="opacity:1" fill="#a6a5a4" d="M 329.5,147.5 C 330.167,147.5 330.833,147.5 331.5,147.5C 332.167,148.167 332.833,148.833 333.5,149.5C 331.62,149.771 330.287,149.104 329.5,147.5 Z"/></g>
<g><path style="opacity:1" fill="#b7b7b5" d="M 347.5,148.5 C 346.365,150.213 344.698,150.88 342.5,150.5C 343.93,149.463 345.597,148.796 347.5,148.5 Z"/></g>
<g><path style="opacity:1" fill="#9f9f9e" d="M 353.5,148.5 C 353.539,151.089 352.539,153.089 350.5,154.5C 350.992,152.181 351.992,150.181 353.5,148.5 Z"/></g>
<g><path style="opacity:0.216" fill="#8b8381" d="M 246.5,150.5 C 248.833,151.5 250.5,153.167 251.5,155.5C 248.833,154.833 247.167,153.167 246.5,150.5 Z"/></g>
<g><path style="opacity:1" fill="#afaead" d="M 350.5,154.5 C 350.262,156.404 349.262,157.738 347.5,158.5C 347.738,156.596 348.738,155.262 350.5,154.5 Z"/></g>
<g><path style="opacity:0.808" fill="#757574" d="M 271.5,151.5 C 265.73,157.672 259.064,159.005 251.5,155.5C 259.06,157.911 265.56,156.244 271,150.5C 271.399,150.728 271.565,151.062 271.5,151.5 Z"/></g>
<g><path style="opacity:1" fill="#b7b7b7" d="M 345.5,160.5 C 345.027,161.906 344.027,162.573 342.5,162.5C 342.973,161.094 343.973,160.427 345.5,160.5 Z"/></g>
<g><path style="opacity:0.243" fill="#827c7a" d="M 246.5,156.5 C 249.833,160.5 253.5,164.167 257.5,167.5C 257.103,168.525 256.437,168.692 255.5,168C 251.393,164.912 248.393,161.079 246.5,156.5 Z"/></g>
<g><path style="opacity:0.333" fill="#a0a09e" d="M 301.5,160.5 C 303.858,162.529 306.192,164.529 308.5,166.5C 304.75,166.129 302.417,164.129 301.5,160.5 Z"/></g>
<g><path style="opacity:1" fill="#b8b9b7" d="M 342.5,162.5 C 342.027,163.906 341.027,164.573 339.5,164.5C 339.973,163.094 340.973,162.427 342.5,162.5 Z"/></g>
<g><path style="opacity:0.951" fill="#f31c1b" d="M 338.5,165.5 C 365.732,191.634 388.898,220.967 408,253.5C 408.497,256.146 408.664,258.813 408.5,261.5C 399.11,260.825 389.776,259.991 380.5,259C 391.167,268.333 401.167,278.333 410.5,289C 420.657,293.911 430.657,299.078 440.5,304.5C 441.046,305.772 441.379,307.106 441.5,308.5C 440.112,313.468 439.279,318.468 439,323.5C 447.91,334.311 455.576,345.977 462,358.5C 463.974,364.062 465.474,369.729 466.5,375.5C 467.833,375.5 469.167,375.5 470.5,375.5C 470.5,375.833 470.5,376.167 470.5,376.5C 454.833,376.5 439.167,376.5 423.5,376.5C 427.619,375.262 431.953,374.429 436.5,374C 444.833,373.667 453.167,373.333 461.5,373C 459.648,365.791 456.815,358.958 453,352.5C 447.053,343.553 440.72,334.886 434,326.5C 432.119,333.787 430.452,341.12 429,348.5C 424.095,357.38 420.261,366.713 417.5,376.5C 405.5,376.5 393.5,376.5 381.5,376.5C 380.301,371.761 378.801,367.095 377,362.5C 376.574,357.66 376.74,352.827 377.5,348C 377.418,344.765 376.918,341.598 376,338.5C 369.842,323.524 363.176,308.857 356,294.5C 347.758,278.344 338.758,262.677 329,247.5C 321.968,240.803 315.302,233.803 309,226.5C 308.333,223.833 308.333,221.167 309,218.5C 310.821,215.047 311.988,211.713 312.5,208.5C 311.56,205.868 311.393,203.202 312,200.5C 313.587,199.273 314.921,199.606 316,201.5C 316.901,204.071 318.234,206.404 320,208.5C 326.356,195.959 328.19,182.793 325.5,169C 327.058,168.79 328.391,168.29 329.5,167.5C 332.697,167.595 335.697,166.928 338.5,165.5 Z"/></g>
<g><path style="opacity:0.098" fill="#9f9e9c" d="M 301.5,160.5 C 299.645,165.608 295.979,168.608 290.5,169.5C 295.52,167.475 298.854,163.808 300.5,158.5C 301.298,158.957 301.631,159.624 301.5,160.5 Z"/></g>
<g><path style="opacity:1" fill="#b7acab" d="M 339.5,164.5 C 339.5,165.167 339.167,165.5 338.5,165.5C 335.697,166.928 332.697,167.595 329.5,167.5C 332.619,166.13 335.952,165.13 339.5,164.5 Z"/></g>
<g><path style="opacity:0.922" fill="#71706f" d="M 308.5,166.5 C 311.455,167.159 314.455,167.492 317.5,167.5C 316.551,168.152 315.385,168.486 314,168.5C 311.779,168.607 309.946,167.94 308.5,166.5 Z"/></g>
<g><path style="opacity:1" fill="#000000" d="M 163.5,203.5 C 164.394,207.468 165.227,211.468 166,215.5C 166.382,226.518 167.048,237.518 168,248.5C 170.5,250.536 173.167,250.87 176,249.5C 175.763,260.128 175.43,270.795 175,281.5C 174.955,284.334 174.121,286.834 172.5,289C 173.167,290 173.833,291 174.5,292C 174.038,294.127 174.038,296.46 174.5,299C 172.621,316.125 171.788,333.292 172,350.5C 173,351.833 174,351.833 175,350.5C 175.333,339.167 175.667,327.833 176,316.5C 176.858,309.473 177.692,302.473 178.5,295.5C 182.131,298.629 185.631,301.963 189,305.5C 189.717,309.565 191.383,313.231 194,316.5C 199.333,323.167 204.667,329.833 210,336.5C 212.094,341.024 214.427,345.358 217,349.5C 222.393,354.304 226.726,359.971 230,366.5C 233.422,369.009 235.589,372.343 236.5,376.5C 201.167,376.5 165.833,376.5 130.5,376.5C 122.715,368.403 115.048,360.07 107.5,351.5C 105.229,347.388 102.729,343.388 100,339.5C 92.9289,332.597 86.0956,325.597 79.5,318.5C 84.1575,313.01 89.3241,308.01 95,303.5C 99.3644,297.809 103.698,292.143 108,286.5C 118.763,273.204 131.596,262.37 146.5,254C 156.518,245.278 161.518,234.278 161.5,221C 161.244,216.519 159.577,212.686 156.5,209.5C 158.828,207.507 161.161,205.507 163.5,203.5 Z"/></g>
<g><path style="opacity:1" fill="#000000" d="M 207.5,245.5 C 210.518,245.335 213.518,245.502 216.5,246C 220.725,252.285 224.558,258.785 228,265.5C 229.44,264.07 229.774,262.403 229,260.5C 226.352,255.555 223.519,250.722 220.5,246C 226.833,245.333 233.167,245.333 239.5,246C 242.672,248.419 246.006,250.586 249.5,252.5C 246.345,258.435 244.512,264.769 244,271.5C 227.518,273.217 211.684,277.383 196.5,284C 189.661,285.049 182.994,286.382 176.5,288C 177,287.5 177.5,287 178,286.5C 178.192,274.468 178.858,262.468 180,250.5C 181.491,248.996 183.324,248.163 185.5,248C 193.077,247.965 200.41,247.131 207.5,245.5 Z"/></g>
<g><path style="opacity:1" fill="#000000" d="M 397.5,284.5 C 390.385,281.851 383.719,278.351 377.5,274C 370.819,273.016 363.819,272.349 356.5,272C 361.633,267.387 365.3,261.887 367.5,255.5C 368.552,255.351 369.552,255.517 370.5,256C 379.97,265.065 388.97,274.565 397.5,284.5 Z"/></g>
<g><path style="opacity:1" fill="#000000" d="M 125.5,376.5 C 87.5,376.5 49.5,376.5 11.5,376.5C 14.6535,358.885 19.8202,341.885 27,325.5C 27.7247,326.059 28.5581,326.392 29.5,326.5C 37.4717,325.728 45.4717,325.228 53.5,325C 59.4062,323.418 65.2395,321.585 71,319.5C 73.517,320.507 76.017,321.674 78.5,323C 84.7892,329.113 90.9559,335.279 97,341.5C 100.063,345.569 102.73,349.902 105,354.5C 111.7,362.03 118.533,369.364 125.5,376.5 Z"/></g>
<g><path style="opacity:1" fill="#000000" d="M 423.5,376.5 C 421.5,376.5 419.5,376.5 417.5,376.5C 420.261,366.713 424.095,357.38 429,348.5C 430.452,341.12 432.119,333.787 434,326.5C 440.72,334.886 447.053,343.553 453,352.5C 456.815,358.958 459.648,365.791 461.5,373C 453.167,373.333 444.833,373.667 436.5,374C 431.953,374.429 427.619,375.262 423.5,376.5 Z"/></g>
</svg>
