<?xml version="1.0" encoding="UTF-8"?>
<!DOCTYPE svg PUBLIC "-//W3C//DTD SVG 1.1//EN" "http://www.w3.org/Graphics/SVG/1.1/DTD/svg11.dtd">
<svg xmlns="http://www.w3.org/2000/svg" version="1.1" width="666px" height="375px" style="shape-rendering:geometricPrecision; text-rendering:geometricPrecision; image-rendering:optimizeQuality; fill-rule:evenodd; clip-rule:evenodd" xmlns:xlink="http://www.w3.org/1999/xlink">
<g><path style="opacity:1" fill="#2c272b" d="M 302.5,-0.5 C 312.5,-0.5 322.5,-0.5 332.5,-0.5C 335.572,1.41444 338.905,2.74777 342.5,3.5C 347.784,2.07465 353.117,1.24132 358.5,1C 365.404,4.19178 371.237,8.69178 376,14.5C 376.333,24.1667 376.667,33.8333 377,43.5C 378.009,45.0249 378.509,46.6916 378.5,48.5C 377.883,48.6107 377.383,48.944 377,49.5C 347.983,39.0044 318.817,38.8377 289.5,49C 294.544,48.7152 299.544,47.8819 304.5,46.5C 304.9,52.829 305.233,59.1624 305.5,65.5C 299.5,65.5 293.5,65.5 287.5,65.5C 287.219,60.4351 287.552,55.4351 288.5,50.5C 287.833,50.1667 287.167,49.8333 286.5,49.5C 277.04,51.8637 267.707,54.5303 258.5,57.5C 258.768,55.901 258.434,54.5676 257.5,53.5C 259.192,43.4982 261.025,33.4982 263,23.5C 275.285,14.0482 288.452,6.04815 302.5,-0.5 Z"/></g>
<g><path style="opacity:1" fill="#1e171b" d="M 311.5,9.5 C 314.247,9.18665 316.914,9.51998 319.5,10.5C 318.893,18.1769 315.893,24.6769 310.5,30C 304.5,34.3333 298.5,38.6667 292.5,43C 291.668,43.6877 291.002,43.521 290.5,42.5C 293.002,37.1473 296.168,32.1473 300,27.5C 300.499,23.5138 300.666,19.5138 300.5,15.5C 305.139,15.1757 308.806,13.1757 311.5,9.5 Z"/></g>
<g><path style="opacity:1" fill="#29262d" d="M 378.5,49.5 C 380.547,55.9934 382.214,62.6601 383.5,69.5C 358.051,65.5066 332.385,63.84 306.5,64.5C 306.334,58.4908 306.501,52.4908 307,46.5C 308.399,45.7734 309.899,45.2734 311.5,45C 328.218,42.8114 344.885,43.1447 361.5,46C 367.262,47.1351 372.762,48.9684 378,51.5C 378.464,50.9056 378.631,50.2389 378.5,49.5 Z"/></g>
<g><path style="opacity:1" fill="#26232c" d="M 253.5,69.5 C 254.131,66.2984 255.131,63.2984 256.5,60.5C 256.369,61.2389 256.536,61.9056 257,62.5C 258.109,60.1853 259.943,58.6853 262.5,58C 270.272,54.9079 278.272,52.7412 286.5,51.5C 286.084,56.4932 285.751,61.4932 285.5,66.5C 274.786,67.006 264.119,68.006 253.5,69.5 Z"/></g>
<g><path style="opacity:1" fill="#17141a" d="M 378.5,48.5 C 378.5,48.8333 378.5,49.1667 378.5,49.5C 378.631,50.2389 378.464,50.9056 378,51.5C 372.762,48.9684 367.262,47.1351 361.5,46C 344.885,43.1447 328.218,42.8114 311.5,45C 309.899,45.2734 308.399,45.7734 307,46.5C 306.501,52.4908 306.334,58.4908 306.5,64.5C 332.385,63.84 358.051,65.5066 383.5,69.5C 382.726,70.1471 381.726,70.4805 380.5,70.5C 337.784,64.9202 295.117,65.2535 252.5,71.5C 251.5,71.3333 250.5,71.1667 249.5,71C 250.737,70.7679 251.737,70.2679 252.5,69.5C 252.833,69.5 253.167,69.5 253.5,69.5C 264.119,68.006 274.786,67.006 285.5,66.5C 285.751,61.4932 286.084,56.4932 286.5,51.5C 278.272,52.7412 270.272,54.9079 262.5,58C 259.943,58.6853 258.109,60.1853 257,62.5C 256.536,61.9056 256.369,61.2389 256.5,60.5C 256.198,57.9407 256.532,55.6074 257.5,53.5C 258.434,54.5676 258.768,55.901 258.5,57.5C 267.707,54.5303 277.04,51.8637 286.5,49.5C 287.167,49.8333 287.833,50.1667 288.5,50.5C 287.552,55.4351 287.219,60.4351 287.5,65.5C 293.5,65.5 299.5,65.5 305.5,65.5C 305.233,59.1624 304.9,52.829 304.5,46.5C 299.544,47.8819 294.544,48.7152 289.5,49C 318.817,38.8377 347.983,39.0044 377,49.5C 377.383,48.944 377.883,48.6107 378.5,48.5 Z"/></g>
<g><path style="opacity:1" fill="#322d32" d="M 383.5,69.5 C 400.952,73.0347 417.285,79.2014 432.5,88C 430.72,90.2234 428.386,91.3901 425.5,91.5C 425.577,90.2502 426.244,89.4169 427.5,89C 426,88.8333 424.5,88.6667 423,88.5C 409.167,90.459 395.334,90.7923 381.5,89.5C 370.139,88.3298 358.805,86.9964 347.5,85.5C 342.322,84.2414 336.989,83.0747 331.5,82C 320.455,81.7311 309.455,80.8978 298.5,79.5C 296.631,79.5068 294.964,79.8401 293.5,80.5C 292.209,80.7373 291.209,80.404 290.5,79.5C 282.227,78.3907 272.56,77.724 261.5,77.5C 248.122,77.9318 234.788,78.9318 221.5,80.5C 219.793,80.2716 218.126,79.9383 216.5,79.5C 227.875,74.3201 239.875,70.9867 252.5,69.5C 251.737,70.2679 250.737,70.7679 249.5,71C 250.5,71.1667 251.5,71.3333 252.5,71.5C 295.117,65.2535 337.784,64.9202 380.5,70.5C 381.726,70.4805 382.726,70.1471 383.5,69.5 Z"/></g>
<g><path style="opacity:1" fill="#1b1319" d="M 290.5,79.5 C 279.147,79.1678 267.814,79.5012 256.5,80.5C 256.624,81.1067 256.957,81.44 257.5,81.5C 246.185,82.8388 235.185,85.8388 224.5,90.5C 223.526,92.7427 223.192,95.076 223.5,97.5C 222.512,95.5629 221.512,93.5629 220.5,91.5C 220.608,90.5581 220.941,89.7247 221.5,89C 217.275,87.3834 213.275,85.5501 209.5,83.5C 211.081,80.8753 213.415,79.542 216.5,79.5C 218.126,79.9383 219.793,80.2716 221.5,80.5C 234.788,78.9318 248.122,77.9318 261.5,77.5C 272.56,77.724 282.227,78.3907 290.5,79.5 Z"/></g>
<g><path style="opacity:1" fill="#544d5b" d="M 290.5,79.5 C 291.209,80.404 292.209,80.7373 293.5,80.5C 290.78,88.2739 287.78,95.9406 284.5,103.5C 280.307,103.047 276.307,101.881 272.5,100C 270.672,94.5165 268.839,89.0165 267,83.5C 263.883,82.6962 260.716,82.0295 257.5,81.5C 256.957,81.44 256.624,81.1067 256.5,80.5C 267.814,79.5012 279.147,79.1678 290.5,79.5 Z"/></g>
<g><path style="opacity:1" fill="#330f19" d="M 257.5,81.5 C 260.716,82.0295 263.883,82.6962 267,83.5C 268.839,89.0165 270.672,94.5165 272.5,100C 276.307,101.881 280.307,103.047 284.5,103.5C 283.903,104.139 283.07,104.472 282,104.5C 278.482,103.745 274.982,102.912 271.5,102C 270.891,100.052 270.224,98.2184 269.5,96.5C 267.996,92.6516 266.996,88.6516 266.5,84.5C 260.159,83.2209 253.826,83.2209 247.5,84.5C 247.5,85.5 247.5,86.5 247.5,87.5C 251.273,86.8224 254.106,88.1558 256,91.5C 256.688,92.3317 256.521,92.9984 255.5,93.5C 254.019,92.5197 252.685,91.353 251.5,90C 242.828,87.6014 234.328,88.1014 226,91.5C 224.97,91.8361 224.47,92.5028 224.5,93.5C 224.5,94.8333 224.5,96.1667 224.5,97.5C 224.167,97.5 223.833,97.5 223.5,97.5C 223.192,95.076 223.526,92.7427 224.5,90.5C 235.185,85.8388 246.185,82.8388 257.5,81.5 Z"/></g>
<g><path style="opacity:1" fill="#351019" d="M 347.5,85.5 C 353.583,87.2939 359.916,88.4606 366.5,89C 367.731,90.1827 367.731,91.3493 366.5,92.5C 364.929,93.3094 363.262,93.6427 361.5,93.5C 361.259,96.0336 362.259,97.7002 364.5,98.5C 364.5,100.167 364.5,101.833 364.5,103.5C 367.059,103.802 369.393,103.468 371.5,102.5C 372.239,102.369 372.906,102.536 373.5,103C 371.5,104.333 369.5,105.667 367.5,107C 368.624,107.249 369.624,107.749 370.5,108.5C 368.234,109.206 365.901,109.039 363.5,108C 363.014,104.573 361.847,101.406 360,98.5C 359.503,95.854 359.336,93.1873 359.5,90.5C 349.78,88.2714 339.946,86.2714 330,84.5C 332.76,89.4704 337.26,91.8038 343.5,91.5C 343.88,94.7916 342.547,97.1249 339.5,98.5C 336.524,98.067 333.857,97.067 331.5,95.5C 329.471,91.1081 325.971,89.4414 321,90.5C 317.742,90.4933 314.575,90.9933 311.5,92C 310.748,92.6708 310.414,93.5041 310.5,94.5C 308.586,93.8153 306.586,93.3153 304.5,93C 303.483,91.9505 303.316,90.7839 304,89.5C 308.784,90.3972 313.617,90.2305 318.5,89C 319.554,87.6124 319.72,86.1124 319,84.5C 314.557,83.7452 310.057,83.0785 305.5,82.5C 303.109,83.8991 300.943,83.5657 299,81.5C 297.686,82.3128 296.519,83.3128 295.5,84.5C 293.126,90.7264 290.459,96.7264 287.5,102.5C 286.391,102.557 285.391,102.89 284.5,103.5C 287.78,95.9406 290.78,88.2739 293.5,80.5C 294.964,79.8401 296.631,79.5068 298.5,79.5C 309.455,80.8978 320.455,81.7311 331.5,82C 336.989,83.0747 342.322,84.2414 347.5,85.5 Z"/></g>
<g><path style="opacity:1" fill="#200b0e" d="M 347.5,85.5 C 358.805,86.9964 370.139,88.3298 381.5,89.5C 381.792,92.7654 381.125,95.7654 379.5,98.5C 379.685,99.5837 380.018,100.584 380.5,101.5C 379.662,101.842 379.328,102.508 379.5,103.5C 378.367,101.945 377.701,100.111 377.5,98C 378.244,96.1454 379.244,94.4788 380.5,93C 380.355,92.228 380.022,91.5613 379.5,91C 375.524,91.0468 371.858,92.2135 368.5,94.5C 370.865,95.0851 372.865,96.2518 374.5,98C 373.906,98.4643 373.239,98.631 372.5,98.5C 370.482,97.9528 368.649,96.9528 367,95.5C 365.955,96.3734 365.122,97.3734 364.5,98.5C 362.259,97.7002 361.259,96.0336 361.5,93.5C 363.262,93.6427 364.929,93.3094 366.5,92.5C 367.731,91.3493 367.731,90.1827 366.5,89C 359.916,88.4606 353.583,87.2939 347.5,85.5 Z"/></g>
<g><path style="opacity:1" fill="#221b21" d="M 425.5,91.5 C 410.9,96.4356 395.9,99.7689 380.5,101.5C 380.018,100.584 379.685,99.5837 379.5,98.5C 381.125,95.7654 381.792,92.7654 381.5,89.5C 395.334,90.7923 409.167,90.459 423,88.5C 424.5,88.6667 426,88.8333 427.5,89C 426.244,89.4169 425.577,90.2502 425.5,91.5 Z"/></g>
<g><path style="opacity:1" fill="#3f0d19" d="M 269.5,96.5 C 266.06,95.9094 262.727,94.9094 259.5,93.5C 259.167,93.8333 258.833,94.1667 258.5,94.5C 262.387,98.2204 265.72,102.387 268.5,107C 266.914,111.33 266.081,115.83 266,120.5C 265.439,121.022 264.772,121.355 264,121.5C 260.13,117.967 255.964,114.8 251.5,112C 238.131,109.955 235.797,103.955 244.5,94C 236.128,94.2392 233.462,98.4059 236.5,106.5C 240.35,110.508 244.683,114.008 249.5,117C 250.5,118 251.5,119 252.5,120C 252.167,120.167 251.833,120.333 251.5,120.5C 245.86,116.693 240.36,112.693 235,108.5C 231.982,102.125 233.148,96.9582 238.5,93C 233.816,92.5386 229.149,92.7053 224.5,93.5C 224.47,92.5028 224.97,91.8361 226,91.5C 234.328,88.1014 242.828,87.6014 251.5,90C 252.685,91.353 254.019,92.5197 255.5,93.5C 256.521,92.9984 256.688,92.3317 256,91.5C 254.106,88.1558 251.273,86.8224 247.5,87.5C 247.5,86.5 247.5,85.5 247.5,84.5C 253.826,83.2209 260.159,83.2209 266.5,84.5C 266.996,88.6516 267.996,92.6516 269.5,96.5 Z"/></g>
<g><path style="opacity:0.408" fill="#3d2830" d="M 223.5,97.5 C 223.833,97.5 224.167,97.5 224.5,97.5C 229.786,104.816 234.619,112.483 239,120.5C 243.114,122.469 246.948,124.803 250.5,127.5C 246.49,126.16 242.49,124.826 238.5,123.5C 238.5,123.167 238.5,122.833 238.5,122.5C 232.738,114.645 227.738,106.312 223.5,97.5 Z"/></g>
<g><path style="opacity:0.98" fill="#493038" d="M 380.5,101.5 C 380.464,105.453 381.131,109.286 382.5,113C 378.376,124.598 376.376,136.432 376.5,148.5C 376.778,141.621 376.445,134.788 375.5,128C 376.799,122.678 378.465,117.511 380.5,112.5C 379.698,109.551 379.364,106.551 379.5,103.5C 379.328,102.508 379.662,101.842 380.5,101.5 Z"/></g>
<g><path style="opacity:1" fill="#430f1c" d="M 310.5,94.5 C 314.64,96.3304 318.974,97.9971 323.5,99.5C 326.658,98.7499 329.325,97.4165 331.5,95.5C 333.857,97.067 336.524,98.067 339.5,98.5C 342.547,97.1249 343.88,94.7916 343.5,91.5C 337.26,91.8038 332.76,89.4704 330,84.5C 339.946,86.2714 349.78,88.2714 359.5,90.5C 359.336,93.1873 359.503,95.854 360,98.5C 361.847,101.406 363.014,104.573 363.5,108C 365.901,109.039 368.234,109.206 370.5,108.5C 369.624,107.749 368.624,107.249 367.5,107C 369.5,105.667 371.5,104.333 373.5,103C 372.906,102.536 372.239,102.369 371.5,102.5C 373.493,101.528 373.826,100.195 372.5,98.5C 373.239,98.631 373.906,98.4643 374.5,98C 372.865,96.2518 370.865,95.0851 368.5,94.5C 371.858,92.2135 375.524,91.0468 379.5,91C 380.022,91.5613 380.355,92.228 380.5,93C 379.244,94.4788 378.244,96.1454 377.5,98C 377.701,100.111 378.367,101.945 379.5,103.5C 379.364,106.551 379.698,109.551 380.5,112.5C 378.465,117.511 376.799,122.678 375.5,128C 376.445,134.788 376.778,141.621 376.5,148.5C 376.335,151.85 376.502,155.183 377,158.5C 377.708,159.381 378.542,160.047 379.5,160.5C 378.721,162.927 377.554,162.927 376,160.5C 375.517,161.448 375.351,162.448 375.5,163.5C 375.481,153.691 375.314,143.691 375,133.5C 371.406,128.649 367.572,123.983 363.5,119.5C 361.456,125.613 357.956,130.613 353,134.5C 350.511,132.681 348.011,130.848 345.5,129C 341.684,123.517 337.184,118.684 332,114.5C 324.981,121.185 318.314,128.185 312,135.5C 312.89,130.553 313.89,125.553 315,120.5C 318.439,118.218 320.939,115.218 322.5,111.5C 310.966,108.249 299.3,105.249 287.5,102.5C 290.459,96.7264 293.126,90.7264 295.5,84.5C 296.519,83.3128 297.686,82.3128 299,81.5C 300.943,83.5657 303.109,83.8991 305.5,82.5C 310.057,83.0785 314.557,83.7452 319,84.5C 319.72,86.1124 319.554,87.6124 318.5,89C 313.617,90.2305 308.784,90.3972 304,89.5C 303.316,90.7839 303.483,91.9505 304.5,93C 306.586,93.3153 308.586,93.8153 310.5,94.5 Z"/></g>
<g><path style="opacity:1" fill="#5b4141" d="M 372.5,98.5 C 373.826,100.195 373.493,101.528 371.5,102.5C 369.393,103.468 367.059,103.802 364.5,103.5C 364.5,101.833 364.5,100.167 364.5,98.5C 365.122,97.3734 365.955,96.3734 367,95.5C 368.649,96.9528 370.482,97.9528 372.5,98.5 Z"/></g>
<g><path style="opacity:1" fill="#5c403e" d="M 331.5,95.5 C 329.325,97.4165 326.658,98.7499 323.5,99.5C 318.974,97.9971 314.64,96.3304 310.5,94.5C 310.414,93.5041 310.748,92.6708 311.5,92C 314.575,90.9933 317.742,90.4933 321,90.5C 325.971,89.4414 329.471,91.1081 331.5,95.5 Z"/></g>
<g><path style="opacity:1" fill="#5e1f2e" d="M 351.5,108.5 C 362.642,107.33 365.642,111.83 360.5,122C 358.765,122.651 357.098,122.485 355.5,121.5C 353.649,119.816 351.982,117.983 350.5,116C 348.167,115.667 345.833,115.333 343.5,115C 342.663,113.989 342.33,112.822 342.5,111.5C 345.854,111.253 348.854,110.253 351.5,108.5 Z"/></g>
<g><path style="opacity:1" fill="#615b5b" d="M 238.5,123.5 C 242.49,124.826 246.49,126.16 250.5,127.5C 251.263,128.268 252.263,128.768 253.5,129C 254.059,129.725 254.392,130.558 254.5,131.5C 253.477,139.467 252.81,147.467 252.5,155.5C 251.226,161.796 250.226,168.13 249.5,174.5C 243.687,166.902 237.854,159.235 232,151.5C 230.258,147.925 230.092,144.259 231.5,140.5C 228.402,140.244 225.402,139.578 222.5,138.5C 227.833,133.5 233.167,128.5 238.5,123.5 Z"/></g>
<g><path style="opacity:1" fill="#5e1c2c" d="M 269.5,96.5 C 270.224,98.2184 270.891,100.052 271.5,102C 274.982,102.912 278.482,103.745 282,104.5C 283.07,104.472 283.903,104.139 284.5,103.5C 285.391,102.89 286.391,102.557 287.5,102.5C 299.3,105.249 310.966,108.249 322.5,111.5C 320.939,115.218 318.439,118.218 315,120.5C 313.89,125.553 312.89,130.553 312,135.5C 318.314,128.185 324.981,121.185 332,114.5C 337.184,118.684 341.684,123.517 345.5,129C 348.011,130.848 350.511,132.681 353,134.5C 357.956,130.613 361.456,125.613 363.5,119.5C 367.572,123.983 371.406,128.649 375,133.5C 375.314,143.691 375.481,153.691 375.5,163.5C 377.445,171.597 377.945,179.931 377,188.5C 375.962,192.468 374.462,196.135 372.5,199.5C 371.264,201.611 369.764,203.611 368,205.5C 366.101,202.334 364.267,199.334 362.5,196.5C 363.128,193.91 364.295,191.577 366,189.5C 366.667,188.167 366.667,186.833 366,185.5C 364.767,188.297 363.267,190.963 361.5,193.5C 360.167,193.833 358.833,194.167 357.5,194.5C 351.166,193.767 344.832,193.1 338.5,192.5C 337.683,195.479 336.849,198.479 336,201.5C 335.481,202.516 334.647,203.182 333.5,203.5C 322.581,198.456 312.748,191.789 304,183.5C 301.227,178.396 298.06,173.563 294.5,169C 287.581,164.624 280.748,160.124 274,155.5C 271.894,147.201 269.894,138.868 268,130.5C 267.751,131.624 267.251,132.624 266.5,133.5C 263.592,131.878 260.592,130.544 257.5,129.5C 255.412,128.061 253.079,127.394 250.5,127.5C 246.948,124.803 243.114,122.469 239,120.5C 234.619,112.483 229.786,104.816 224.5,97.5C 224.5,96.1667 224.5,94.8333 224.5,93.5C 229.149,92.7053 233.816,92.5386 238.5,93C 233.148,96.9582 231.982,102.125 235,108.5C 240.36,112.693 245.86,116.693 251.5,120.5C 251.833,120.333 252.167,120.167 252.5,120C 251.5,119 250.5,118 249.5,117C 244.683,114.008 240.35,110.508 236.5,106.5C 233.462,98.4059 236.128,94.2392 244.5,94C 235.797,103.955 238.131,109.955 251.5,112C 255.964,114.8 260.13,117.967 264,121.5C 264.772,121.355 265.439,121.022 266,120.5C 266.081,115.83 266.914,111.33 268.5,107C 265.72,102.387 262.387,98.2204 258.5,94.5C 258.833,94.1667 259.167,93.8333 259.5,93.5C 262.727,94.9094 266.06,95.9094 269.5,96.5 Z"/></g>
<g><path style="opacity:1" fill="#400815" d="M 324.5,138.5 C 332.144,138.41 339.477,139.91 346.5,143C 354.188,143.169 361.855,143.669 369.5,144.5C 370.776,149.637 370.11,149.804 367.5,145C 366.5,144.833 365.5,144.667 364.5,144.5C 359.191,145.511 353.857,145.678 348.5,145C 341.929,143.364 335.429,141.531 329,139.5C 321.994,142.254 315.494,145.92 309.5,150.5C 308.289,149.726 308.289,148.893 309.5,148C 314.694,144.939 319.694,141.773 324.5,138.5 Z"/></g>
<g><path style="opacity:1" fill="#2f1018" d="M 250.5,127.5 C 253.079,127.394 255.412,128.061 257.5,129.5C 257.721,130.735 258.388,131.735 259.5,132.5C 258.758,133.287 257.925,133.953 257,134.5C 255.811,142.474 255.478,150.474 256,158.5C 258.039,160.874 260.372,162.874 263,164.5C 263.862,166.087 264.529,167.754 265,169.5C 269.395,174.064 273.895,178.398 278.5,182.5C 276.405,181.588 274.405,180.421 272.5,179C 265.876,172.239 259.209,165.739 252.5,159.5C 252.5,158.167 252.5,156.833 252.5,155.5C 252.81,147.467 253.477,139.467 254.5,131.5C 254.392,130.558 254.059,129.725 253.5,129C 252.263,128.768 251.263,128.268 250.5,127.5 Z"/></g>
<g><path style="opacity:1" fill="#868b84" d="M 222.5,138.5 C 225.402,139.578 228.402,140.244 231.5,140.5C 230.092,144.259 230.258,147.925 232,151.5C 237.854,159.235 243.687,166.902 249.5,174.5C 252.083,177.997 254.416,181.664 256.5,185.5C 257.326,187.888 257.326,190.555 256.5,193.5C 251.999,194.416 247.499,195.416 243,196.5C 240.41,196.624 238.077,195.958 236,194.5C 233.341,196.787 232.175,199.454 232.5,202.5C 227.185,200.532 223.019,201.866 220,206.5C 219.534,200.08 218.367,193.747 216.5,187.5C 215.393,175.2 215.227,162.866 216,150.5C 216.362,145.438 218.528,141.438 222.5,138.5 Z"/></g>
<g><path style="opacity:1" fill="#3e0c19" d="M 257.5,129.5 C 260.592,130.544 263.592,131.878 266.5,133.5C 267.251,132.624 267.751,131.624 268,130.5C 269.894,138.868 271.894,147.201 274,155.5C 280.748,160.124 287.581,164.624 294.5,169C 298.06,173.563 301.227,178.396 304,183.5C 312.748,191.789 322.581,198.456 333.5,203.5C 334.647,203.182 335.481,202.516 336,201.5C 336.849,198.479 337.683,195.479 338.5,192.5C 344.832,193.1 351.166,193.767 357.5,194.5C 358.833,194.167 360.167,193.833 361.5,193.5C 363.267,190.963 364.767,188.297 366,185.5C 366.667,186.833 366.667,188.167 366,189.5C 364.295,191.577 363.128,193.91 362.5,196.5C 361.425,195.438 360.425,195.438 359.5,196.5C 357.372,201.859 354.872,207.193 352,212.5C 348.816,213.406 347.983,215.239 349.5,218C 348.833,218.667 348.167,219.333 347.5,220C 339.5,220.667 331.5,220.667 323.5,220C 321.262,214.176 318.595,208.676 315.5,203.5C 315.631,202.624 315.298,201.957 314.5,201.5C 312.205,200.568 309.871,199.735 307.5,199C 306.663,197.989 306.33,196.822 306.5,195.5C 303.788,194.802 301.454,193.468 299.5,191.5C 296.893,190.682 294.226,190.182 291.5,190C 287.003,187.644 282.67,185.144 278.5,182.5C 273.895,178.398 269.395,174.064 265,169.5C 264.529,167.754 263.862,166.087 263,164.5C 260.372,162.874 258.039,160.874 256,158.5C 255.478,150.474 255.811,142.474 257,134.5C 257.925,133.953 258.758,133.287 259.5,132.5C 258.388,131.735 257.721,130.735 257.5,129.5 Z"/></g>
<g><path style="opacity:1" fill="#615a5a" d="M 379.5,160.5 C 380.833,161.833 382.167,163.167 383.5,164.5C 382.761,164.369 382.094,164.536 381.5,165C 393.477,174.472 403.81,185.305 412.5,197.5C 405.482,194.994 398.315,192.994 391,191.5C 385.459,193.873 380.959,197.54 377.5,202.5C 369.424,208.891 363.757,216.891 360.5,226.5C 360.167,226.5 359.833,226.5 359.5,226.5C 358.756,216.83 359.256,207.163 361,197.5C 363.525,201.238 366.025,204.904 368.5,208.5C 370.658,205.852 371.992,202.852 372.5,199.5C 374.462,196.135 375.962,192.468 377,188.5C 377.945,179.931 377.445,171.597 375.5,163.5C 375.351,162.448 375.517,161.448 376,160.5C 377.554,162.927 378.721,162.927 379.5,160.5 Z"/></g>
<g><path style="opacity:1" fill="#2d0f1a" d="M 278.5,182.5 C 282.67,185.144 287.003,187.644 291.5,190C 294.226,190.182 296.893,190.682 299.5,191.5C 301.454,193.468 303.788,194.802 306.5,195.5C 306.33,196.822 306.663,197.989 307.5,199C 309.871,199.735 312.205,200.568 314.5,201.5C 315.298,201.957 315.631,202.624 315.5,203.5C 304.231,198.679 293.231,193.179 282.5,187C 280.959,185.629 279.625,184.129 278.5,182.5 Z"/></g>
<g><path style="opacity:1" fill="#323036" d="M 252.5,155.5 C 252.5,156.833 252.5,158.167 252.5,159.5C 252.785,164.897 252.451,170.23 251.5,175.5C 258.822,185.805 266.488,196.639 274.5,208C 275.906,209.978 276.906,212.145 277.5,214.5C 276.833,214.167 276.167,213.833 275.5,213.5C 269.942,203.614 263.608,194.281 256.5,185.5C 254.416,181.664 252.083,177.997 249.5,174.5C 250.226,168.13 251.226,161.796 252.5,155.5 Z"/></g>
<g><path style="opacity:1" fill="#7f867f" d="M 256.5,185.5 C 263.608,194.281 269.942,203.614 275.5,213.5C 276.806,217.655 278.806,221.488 281.5,225C 281.167,225.833 280.833,226.667 280.5,227.5C 279.158,225.995 277.492,225.328 275.5,225.5C 275.646,223.058 274.813,222.391 273,223.5C 272.667,222.833 272.333,222.167 272,221.5C 255.652,222.979 239.152,224.312 222.5,225.5C 222.067,228.166 221.567,230.832 221,233.5C 220.626,232.584 220.126,231.75 219.5,231C 219.928,228.371 220.928,226.038 222.5,224C 221.552,223.517 220.552,223.351 219.5,223.5C 219.662,225.527 219.495,227.527 219,229.5C 218.802,227.618 218.302,225.952 217.5,224.5C 217.067,212.17 216.734,199.837 216.5,187.5C 218.367,193.747 219.534,200.08 220,206.5C 223.019,201.866 227.185,200.532 232.5,202.5C 232.175,199.454 233.341,196.787 236,194.5C 238.077,195.958 240.41,196.624 243,196.5C 247.499,195.416 251.999,194.416 256.5,193.5C 257.326,190.555 257.326,187.888 256.5,185.5 Z"/></g>
<g><path style="opacity:1" fill="#868a82" d="M 412.5,197.5 C 418.136,203.977 423.636,210.644 429,217.5C 437.538,229.408 445.705,241.575 453.5,254C 446.152,253.966 438.819,253.466 431.5,252.5C 431.5,251.5 431.5,250.5 431.5,249.5C 428.482,249.665 425.482,249.498 422.5,249C 422.019,245.982 421.019,243.148 419.5,240.5C 420.803,238.411 420.303,236.744 418,235.5C 416.187,236.609 415.354,235.942 415.5,233.5C 413.453,233.489 411.453,233.156 409.5,232.5C 408.353,232.818 407.519,233.484 407,234.5C 405.815,232.623 404.815,230.623 404,228.5C 401.106,225.639 397.939,223.139 394.5,221C 388.934,219.921 383.601,218.255 378.5,216C 379.167,215.667 379.833,215.333 380.5,215C 376.724,214.266 374.724,211.933 374.5,208C 375.833,207.333 377.167,206.667 378.5,206C 377.663,204.989 377.33,203.822 377.5,202.5C 380.959,197.54 385.459,193.873 391,191.5C 398.315,192.994 405.482,194.994 412.5,197.5 Z"/></g>
<g><path style="opacity:1" fill="#4b4455" d="M 252.5,159.5 C 259.209,165.739 265.876,172.239 272.5,179C 274.405,180.421 276.405,181.588 278.5,182.5C 279.625,184.129 280.959,185.629 282.5,187C 293.231,193.179 304.231,198.679 315.5,203.5C 317.406,209.815 319.739,215.982 322.5,222C 329.674,222.396 336.841,222.896 344,223.5C 345.833,223.167 347.667,222.833 349.5,222.5C 351.364,216.44 354.03,210.774 357.5,205.5C 358.098,214.535 357.431,223.535 355.5,232.5C 355.52,233.726 355.853,234.726 356.5,235.5C 351.96,238.934 347.627,242.601 343.5,246.5C 335.506,245.301 327.506,245.301 319.5,246.5C 329.325,247.167 338.992,247.833 348.5,248.5C 344.486,248.334 340.486,248.501 336.5,249C 331.485,252.244 326.485,252.077 321.5,248.5C 319.004,250.839 317.004,253.505 315.5,256.5C 316.061,253.538 317.061,250.705 318.5,248C 318.355,247.228 318.022,246.561 317.5,246C 308.413,241.956 299.746,237.122 291.5,231.5C 291.167,231.667 290.833,231.833 290.5,232C 293.123,235.412 295.623,238.912 298,242.5C 298.74,243.749 298.573,244.749 297.5,245.5C 291.093,235.025 284.426,224.692 277.5,214.5C 276.906,212.145 275.906,209.978 274.5,208C 266.488,196.639 258.822,185.805 251.5,175.5C 252.451,170.23 252.785,164.897 252.5,159.5 Z"/></g>
<g><path style="opacity:1" fill="#7f847e" d="M 377.5,202.5 C 377.33,203.822 377.663,204.989 378.5,206C 377.167,206.667 375.833,207.333 374.5,208C 374.724,211.933 376.724,214.266 380.5,215C 379.833,215.333 379.167,215.667 378.5,216C 383.601,218.255 388.934,219.921 394.5,221C 397.939,223.139 401.106,225.639 404,228.5C 404.815,230.623 405.815,232.623 407,234.5C 407.519,233.484 408.353,232.818 409.5,232.5C 411.453,233.156 413.453,233.489 415.5,233.5C 415.354,235.942 416.187,236.609 418,235.5C 420.303,236.744 420.803,238.411 419.5,240.5C 421.019,243.148 422.019,245.982 422.5,249C 425.482,249.498 428.482,249.665 431.5,249.5C 431.5,250.5 431.5,251.5 431.5,252.5C 430.508,252.328 429.842,252.662 429.5,253.5C 427.167,253.5 424.833,253.5 422.5,253.5C 423.681,252.603 425.681,252.103 428.5,252C 423.857,251.002 419.19,250.668 414.5,251C 412.598,252.73 410.931,254.563 409.5,256.5C 408.85,256.196 408.183,255.863 407.5,255.5C 405.607,258.095 403.107,259.762 400,260.5C 398.334,257.961 396.167,255.795 393.5,254C 390.287,253.394 387.287,252.227 384.5,250.5C 383.201,251.09 382.368,252.09 382,253.5C 381.261,251.779 380.427,250.113 379.5,248.5C 378.818,249.243 378.151,249.909 377.5,250.5C 371.833,242.5 366.167,234.5 360.5,226.5C 363.757,216.891 369.424,208.891 377.5,202.5 Z"/></g>
<g><path style="opacity:1" fill="#28101a" d="M 362.5,196.5 C 364.267,199.334 366.101,202.334 368,205.5C 369.764,203.611 371.264,201.611 372.5,199.5C 371.992,202.852 370.658,205.852 368.5,208.5C 366.025,204.904 363.525,201.238 361,197.5C 359.256,207.163 358.756,216.83 359.5,226.5C 357.464,228.206 356.464,230.539 356.5,233.5C 356.5,234.167 356.5,234.833 356.5,235.5C 355.853,234.726 355.52,233.726 355.5,232.5C 357.431,223.535 358.098,214.535 357.5,205.5C 354.03,210.774 351.364,216.44 349.5,222.5C 347.667,222.833 345.833,223.167 344,223.5C 336.841,222.896 329.674,222.396 322.5,222C 319.739,215.982 317.406,209.815 315.5,203.5C 318.595,208.676 321.262,214.176 323.5,220C 331.5,220.667 339.5,220.667 347.5,220C 348.167,219.333 348.833,218.667 349.5,218C 347.983,215.239 348.816,213.406 352,212.5C 354.872,207.193 357.372,201.859 359.5,196.5C 360.425,195.438 361.425,195.438 362.5,196.5 Z"/></g>
<g><path style="opacity:1" fill="#363b36" d="M 205.5,208.5 C 207.813,210.209 209.313,212.543 210,215.5C 210.692,220.891 210.359,226.225 209,231.5C 205.046,235.211 200.879,238.544 196.5,241.5C 200.441,237.611 204.274,233.611 208,229.5C 209.216,222.184 208.383,215.184 205.5,208.5 Z"/></g>
<g><path style="opacity:0.98" fill="#3d3f3d" d="M 383.5,164.5 C 390.367,169.456 396.7,175.122 402.5,181.5C 421.819,203.309 438.985,226.642 454,251.5C 456.382,255.063 455.382,256.729 451,256.5C 443.784,255.754 436.617,254.754 429.5,253.5C 429.842,252.662 430.508,252.328 431.5,252.5C 438.819,253.466 446.152,253.966 453.5,254C 445.705,241.575 437.538,229.408 429,217.5C 423.636,210.644 418.136,203.977 412.5,197.5C 403.81,185.305 393.477,174.472 381.5,165C 382.094,164.536 382.761,164.369 383.5,164.5 Z"/></g>
<g><path style="opacity:0.463" fill="#34373a" d="M 238.5,122.5 C 238.5,122.833 238.5,123.167 238.5,123.5C 233.167,128.5 227.833,133.5 222.5,138.5C 218.528,141.438 216.362,145.438 216,150.5C 215.227,162.866 215.393,175.2 216.5,187.5C 216.734,199.837 217.067,212.17 217.5,224.5C 217.663,226.857 217.497,229.19 217,231.5C 216.031,219.848 215.198,208.181 214.5,196.5C 209.975,200.192 205.308,203.692 200.5,207C 202.382,207.198 204.048,207.698 205.5,208.5C 198.805,209.063 192.139,209.897 185.5,211C 183.586,212.413 182.253,214.247 181.5,216.5C 185.713,217.195 189.879,217.861 194,218.5C 195.216,222.377 194.049,225.043 190.5,226.5C 184.021,232.328 176.354,234.994 167.5,234.5C 165.911,233.379 164.244,233.546 162.5,235C 152.362,241.981 142.695,249.481 133.5,257.5C 125.851,263.152 118.518,269.152 111.5,275.5C 104.167,280.833 97.8333,287.167 92.5,294.5C 85.4572,300.899 80.1239,308.565 76.5,317.5C 75.7784,317.918 75.2784,318.584 75,319.5C 74.5357,318.906 74.369,318.239 74.5,317.5C 78.2919,309.202 83.1252,301.535 89,294.5C 111.936,271.384 136.769,250.717 163.5,232.5C 165.744,225.589 170.41,220.923 177.5,218.5C 179.115,215.55 181.115,212.884 183.5,210.5C 189.174,208.859 194.841,207.026 200.5,205C 204.689,201.31 209.022,197.81 213.5,194.5C 213.234,178.16 213.734,161.827 215,145.5C 217.071,140.535 220.238,136.369 224.5,133C 228.78,128.874 233.446,125.374 238.5,122.5 Z"/></g>
<g><path style="opacity:1" fill="#7f837c" d="M 190.5,226.5 C 184.376,229.809 177.876,232.142 171,233.5C 168.399,233.399 166.899,232.065 166.5,229.5C 170.465,223.505 176.132,220.005 183.5,219C 186.76,218.216 189.927,218.383 193,219.5C 193.317,222.207 192.484,224.54 190.5,226.5 Z"/></g>
<g><path style="opacity:1" fill="#797f7b" d="M 217.5,224.5 C 218.302,225.952 218.802,227.618 219,229.5C 219.495,227.527 219.662,225.527 219.5,223.5C 220.552,223.351 221.552,223.517 222.5,224C 220.928,226.038 219.928,228.371 219.5,231C 220.126,231.75 220.626,232.584 221,233.5C 221.567,230.832 222.067,228.166 222.5,225.5C 239.152,224.312 255.652,222.979 272,221.5C 272.333,222.167 272.667,222.833 273,223.5C 274.813,222.391 275.646,223.058 275.5,225.5C 277.492,225.328 279.158,225.995 280.5,227.5C 280.833,226.667 281.167,225.833 281.5,225C 278.806,221.488 276.806,217.655 275.5,213.5C 276.167,213.833 276.833,214.167 277.5,214.5C 284.426,224.692 291.093,235.025 297.5,245.5C 297.5,245.833 297.5,246.167 297.5,246.5C 297.5,247.167 297.5,247.833 297.5,248.5C 297.167,248.5 296.833,248.5 296.5,248.5C 293.358,245.531 290.025,242.698 286.5,240C 279.167,239.333 271.833,239.333 264.5,240C 255.529,241.423 246.529,242.589 237.5,243.5C 235.901,243.232 234.568,243.566 233.5,244.5C 228.848,244.998 224.181,245.331 219.5,245.5C 219.656,241.418 219.156,237.418 218,233.5C 217.436,238.194 217.603,242.86 218.5,247.5C 219.5,247.5 220.5,247.5 221.5,247.5C 223.199,247.34 224.866,247.506 226.5,248C 225.726,250.405 225.226,252.905 225,255.5C 224.667,254.833 224.333,254.167 224,253.5C 222.559,254.26 221.059,254.926 219.5,255.5C 213.775,253.388 207.941,252.721 202,253.5C 200.635,253.156 199.468,252.489 198.5,251.5C 195.024,252.978 191.691,252.812 188.5,251C 189.71,249.961 190.71,248.794 191.5,247.5C 193.167,245.5 194.833,243.5 196.5,241.5C 200.879,238.544 205.046,235.211 209,231.5C 210.359,226.225 210.692,220.891 210,215.5C 209.313,212.543 207.813,210.209 205.5,208.5C 204.048,207.698 202.382,207.198 200.5,207C 205.308,203.692 209.975,200.192 214.5,196.5C 215.198,208.181 216.031,219.848 217,231.5C 217.497,229.19 217.663,226.857 217.5,224.5 Z"/></g>
<g><path style="opacity:1" fill="#7d817c" d="M 205.5,208.5 C 208.383,215.184 209.216,222.184 208,229.5C 204.274,233.611 200.441,237.611 196.5,241.5C 194.938,241.733 193.605,242.4 192.5,243.5C 191.193,242.847 189.86,242.18 188.5,241.5C 188.331,242.397 187.998,243.397 187.5,244.5C 186.808,243.975 186.308,243.308 186,242.5C 185.5,243.667 184.667,244.5 183.5,245C 172.854,245.829 172.854,246.329 183.5,246.5C 183.719,247.675 183.386,248.675 182.5,249.5C 179.505,249.172 176.505,249.172 173.5,249.5C 171.407,249.514 169.574,248.848 168,247.5C 166.847,249.497 165.347,249.83 163.5,248.5C 166.105,246.584 165.605,245.584 162,245.5C 159.599,244.479 157.766,244.812 156.5,246.5C 154.865,245.67 153.198,245.503 151.5,246C 156.691,241.977 162.024,238.144 167.5,234.5C 176.354,234.994 184.021,232.328 190.5,226.5C 194.049,225.043 195.216,222.377 194,218.5C 189.879,217.861 185.713,217.195 181.5,216.5C 182.253,214.247 183.586,212.413 185.5,211C 192.139,209.897 198.805,209.063 205.5,208.5 Z"/></g>
<g><path style="opacity:1" fill="#3c3a47" d="M 359.5,226.5 C 359.833,226.5 360.167,226.5 360.5,226.5C 366.167,234.5 371.833,242.5 377.5,250.5C 381.266,255.03 384.266,260.03 386.5,265.5C 385.115,264.426 383.949,263.093 383,261.5C 378.426,263.359 373.759,265.025 369,266.5C 366.571,264.579 364.738,262.245 363.5,259.5C 365.562,261.564 367.895,263.231 370.5,264.5C 374.605,263.281 378.605,261.781 382.5,260C 374.348,252.511 366.848,244.345 360,235.5C 359.184,234.177 358.017,233.511 356.5,233.5C 356.464,230.539 357.464,228.206 359.5,226.5 Z"/></g>
<g><path style="opacity:1" fill="#282726" d="M 296.5,248.5 C 296.103,249.525 295.437,249.692 294.5,249C 287.709,240.3 279.042,237.8 268.5,241.5C 279.332,267.505 278.665,267.839 266.5,242.5C 265.833,242.167 265.167,241.833 264.5,241.5C 255.45,243.932 246.45,244.599 237.5,243.5C 246.529,242.589 255.529,241.423 264.5,240C 271.833,239.333 279.167,239.333 286.5,240C 290.025,242.698 293.358,245.531 296.5,248.5 Z"/></g>
<g><path style="opacity:1" fill="#616274" d="M 315.5,256.5 C 314.579,257.981 313.412,259.314 312,260.5C 307.667,259.055 303.501,257.222 299.5,255C 298.872,252.061 298.205,249.228 297.5,246.5C 297.5,246.167 297.5,245.833 297.5,245.5C 298.573,244.749 298.74,243.749 298,242.5C 295.623,238.912 293.123,235.412 290.5,232C 290.833,231.833 291.167,231.667 291.5,231.5C 299.746,237.122 308.413,241.956 317.5,246C 318.022,246.561 318.355,247.228 318.5,248C 317.061,250.705 316.061,253.538 315.5,256.5 Z"/></g>
<g><path style="opacity:1" fill="#2c2b3a" d="M 343.5,246.5 C 347.68,246.189 351.68,246.855 355.5,248.5C 358.43,252.048 361.097,255.715 363.5,259.5C 360.049,256.617 357.049,253.284 354.5,249.5C 352.604,248.534 350.604,248.201 348.5,248.5C 338.992,247.833 329.325,247.167 319.5,246.5C 327.506,245.301 335.506,245.301 343.5,246.5 Z"/></g>
<g><path style="opacity:1" fill="#313632" d="M 196.5,241.5 C 194.833,243.5 193.167,245.5 191.5,247.5C 189.167,248.833 186.833,250.167 184.5,251.5C 186.86,248.473 189.527,245.806 192.5,243.5C 193.605,242.4 194.938,241.733 196.5,241.5 Z"/></g>
<g><path style="opacity:1" fill="#757975" d="M 167.5,234.5 C 162.024,238.144 156.691,241.977 151.5,246C 153.198,245.503 154.865,245.67 156.5,246.5C 157.766,244.812 159.599,244.479 162,245.5C 165.605,245.584 166.105,246.584 163.5,248.5C 165.347,249.83 166.847,249.497 168,247.5C 169.574,248.848 171.407,249.514 173.5,249.5C 176.505,249.172 179.505,249.172 182.5,249.5C 183.386,248.675 183.719,247.675 183.5,246.5C 172.854,246.329 172.854,245.829 183.5,245C 184.667,244.5 185.5,243.667 186,242.5C 186.308,243.308 186.808,243.975 187.5,244.5C 187.998,243.397 188.331,242.397 188.5,241.5C 189.86,242.18 191.193,242.847 192.5,243.5C 189.527,245.806 186.86,248.473 184.5,251.5C 180.852,254.142 177.185,256.809 173.5,259.5C 170.162,257.67 168.496,258.67 168.5,262.5C 162.166,263.068 155.833,263.234 149.5,263C 151.5,262.667 153.5,262.333 155.5,262C 148.592,260.121 141.926,260.288 135.5,262.5C 134.678,260.861 134.011,259.195 133.5,257.5C 142.695,249.481 152.362,241.981 162.5,235C 164.244,233.546 165.911,233.379 167.5,234.5 Z"/></g>
<g><path style="opacity:1" fill="#504e4f" d="M 296.5,248.5 C 296.833,248.5 297.167,248.5 297.5,248.5C 296.503,251.328 296.503,253.995 297.5,256.5C 297.737,257.791 297.404,258.791 296.5,259.5C 296.631,258.761 296.464,258.094 296,257.5C 295.057,261.496 294.224,265.496 293.5,269.5C 279.529,271.72 265.529,274.387 251.5,277.5C 246.508,272.512 241.175,267.846 235.5,263.5C 234.505,257.872 234.171,252.206 234.5,246.5C 233.5,246.5 232.5,246.5 231.5,246.5C 232.952,245.698 234.618,245.198 236.5,245C 235.552,244.517 234.552,244.351 233.5,244.5C 234.568,243.566 235.901,243.232 237.5,243.5C 246.45,244.599 255.45,243.932 264.5,241.5C 265.167,241.833 265.833,242.167 266.5,242.5C 278.665,267.839 279.332,267.505 268.5,241.5C 279.042,237.8 287.709,240.3 294.5,249C 295.437,249.692 296.103,249.525 296.5,248.5 Z"/></g>
<g><path style="opacity:1" fill="#504d4c" d="M 422.5,253.5 C 434.119,264.452 445.452,275.785 456.5,287.5C 466.744,292.42 476.744,297.753 486.5,303.5C 486.44,304.043 486.107,304.376 485.5,304.5C 471.393,298.043 457.726,291.043 444.5,283.5C 445.93,283.421 447.264,283.754 448.5,284.5C 449.521,283.998 449.688,283.332 449,282.5C 444.472,277.641 439.972,272.807 435.5,268C 433.741,267.202 432.074,267.369 430.5,268.5C 431.513,271.188 432.513,273.854 433.5,276.5C 428.343,275.169 423.343,273.336 418.5,271C 412.5,270.667 406.5,270.333 400.5,270C 402.415,267.6 404.081,265.1 405.5,262.5C 406.415,260.246 407.748,258.246 409.5,256.5C 410.931,254.563 412.598,252.73 414.5,251C 419.19,250.668 423.857,251.002 428.5,252C 425.681,252.103 423.681,252.603 422.5,253.5 Z"/></g>
<g><path style="opacity:1" fill="#2b2c37" d="M 297.5,246.5 C 298.205,249.228 298.872,252.061 299.5,255C 303.501,257.222 307.667,259.055 312,260.5C 313.412,259.314 314.579,257.981 315.5,256.5C 315.553,259.061 314.553,261.061 312.5,262.5C 307.581,260.204 302.581,258.204 297.5,256.5C 296.503,253.995 296.503,251.328 297.5,248.5C 297.5,247.833 297.5,247.167 297.5,246.5 Z"/></g>
<g><path style="opacity:1" fill="#636273" d="M 356.5,233.5 C 358.017,233.511 359.184,234.177 360,235.5C 366.848,244.345 374.348,252.511 382.5,260C 378.605,261.781 374.605,263.281 370.5,264.5C 367.895,263.231 365.562,261.564 363.5,259.5C 361.097,255.715 358.43,252.048 355.5,248.5C 351.68,246.855 347.68,246.189 343.5,246.5C 347.627,242.601 351.96,238.934 356.5,235.5C 356.5,234.833 356.5,234.167 356.5,233.5 Z"/></g>
<g><path style="opacity:1" fill="#6e7371" d="M 221.5,247.5 C 223.265,246.539 225.265,246.205 227.5,246.5C 227.43,254.268 226.763,261.934 225.5,269.5C 223.152,269.33 220.818,268.997 218.5,268.5C 216.162,269.337 213.828,270.17 211.5,271C 212.938,271.219 214.271,271.719 215.5,272.5C 209.719,273.229 204.219,274.562 199,276.5C 196.667,272.5 194.333,272.5 192,276.5C 191.626,275.584 191.126,274.75 190.5,274C 184.978,272.357 179.645,272.857 174.5,275.5C 173.833,274.167 173.167,272.833 172.5,271.5C 171.73,273.272 170.397,274.272 168.5,274.5C 167.01,273.16 165.344,272.16 163.5,271.5C 170.5,264.833 177.5,258.167 184.5,251.5C 186.833,250.167 189.167,248.833 191.5,247.5C 190.71,248.794 189.71,249.961 188.5,251C 191.691,252.812 195.024,252.978 198.5,251.5C 199.468,252.489 200.635,253.156 202,253.5C 207.941,252.721 213.775,253.388 219.5,255.5C 221.059,254.926 222.559,254.26 224,253.5C 224.333,254.167 224.667,254.833 225,255.5C 225.226,252.905 225.726,250.405 226.5,248C 224.866,247.506 223.199,247.34 221.5,247.5 Z"/></g>
<g><path style="opacity:1" fill="#757585" d="M 348.5,248.5 C 350.604,248.201 352.604,248.534 354.5,249.5C 357.049,253.284 360.049,256.617 363.5,259.5C 364.738,262.245 366.571,264.579 369,266.5C 373.759,265.025 378.426,263.359 383,261.5C 383.949,263.093 385.115,264.426 386.5,265.5C 392.233,274.576 397.567,283.909 402.5,293.5C 401.209,294.473 401.209,295.473 402.5,296.5C 400.994,297.747 399.494,297.747 398,296.5C 397.293,294.919 396.46,293.419 395.5,292C 393.015,292.081 390.681,291.914 388.5,291.5C 383.213,288.053 378.046,284.386 373,280.5C 372.394,277.57 371.56,274.737 370.5,272C 353.159,270.855 335.825,269.688 318.5,268.5C 320.258,271.943 321.091,275.61 321,279.5C 318.508,281.789 316.008,284.123 313.5,286.5C 311.194,280.739 309.861,274.739 309.5,268.5C 304.807,268.54 300.141,268.873 295.5,269.5C 295.616,266.14 295.949,262.807 296.5,259.5C 297.404,258.791 297.737,257.791 297.5,256.5C 302.581,258.204 307.581,260.204 312.5,262.5C 314.553,261.061 315.553,259.061 315.5,256.5C 317.004,253.505 319.004,250.839 321.5,248.5C 326.485,252.077 331.485,252.244 336.5,249C 340.486,248.501 344.486,248.334 348.5,248.5 Z"/></g>
<g><path style="opacity:1" fill="#696e6e" d="M 231.5,246.5 C 232.5,246.5 233.5,246.5 234.5,246.5C 234.171,252.206 234.505,257.872 235.5,263.5C 241.175,267.846 246.508,272.512 251.5,277.5C 243.086,279.249 234.753,281.249 226.5,283.5C 227.2,272.495 228.034,261.495 229,250.5C 229.122,248.563 229.955,247.23 231.5,246.5 Z"/></g>
<g><path style="opacity:1" fill="#2f3432" d="M 184.5,251.5 C 177.5,258.167 170.5,264.833 163.5,271.5C 159.482,274.524 155.482,277.524 151.5,280.5C 158.833,273.5 166.167,266.5 173.5,259.5C 177.185,256.809 180.852,254.142 184.5,251.5 Z"/></g>
<g><path style="opacity:1" fill="#6b6e6c" d="M 133.5,257.5 C 134.011,259.195 134.678,260.861 135.5,262.5C 141.926,260.288 148.592,260.121 155.5,262C 153.5,262.333 151.5,262.667 149.5,263C 155.833,263.234 162.166,263.068 168.5,262.5C 168.496,258.67 170.162,257.67 173.5,259.5C 166.167,266.5 158.833,273.5 151.5,280.5C 150.5,281.167 149.5,281.833 148.5,282.5C 146.983,282.489 145.816,281.823 145,280.5C 144.5,281.5 144,282.5 143.5,283.5C 140.833,283.833 138.167,284.167 135.5,284.5C 126.646,285.62 117.98,285.62 109.5,284.5C 108.692,284.192 108.025,283.692 107.5,283C 109.494,280.842 110.828,278.342 111.5,275.5C 118.518,269.152 125.851,263.152 133.5,257.5 Z"/></g>
<g><path style="opacity:1" fill="#666d6d" d="M 311.5,290.5 C 311.55,292.59 310.55,293.923 308.5,294.5C 301.609,292.887 294.609,291.887 287.5,291.5C 287.5,290.167 287.5,288.833 287.5,287.5C 277.161,287.666 266.828,287.5 256.5,287C 255.773,285.601 255.273,284.101 255,282.5C 253.915,283.293 252.748,283.96 251.5,284.5C 250.304,284.154 250.304,283.654 251.5,283C 250.5,282.667 249.5,282.333 248.5,282C 249.252,281.329 249.586,280.496 249.5,279.5C 264.275,275.648 279.275,272.982 294.5,271.5C 299.07,270.559 303.737,270.226 308.5,270.5C 309.241,277.207 310.241,283.873 311.5,290.5 Z"/></g>
<g><path style="opacity:1" fill="#323338" d="M 386.5,265.5 C 391.994,272.487 396.994,279.82 401.5,287.5C 404.437,293.041 407.104,298.708 409.5,304.5C 406.917,301.003 404.584,297.336 402.5,293.5C 397.567,283.909 392.233,274.576 386.5,265.5 Z"/></g>
<g><path style="opacity:1" fill="#7b7c78" d="M 444.5,283.5 C 440.93,280.981 437.263,278.648 433.5,276.5C 432.513,273.854 431.513,271.188 430.5,268.5C 432.074,267.369 433.741,267.202 435.5,268C 439.972,272.807 444.472,277.641 449,282.5C 449.688,283.332 449.521,283.998 448.5,284.5C 447.264,283.754 445.93,283.421 444.5,283.5 Z"/></g>
<g><path style="opacity:1" fill="#2c2c29" d="M 405.5,262.5 C 404.081,265.1 402.415,267.6 400.5,270C 406.5,270.333 412.5,270.667 418.5,271C 423.343,273.336 428.343,275.169 433.5,276.5C 437.263,278.648 440.93,280.981 444.5,283.5C 435.483,279.77 426.483,275.937 417.5,272C 411.141,271.831 404.807,271.331 398.5,270.5C 400.14,267.196 402.473,264.529 405.5,262.5 Z"/></g>
<g><path style="opacity:1" fill="#757873" d="M 409.5,256.5 C 407.748,258.246 406.415,260.246 405.5,262.5C 402.473,264.529 400.14,267.196 398.5,270.5C 404.807,271.331 411.141,271.831 417.5,272C 426.483,275.937 435.483,279.77 444.5,283.5C 457.726,291.043 471.393,298.043 485.5,304.5C 486.107,304.376 486.44,304.043 486.5,303.5C 487.124,303.917 487.457,304.584 487.5,305.5C 486.53,310.068 485.197,314.401 483.5,318.5C 483.587,315.402 483.087,315.068 482,317.5C 480.494,322.202 478.994,326.868 477.5,331.5C 475.933,330.319 475.099,328.653 475,326.5C 474.529,328.246 473.862,329.913 473,331.5C 472.691,330.234 472.191,329.067 471.5,328C 467.707,325.501 463.707,324.501 459.5,325C 458.724,322.013 457.057,321.18 454.5,322.5C 453.489,320.156 451.822,318.489 449.5,317.5C 438.054,312.963 426.388,309.129 414.5,306C 412.014,302.863 410.181,299.363 409,295.5C 408.333,296.833 407.667,296.833 407,295.5C 406.64,293.579 405.806,291.912 404.5,290.5C 405.462,288.117 404.462,287.117 401.5,287.5C 396.994,279.82 391.994,272.487 386.5,265.5C 384.266,260.03 381.266,255.03 377.5,250.5C 378.151,249.909 378.818,249.243 379.5,248.5C 380.427,250.113 381.261,251.779 382,253.5C 382.368,252.09 383.201,251.09 384.5,250.5C 387.287,252.227 390.287,253.394 393.5,254C 396.167,255.795 398.334,257.961 400,260.5C 403.107,259.762 405.607,258.095 407.5,255.5C 408.183,255.863 408.85,256.196 409.5,256.5 Z"/></g>
<g><path style="opacity:1" fill="#555567" d="M 396.5,298.5 C 397.343,300.173 398.676,301.34 400.5,302C 396.933,305.054 394.933,308.887 394.5,313.5C 393.686,315.631 393.186,317.964 393,320.5C 392.505,318.527 392.338,316.527 392.5,314.5C 386.987,313.105 381.654,311.105 376.5,308.5C 374.596,309.26 372.596,309.26 370.5,308.5C 368.1,306.8 365.434,305.467 362.5,304.5C 359.304,304.932 356.304,304.099 353.5,302C 348.271,301.788 343.271,300.621 338.5,298.5C 338.081,297.328 337.415,296.328 336.5,295.5C 335.548,297.045 335.215,298.712 335.5,300.5C 332.552,300.223 329.719,300.556 327,301.5C 327.57,299.307 327.236,297.307 326,295.5C 325.333,298.167 324.667,298.167 324,295.5C 323.667,296.167 323.333,296.833 323,297.5C 320.797,294.86 319.963,294.86 320.5,297.5C 314.63,296.593 312.63,293.26 314.5,287.5C 316.945,285.432 319.278,283.265 321.5,281C 337.848,280.423 354.181,280.756 370.5,282C 379.392,287.272 388.059,292.772 396.5,298.5 Z"/></g>
<g><path style="opacity:1" fill="#636869" d="M 225.5,269.5 C 225.5,274.5 225.5,279.5 225.5,284.5C 218.982,284.663 218.149,286.663 223,290.5C 223.483,291.448 223.649,292.448 223.5,293.5C 222.305,293.322 221.138,292.989 220,292.5C 215.473,294.669 210.807,295.003 206,293.5C 200.045,295.782 193.878,296.115 187.5,294.5C 175.466,295.058 163.466,296.058 151.5,297.5C 147.744,297.537 144.078,297.037 140.5,296C 142.148,294.538 143.148,292.705 143.5,290.5C 146.57,287.436 149.237,284.103 151.5,280.5C 155.482,277.524 159.482,274.524 163.5,271.5C 165.344,272.16 167.01,273.16 168.5,274.5C 170.397,274.272 171.73,273.272 172.5,271.5C 173.167,272.833 173.833,274.167 174.5,275.5C 179.645,272.857 184.978,272.357 190.5,274C 191.126,274.75 191.626,275.584 192,276.5C 194.333,272.5 196.667,272.5 199,276.5C 204.219,274.562 209.719,273.229 215.5,272.5C 214.271,271.719 212.938,271.219 211.5,271C 213.828,270.17 216.162,269.337 218.5,268.5C 220.818,268.997 223.152,269.33 225.5,269.5 Z"/></g>
<g><path style="opacity:1" fill="#232629" d="M 233.5,244.5 C 234.552,244.351 235.552,244.517 236.5,245C 234.618,245.198 232.952,245.698 231.5,246.5C 229.955,247.23 229.122,248.563 229,250.5C 228.034,261.495 227.2,272.495 226.5,283.5C 234.753,281.249 243.086,279.249 251.5,277.5C 265.529,274.387 279.529,271.72 293.5,269.5C 294.338,269.842 294.672,270.508 294.5,271.5C 279.275,272.982 264.275,275.648 249.5,279.5C 240.018,281.43 230.685,283.93 221.5,287C 229.766,294.761 237.433,302.927 244.5,311.5C 246.254,313.675 247.421,316.008 248,318.5C 241.039,309.87 233.705,301.537 226,293.5C 223.921,308.758 222.755,324.091 222.5,339.5C 221.681,342.305 221.181,345.305 221,348.5C 220.517,347.552 220.351,346.552 220.5,345.5C 220.738,336.829 221.072,328.162 221.5,319.5C 221.342,316.098 221.676,312.764 222.5,309.5C 223.098,304.187 223.431,298.854 223.5,293.5C 223.649,292.448 223.483,291.448 223,290.5C 218.149,286.663 218.982,284.663 225.5,284.5C 225.5,279.5 225.5,274.5 225.5,269.5C 226.763,261.934 227.43,254.268 227.5,246.5C 225.265,246.205 223.265,246.539 221.5,247.5C 220.5,247.5 219.5,247.5 218.5,247.5C 217.603,242.86 217.436,238.194 218,233.5C 219.156,237.418 219.656,241.418 219.5,245.5C 224.181,245.331 228.848,244.998 233.5,244.5 Z"/></g>
<g><path style="opacity:1" fill="#2e3032" d="M 151.5,280.5 C 149.237,284.103 146.57,287.436 143.5,290.5C 137.547,296.117 131.547,301.784 125.5,307.5C 125.5,306.833 125.5,306.167 125.5,305.5C 133.554,298.113 141.221,290.446 148.5,282.5C 149.5,281.833 150.5,281.167 151.5,280.5 Z"/></g>
<g><path style="opacity:1" fill="#606263" d="M 111.5,275.5 C 110.828,278.342 109.494,280.842 107.5,283C 108.025,283.692 108.692,284.192 109.5,284.5C 117.98,285.62 126.646,285.62 135.5,284.5C 138.167,284.167 140.833,283.833 143.5,283.5C 144,282.5 144.5,281.5 145,280.5C 145.816,281.823 146.983,282.489 148.5,282.5C 141.221,290.446 133.554,298.113 125.5,305.5C 124.375,304.986 123.209,304.653 122,304.5C 121.193,308.449 120.693,308.449 120.5,304.5C 116.97,303.989 113.804,304.656 111,306.5C 108.141,304.248 105.475,304.248 103,306.5C 101.165,303.142 98.9982,302.809 96.5,305.5C 95.6143,304.675 95.281,303.675 95.5,302.5C 94.0695,302.421 92.7362,302.754 91.5,303.5C 90.6184,302.24 89.6184,301.074 88.5,300C 91.4166,299.338 92.7499,297.505 92.5,294.5C 97.8333,287.167 104.167,280.833 111.5,275.5 Z"/></g>
<g><path style="opacity:1" fill="#5b5f62" d="M 143.5,290.5 C 143.148,292.705 142.148,294.538 140.5,296C 144.078,297.037 147.744,297.537 151.5,297.5C 163.466,296.058 175.466,295.058 187.5,294.5C 193.878,296.115 200.045,295.782 206,293.5C 210.807,295.003 215.473,294.669 220,292.5C 221.138,292.989 222.305,293.322 223.5,293.5C 223.431,298.854 223.098,304.187 222.5,309.5C 219.756,309.248 217.256,309.915 215,311.5C 212.187,310.061 209.187,309.394 206,309.5C 190.371,310.62 174.871,311.12 159.5,311C 164.794,311.818 164.794,312.318 159.5,312.5C 159.5,313.5 159.5,314.5 159.5,315.5C 155.03,316.115 151.03,315.115 147.5,312.5C 146.41,313.727 145.076,314.56 143.5,315C 137.917,315.191 132.417,315.691 127,316.5C 125.036,313.666 124.536,310.666 125.5,307.5C 131.547,301.784 137.547,296.117 143.5,290.5 Z"/></g>
<g><path style="opacity:1" fill="#5d6266" d="M 249.5,279.5 C 249.586,280.496 249.252,281.329 248.5,282C 249.5,282.333 250.5,282.667 251.5,283C 250.304,283.654 250.304,284.154 251.5,284.5C 252.748,283.96 253.915,283.293 255,282.5C 255.273,284.101 255.773,285.601 256.5,287C 266.828,287.5 277.161,287.666 287.5,287.5C 287.5,288.833 287.5,290.167 287.5,291.5C 294.609,291.887 301.609,292.887 308.5,294.5C 310.55,293.923 311.55,292.59 311.5,290.5C 312.402,293.997 313.069,297.663 313.5,301.5C 313.665,304.85 313.498,308.183 313,311.5C 312.692,310.692 312.192,310.025 311.5,309.5C 311.891,310.718 311.224,311.552 309.5,312C 310.973,312.71 311.64,313.876 311.5,315.5C 299.933,314.114 288.267,313.281 276.5,313C 275.366,311.984 275.699,311.317 277.5,311C 275.5,310.667 273.5,310.333 271.5,310C 263.936,309.725 256.436,309.558 249,309.5C 247.594,310.414 246.094,311.08 244.5,311.5C 237.433,302.927 229.766,294.761 221.5,287C 230.685,283.93 240.018,281.43 249.5,279.5 Z"/></g>
<g><path style="opacity:1" fill="#4e4e61" d="M 394.5,313.5 C 394.88,318.734 394.88,323.9 394.5,329C 394.167,329.5 393.833,330 393.5,330.5C 390.348,330.288 387.015,330.288 383.5,330.5C 383.762,329.022 383.429,327.689 382.5,326.5C 379.891,325.77 377.224,325.27 374.5,325C 372.606,321.413 369.773,320.58 366,322.5C 363.423,322.165 361.256,321.165 359.5,319.5C 352.232,318.683 345.232,317.017 338.5,314.5C 337.558,314.608 336.725,314.941 336,315.5C 335.691,314.234 335.191,313.067 334.5,312C 332.751,311.215 331.084,310.382 329.5,309.5C 327.945,304.379 324.945,300.379 320.5,297.5C 319.963,294.86 320.797,294.86 323,297.5C 323.333,296.833 323.667,296.167 324,295.5C 324.667,298.167 325.333,298.167 326,295.5C 327.236,297.307 327.57,299.307 327,301.5C 329.719,300.556 332.552,300.223 335.5,300.5C 335.215,298.712 335.548,297.045 336.5,295.5C 337.415,296.328 338.081,297.328 338.5,298.5C 343.271,300.621 348.271,301.788 353.5,302C 356.304,304.099 359.304,304.932 362.5,304.5C 365.434,305.467 368.1,306.8 370.5,308.5C 372.596,309.26 374.596,309.26 376.5,308.5C 381.654,311.105 386.987,313.105 392.5,314.5C 392.338,316.527 392.505,318.527 393,320.5C 393.186,317.964 393.686,315.631 394.5,313.5 Z"/></g>
<g><path style="opacity:1" fill="#282935" d="M 296.5,259.5 C 295.949,262.807 295.616,266.14 295.5,269.5C 300.141,268.873 304.807,268.54 309.5,268.5C 309.861,274.739 311.194,280.739 313.5,286.5C 316.008,284.123 318.508,281.789 321,279.5C 321.091,275.61 320.258,271.943 318.5,268.5C 335.825,269.688 353.159,270.855 370.5,272C 371.56,274.737 372.394,277.57 373,280.5C 378.046,284.386 383.213,288.053 388.5,291.5C 391.167,293.833 393.833,296.167 396.5,298.5C 388.059,292.772 379.392,287.272 370.5,282C 354.181,280.756 337.848,280.423 321.5,281C 319.278,283.265 316.945,285.432 314.5,287.5C 312.63,293.26 314.63,296.593 320.5,297.5C 324.945,300.379 327.945,304.379 329.5,309.5C 331.869,317.24 330.203,323.907 324.5,329.5C 325.561,326.378 326.895,323.378 328.5,320.5C 330.05,309.592 325.883,301.926 316,297.5C 315.5,297.667 315,297.833 314.5,298C 315.851,306.654 317.517,315.154 319.5,323.5C 319.751,328.507 320.084,333.507 320.5,338.5C 319.723,337.118 319.056,335.118 318.5,332.5C 317.136,321.987 315.469,311.653 313.5,301.5C 313.069,297.663 312.402,293.997 311.5,290.5C 310.241,283.873 309.241,277.207 308.5,270.5C 303.737,270.226 299.07,270.559 294.5,271.5C 294.672,270.508 294.338,269.842 293.5,269.5C 294.224,265.496 295.057,261.496 296,257.5C 296.464,258.094 296.631,258.761 296.5,259.5 Z"/></g>
<g><path style="opacity:1" fill="#5b5b6b" d="M 320.5,271.5 C 322.81,270.836 325.31,270.503 328,270.5C 340.174,271.23 352.341,272.063 364.5,273C 369.62,272.807 371.954,275.307 371.5,280.5C 355.508,279.584 339.508,278.751 323.5,278C 322.578,275.706 321.578,273.539 320.5,271.5 Z"/></g>
<g><path style="opacity:1" fill="#696b6a" d="M 401.5,287.5 C 404.462,287.117 405.462,288.117 404.5,290.5C 405.806,291.912 406.64,293.579 407,295.5C 407.667,296.833 408.333,296.833 409,295.5C 410.181,299.363 412.014,302.863 414.5,306C 426.388,309.129 438.054,312.963 449.5,317.5C 451.822,318.489 453.489,320.156 454.5,322.5C 457.057,321.18 458.724,322.013 459.5,325C 463.707,324.501 467.707,325.501 471.5,328C 472.191,329.067 472.691,330.234 473,331.5C 473.862,329.913 474.529,328.246 475,326.5C 475.099,328.653 475.933,330.319 477.5,331.5C 476.026,336.59 474.359,341.59 472.5,346.5C 471.504,346.414 470.671,346.748 470,347.5C 469.489,349.878 468.822,352.212 468,354.5C 467.667,352.5 467.333,350.5 467,348.5C 464.423,349.329 462.256,348.495 460.5,346C 456.278,344.554 451.945,343.72 447.5,343.5C 447.5,342.167 447.5,340.833 447.5,339.5C 441.326,337.665 434.992,336.499 428.5,336C 429.451,335.282 429.617,334.449 429,333.5C 426.692,332.123 425.192,330.123 424.5,327.5C 423.675,326.614 422.675,326.281 421.5,326.5C 418.658,320.143 415.325,314.143 411.5,308.5C 411.34,306.847 410.674,305.514 409.5,304.5C 407.104,298.708 404.437,293.041 401.5,287.5 Z"/></g>
<g><path style="opacity:1" fill="#5a5b6e" d="M 328.5,320.5 C 326.876,320.36 325.71,321.027 325,322.5C 322.992,320.372 321.159,320.705 319.5,323.5C 317.517,315.154 315.851,306.654 314.5,298C 315,297.833 315.5,297.667 316,297.5C 325.883,301.926 330.05,309.592 328.5,320.5 Z"/></g>
<g><path style="opacity:1" fill="#46475b" d="M 329.5,309.5 C 331.084,310.382 332.751,311.215 334.5,312C 335.191,313.067 335.691,314.234 336,315.5C 336.725,314.941 337.558,314.608 338.5,314.5C 345.232,317.017 352.232,318.683 359.5,319.5C 361.256,321.165 363.423,322.165 366,322.5C 369.773,320.58 372.606,321.413 374.5,325C 377.224,325.27 379.891,325.77 382.5,326.5C 383.429,327.689 383.762,329.022 383.5,330.5C 388.305,331.487 393.305,331.821 398.5,331.5C 398.284,333.681 399.117,335.347 401,336.5C 402.806,334.048 404.306,334.381 405.5,337.5C 402.669,342.15 399.169,346.15 395,349.5C 395.077,348.262 394.911,347.262 394.5,346.5C 393.459,348.991 392.626,348.991 392,346.5C 389.272,346.986 386.605,346.32 384,344.5C 380.943,347.236 378.443,346.736 376.5,343C 373.736,342.468 371.07,341.634 368.5,340.5C 367.833,340.833 367.167,341.167 366.5,341.5C 364.695,340.528 363.028,339.361 361.5,338C 354.334,338.444 347.668,336.944 341.5,333.5C 339.541,333.875 337.707,334.541 336,335.5C 335.751,334.376 335.251,333.376 334.5,332.5C 333.709,333.066 333.709,333.899 334.5,335C 333.902,336.301 332.902,337.135 331.5,337.5C 329.653,335.708 327.653,334.042 325.5,332.5C 324.614,331.675 324.281,330.675 324.5,329.5C 330.203,323.907 331.869,317.24 329.5,309.5 Z"/></g>
<g><path style="opacity:1" fill="#55575c" d="M 92.5,294.5 C 92.7499,297.505 91.4166,299.338 88.5,300C 89.6184,301.074 90.6184,302.24 91.5,303.5C 92.7362,302.754 94.0695,302.421 95.5,302.5C 95.281,303.675 95.6143,304.675 96.5,305.5C 98.9982,302.809 101.165,303.142 103,306.5C 105.475,304.248 108.141,304.248 111,306.5C 113.804,304.656 116.97,303.989 120.5,304.5C 120.693,308.449 121.193,308.449 122,304.5C 123.209,304.653 124.375,304.986 125.5,305.5C 125.5,306.167 125.5,306.833 125.5,307.5C 124.536,310.666 125.036,313.666 127,316.5C 132.417,315.691 137.917,315.191 143.5,315C 145.076,314.56 146.41,313.727 147.5,312.5C 151.03,315.115 155.03,316.115 159.5,315.5C 159.5,314.5 159.5,313.5 159.5,312.5C 164.794,312.318 164.794,311.818 159.5,311C 174.871,311.12 190.371,310.62 206,309.5C 209.187,309.394 212.187,310.061 215,311.5C 217.256,309.915 219.756,309.248 222.5,309.5C 221.676,312.764 221.342,316.098 221.5,319.5C 220.833,321.5 220.167,323.5 219.5,325.5C 218.194,323.755 217.194,321.755 216.5,319.5C 213.942,320.016 211.442,320.35 209,320.5C 208.664,318.926 207.831,317.592 206.5,316.5C 194.425,316.537 182.259,316.537 170,316.5C 169.167,316.667 168.333,316.833 167.5,317C 168.938,317.219 170.271,317.719 171.5,318.5C 167.645,320.003 163.645,320.67 159.5,320.5C 159.5,321.833 159.5,323.167 159.5,324.5C 151.464,324.229 143.464,324.562 135.5,325.5C 134.01,324.16 132.344,323.16 130.5,322.5C 127.317,319.815 124.317,316.982 121.5,314C 111.537,312.984 101.871,313.818 92.5,316.5C 87.8727,316.308 83.3727,316.974 79,318.5C 78.0979,318.257 77.2646,317.923 76.5,317.5C 80.1239,308.565 85.4572,300.899 92.5,294.5 Z"/></g>
<g><path style="opacity:1" fill="#51555b" d="M 244.5,311.5 C 246.094,311.08 247.594,310.414 249,309.5C 256.436,309.558 263.936,309.725 271.5,310C 273.5,310.333 275.5,310.667 277.5,311C 275.699,311.317 275.366,311.984 276.5,313C 288.267,313.281 299.933,314.114 311.5,315.5C 311.64,313.876 310.973,312.71 309.5,312C 311.224,311.552 311.891,310.718 311.5,309.5C 312.192,310.025 312.692,310.692 313,311.5C 313.498,308.183 313.665,304.85 313.5,301.5C 315.469,311.653 317.136,321.987 318.5,332.5C 318.5,336.167 318.5,339.833 318.5,343.5C 313.73,343.125 308.73,342.792 303.5,342.5C 303.5,340.167 303.5,337.833 303.5,335.5C 298.504,334.841 293.504,334.174 288.5,333.5C 285.094,333.296 281.928,333.962 279,335.5C 277.682,332.059 275.182,330.725 271.5,331.5C 271.725,333.716 270.892,335.383 269,336.5C 267.887,335.289 266.72,335.289 265.5,336.5C 264.06,335.048 262.394,334.048 260.5,333.5C 257.882,329.709 255.049,326.043 252,322.5C 253.141,325.198 254.641,327.865 256.5,330.5C 255.781,332.764 255.448,335.097 255.5,337.5C 253.5,337.5 251.5,337.5 249.5,337.5C 249.646,335.058 248.813,334.391 247,335.5C 246.667,334.833 246.333,334.167 246,333.5C 244.667,334.167 243.333,334.833 242,335.5C 241.105,333.196 240.271,330.862 239.5,328.5C 237.054,329.524 235.388,331.191 234.5,333.5C 231.018,335.748 227.684,338.248 224.5,341C 223.184,341.528 222.517,341.028 222.5,339.5C 222.755,324.091 223.921,308.758 226,293.5C 233.705,301.537 241.039,309.87 248,318.5C 247.421,316.008 246.254,313.675 244.5,311.5 Z"/></g>
<g><path style="opacity:1" fill="#636272" d="M 388.5,291.5 C 390.681,291.914 393.015,292.081 395.5,292C 396.46,293.419 397.293,294.919 398,296.5C 399.494,297.747 400.994,297.747 402.5,296.5C 401.209,295.473 401.209,294.473 402.5,293.5C 404.584,297.336 406.917,301.003 409.5,304.5C 410.674,305.514 411.34,306.847 411.5,308.5C 415.008,315.516 417.841,322.85 420,330.5C 420.495,332.473 420.662,334.473 420.5,336.5C 417.163,336.187 414.829,337.52 413.5,340.5C 412.175,339.047 411.342,339.381 411,341.5C 409.624,340.295 408.458,338.962 407.5,337.5C 407.804,336.85 408.137,336.183 408.5,335.5C 394.05,326.782 391.717,315.615 401.5,302C 400.23,300.225 398.564,299.058 396.5,298.5C 393.833,296.167 391.167,293.833 388.5,291.5 Z"/></g>
<g><path style="opacity:1" fill="#4d4f56" d="M 130.5,322.5 C 132.344,323.16 134.01,324.16 135.5,325.5C 143.464,324.562 151.464,324.229 159.5,324.5C 159.5,323.167 159.5,321.833 159.5,320.5C 163.645,320.67 167.645,320.003 171.5,318.5C 170.271,317.719 168.938,317.219 167.5,317C 168.333,316.833 169.167,316.667 170,316.5C 182.259,316.537 194.425,316.537 206.5,316.5C 207.831,317.592 208.664,318.926 209,320.5C 211.442,320.35 213.942,320.016 216.5,319.5C 217.194,321.755 218.194,323.755 219.5,325.5C 217.836,326.949 217.002,328.949 217,331.5C 216.667,331.167 216.333,330.833 216,330.5C 215.51,331.793 215.343,333.127 215.5,334.5C 194.156,334.738 172.823,334.405 151.5,333.5C 148.387,333.562 145.554,334.229 143,335.5C 142.667,334.833 142.333,334.167 142,333.5C 141.722,334.416 141.222,335.082 140.5,335.5C 139.637,334.537 138.97,334.537 138.5,335.5C 141.231,338.92 141.564,342.254 139.5,345.5C 136.47,344.471 133.47,344.471 130.5,345.5C 129.006,345.291 127.839,344.624 127,343.5C 126.5,344 126,344.5 125.5,345C 121.833,345.667 118.167,345.667 114.5,345C 113.833,343.333 113.167,341.667 112.5,340C 113.888,339.111 113.722,338.611 112,338.5C 111.426,339.354 110.759,340.354 110,341.5C 107.14,338.985 104.307,338.985 101.5,341.5C 99.0739,340.692 96.7406,339.692 94.5,338.5C 93.4163,338.685 92.4163,339.018 91.5,339.5C 88.9807,339.152 87.1474,337.819 86,335.5C 84.4173,335.493 82.7506,335.826 81,336.5C 79.9827,334.624 79.1494,332.624 78.5,330.5C 76.3821,331.946 74.0488,332.613 71.5,332.5C 70.7004,327.874 72.0337,324.04 75.5,321C 74.4232,320.53 73.4232,320.697 72.5,321.5C 72.6596,319.847 73.3263,318.514 74.5,317.5C 74.369,318.239 74.5357,318.906 75,319.5C 75.2784,318.584 75.7784,317.918 76.5,317.5C 77.2646,317.923 78.0979,318.257 79,318.5C 83.3727,316.974 87.8727,316.308 92.5,316.5C 102.16,315.741 111.826,315.574 121.5,316C 125,319.5 128.5,323 132,326.5C 132.3,324.934 131.8,323.601 130.5,322.5 Z"/></g>
<g><path style="opacity:1" fill="#2b2d31" d="M 130.5,322.5 C 131.8,323.601 132.3,324.934 132,326.5C 128.5,323 125,319.5 121.5,316C 111.826,315.574 102.16,315.741 92.5,316.5C 101.871,313.818 111.537,312.984 121.5,314C 124.317,316.982 127.317,319.815 130.5,322.5 Z"/></g>
<g><path style="opacity:1" fill="#1d2028" d="M 260.5,333.5 C 263.864,337.857 267.198,342.191 270.5,346.5C 274.561,353.612 278.894,360.612 283.5,367.5C 282.645,368.293 281.811,367.96 281,366.5C 273.058,354.261 264.891,342.261 256.5,330.5C 254.641,327.865 253.141,325.198 252,322.5C 255.049,326.043 257.882,329.709 260.5,333.5 Z"/></g>
<g><path style="opacity:1" fill="#3e3e51" d="M 396.5,298.5 C 398.564,299.058 400.23,300.225 401.5,302C 391.717,315.615 394.05,326.782 408.5,335.5C 408.137,336.183 407.804,336.85 407.5,337.5C 403.167,344.167 398.833,350.833 394.5,357.5C 393.163,358.315 392.163,359.482 391.5,361C 379.138,361.752 366.804,361.419 354.5,360C 347.942,353.935 341.275,348.102 334.5,342.5C 330.829,339.333 326.995,336.333 323,333.5C 322.227,331.648 322.727,330.314 324.5,329.5C 324.281,330.675 324.614,331.675 325.5,332.5C 327.653,334.042 329.653,335.708 331.5,337.5C 332.902,337.135 333.902,336.301 334.5,335C 333.709,333.899 333.709,333.066 334.5,332.5C 335.251,333.376 335.751,334.376 336,335.5C 337.707,334.541 339.541,333.875 341.5,333.5C 347.668,336.944 354.334,338.444 361.5,338C 363.028,339.361 364.695,340.528 366.5,341.5C 367.167,341.167 367.833,340.833 368.5,340.5C 371.07,341.634 373.736,342.468 376.5,343C 378.443,346.736 380.943,347.236 384,344.5C 386.605,346.32 389.272,346.986 392,346.5C 392.626,348.991 393.459,348.991 394.5,346.5C 394.911,347.262 395.077,348.262 395,349.5C 399.169,346.15 402.669,342.15 405.5,337.5C 404.306,334.381 402.806,334.048 401,336.5C 399.117,335.347 398.284,333.681 398.5,331.5C 393.305,331.821 388.305,331.487 383.5,330.5C 387.015,330.288 390.348,330.288 393.5,330.5C 393.833,330 394.167,329.5 394.5,329C 394.88,323.9 394.88,318.734 394.5,313.5C 394.933,308.887 396.933,305.054 400.5,302C 398.676,301.34 397.343,300.173 396.5,298.5 Z"/></g>
<g><path style="opacity:1" fill="#474a54" d="M 221.5,319.5 C 221.072,328.162 220.738,336.829 220.5,345.5C 216.149,348.525 211.815,351.525 207.5,354.5C 194.852,353.459 182.185,353.292 169.5,354C 168.773,355.399 168.273,356.899 168,358.5C 167.667,357.167 167.333,355.833 167,354.5C 166.692,355.308 166.192,355.975 165.5,356.5C 162.597,353.589 159.263,352.423 155.5,353C 150.29,347.294 145.29,341.461 140.5,335.5C 141.222,335.082 141.722,334.416 142,333.5C 142.333,334.167 142.667,334.833 143,335.5C 145.554,334.229 148.387,333.562 151.5,333.5C 172.823,334.405 194.156,334.738 215.5,334.5C 215.343,333.127 215.51,331.793 216,330.5C 216.333,330.833 216.667,331.167 217,331.5C 217.002,328.949 217.836,326.949 219.5,325.5C 220.167,323.5 220.833,321.5 221.5,319.5 Z"/></g>
<g><path style="opacity:1" fill="#484d55" d="M 318.5,332.5 C 319.056,335.118 319.723,337.118 320.5,338.5C 321.404,339.209 321.737,340.209 321.5,341.5C 320.41,344.681 320.41,348.015 321.5,351.5C 321.762,352.978 321.429,354.311 320.5,355.5C 315.182,353.542 310.016,351.209 305,348.5C 302.062,350.861 299.062,350.861 296,348.5C 290.333,348.5 284.667,348.5 279,348.5C 278.692,347.692 278.192,347.025 277.5,346.5C 277.5,348.5 277.5,350.5 277.5,352.5C 276.012,350.851 275.012,348.851 274.5,346.5C 273.135,345.193 271.802,345.193 270.5,346.5C 267.198,342.191 263.864,337.857 260.5,333.5C 262.394,334.048 264.06,335.048 265.5,336.5C 266.72,335.289 267.887,335.289 269,336.5C 270.892,335.383 271.725,333.716 271.5,331.5C 275.182,330.725 277.682,332.059 279,335.5C 281.928,333.962 285.094,333.296 288.5,333.5C 293.504,334.174 298.504,334.841 303.5,335.5C 303.5,337.833 303.5,340.167 303.5,342.5C 308.73,342.792 313.73,343.125 318.5,343.5C 318.5,339.833 318.5,336.167 318.5,332.5 Z"/></g>
<g><path style="opacity:1" fill="#2d2f2d" d="M 483.5,318.5 C 483.975,320.784 484.975,322.784 486.5,324.5C 486.631,325.239 486.464,325.906 486,326.5C 484.647,325.315 483.48,323.981 482.5,322.5C 480.69,327.285 479.024,332.119 477.5,337C 479.566,342.69 480.899,348.524 481.5,354.5C 479.558,349.756 478.058,344.756 477,339.5C 475.388,342.859 473.888,346.192 472.5,349.5C 472.5,348.5 472.5,347.5 472.5,346.5C 474.359,341.59 476.026,336.59 477.5,331.5C 478.994,326.868 480.494,322.202 482,317.5C 483.087,315.068 483.587,315.402 483.5,318.5 Z"/></g>
<g><path style="opacity:1" fill="#2e2b3a" d="M 411.5,308.5 C 415.325,314.143 418.658,320.143 421.5,326.5C 423.431,330.463 425.265,334.463 427,338.5C 428.548,350.502 430.048,362.502 431.5,374.5C 426.167,374.5 420.833,374.5 415.5,374.5C 415.338,372.473 415.505,370.473 416,368.5C 417.655,368.198 418.988,366.864 420,364.5C 420.5,355.84 420.666,347.173 420.5,338.5C 419.022,338.238 417.689,338.571 416.5,339.5C 414.494,342.829 412.161,345.829 409.5,348.5C 410.429,345.588 411.762,342.921 413.5,340.5C 414.829,337.52 417.163,336.187 420.5,336.5C 420.662,334.473 420.495,332.473 420,330.5C 417.841,322.85 415.008,315.516 411.5,308.5 Z"/></g>
<g><path style="opacity:1" fill="#656665" d="M 486.5,324.5 C 487.803,326.142 489.136,327.809 490.5,329.5C 489.761,329.369 489.094,329.536 488.5,330C 494.954,338.405 500.788,347.238 506,356.5C 506.499,362.491 506.666,368.491 506.5,374.5C 499.167,374.5 491.833,374.5 484.5,374.5C 484.331,368.477 483.831,362.477 483,356.5C 482.722,355.584 482.222,354.918 481.5,354.5C 480.899,348.524 479.566,342.69 477.5,337C 479.024,332.119 480.69,327.285 482.5,322.5C 483.48,323.981 484.647,325.315 486,326.5C 486.464,325.906 486.631,325.239 486.5,324.5 Z"/></g>
<g><path style="opacity:1" fill="#2f2d33" d="M 101.5,341.5 C 111.895,344.754 122.228,348.587 132.5,353C 135.05,355.549 137.217,358.382 139,361.5C 144.639,364.638 149.139,368.972 152.5,374.5C 147.167,374.5 141.833,374.5 136.5,374.5C 136.267,371.651 134.934,369.484 132.5,368C 116.618,361.001 101.285,353.168 86.5,344.5C 88.5212,343.145 90.1879,341.479 91.5,339.5C 92.4163,339.018 93.4163,338.685 94.5,338.5C 96.7406,339.692 99.0739,340.692 101.5,341.5 Z"/></g>
<g><path style="opacity:1" fill="#595a5d" d="M 421.5,326.5 C 422.675,326.281 423.675,326.614 424.5,327.5C 425.192,330.123 426.692,332.123 429,333.5C 429.617,334.449 429.451,335.282 428.5,336C 434.992,336.499 441.326,337.665 447.5,339.5C 447.5,340.833 447.5,342.167 447.5,343.5C 451.945,343.72 456.278,344.554 460.5,346C 462.256,348.495 464.423,349.329 467,348.5C 467.333,350.5 467.667,352.5 468,354.5C 468.822,352.212 469.489,349.878 470,347.5C 470.671,346.748 471.504,346.414 472.5,346.5C 472.5,347.5 472.5,348.5 472.5,349.5C 469.067,357.47 466.4,365.803 464.5,374.5C 453.5,374.5 442.5,374.5 431.5,374.5C 430.048,362.502 428.548,350.502 427,338.5C 425.265,334.463 423.431,330.463 421.5,326.5 Z"/></g>
<g><path style="opacity:1" fill="#2d2e2f" d="M 472.5,349.5 C 470.345,357.786 468.345,366.119 466.5,374.5C 465.833,374.5 465.167,374.5 464.5,374.5C 466.4,365.803 469.067,357.47 472.5,349.5 Z"/></g>
<g><path style="opacity:1" fill="#3e414a" d="M 140.5,335.5 C 145.29,341.461 150.29,347.294 155.5,353C 159.263,352.423 162.597,353.589 165.5,356.5C 166.192,355.975 166.692,355.308 167,354.5C 167.333,355.833 167.667,357.167 168,358.5C 168.273,356.899 168.773,355.399 169.5,354C 182.185,353.292 194.852,353.459 207.5,354.5C 207.586,355.496 207.252,356.329 206.5,357C 199.159,362.154 192.492,367.987 186.5,374.5C 175.167,374.5 163.833,374.5 152.5,374.5C 149.139,368.972 144.639,364.638 139,361.5C 137.217,358.382 135.05,355.549 132.5,353C 122.228,348.587 111.895,344.754 101.5,341.5C 104.307,338.985 107.14,338.985 110,341.5C 110.759,340.354 111.426,339.354 112,338.5C 113.722,338.611 113.888,339.111 112.5,340C 113.167,341.667 113.833,343.333 114.5,345C 118.167,345.667 121.833,345.667 125.5,345C 126,344.5 126.5,344 127,343.5C 127.839,344.624 129.006,345.291 130.5,345.5C 133.47,344.471 136.47,344.471 139.5,345.5C 141.564,342.254 141.231,338.92 138.5,335.5C 138.97,334.537 139.637,334.537 140.5,335.5 Z"/></g>
<g><path style="opacity:1" fill="#3f3e51" d="M 415.5,374.5 C 409.167,374.5 402.833,374.5 396.5,374.5C 396.336,371.813 396.503,369.146 397,366.5C 400.45,359.91 404.616,353.91 409.5,348.5C 412.161,345.829 414.494,342.829 416.5,339.5C 417.689,338.571 419.022,338.238 420.5,338.5C 420.666,347.173 420.5,355.84 420,364.5C 418.988,366.864 417.655,368.198 416,368.5C 415.505,370.473 415.338,372.473 415.5,374.5 Z"/></g>
<g><path style="opacity:1" fill="#40424d" d="M 256.5,330.5 C 264.891,342.261 273.058,354.261 281,366.5C 281.811,367.96 282.645,368.293 283.5,367.5C 278.894,360.612 274.561,353.612 270.5,346.5C 271.802,345.193 273.135,345.193 274.5,346.5C 275.012,348.851 276.012,350.851 277.5,352.5C 277.5,350.5 277.5,348.5 277.5,346.5C 278.192,347.025 278.692,347.692 279,348.5C 284.667,348.5 290.333,348.5 296,348.5C 299.062,350.861 302.062,350.861 305,348.5C 310.016,351.209 315.182,353.542 320.5,355.5C 321.429,354.311 321.762,352.978 321.5,351.5C 323.58,358.914 324.913,366.581 325.5,374.5C 292.5,374.5 259.5,374.5 226.5,374.5C 227.428,371.546 228.261,368.546 229,365.5C 233.266,358.575 236.599,351.241 239,343.5C 239.667,339.167 239.667,334.833 239,330.5C 237.385,331.386 235.885,332.386 234.5,333.5C 235.388,331.191 237.054,329.524 239.5,328.5C 240.271,330.862 241.105,333.196 242,335.5C 243.333,334.833 244.667,334.167 246,333.5C 246.333,334.167 246.667,334.833 247,335.5C 248.813,334.391 249.646,335.058 249.5,337.5C 251.5,337.5 253.5,337.5 255.5,337.5C 255.448,335.097 255.781,332.764 256.5,330.5 Z"/></g>
<g><path style="opacity:1" fill="#3d3e46" d="M 91.5,339.5 C 90.1879,341.479 88.5212,343.145 86.5,344.5C 101.285,353.168 116.618,361.001 132.5,368C 134.934,369.484 136.267,371.651 136.5,374.5C 109.833,374.5 83.1667,374.5 56.5,374.5C 59.5223,356.064 64.8556,338.397 72.5,321.5C 73.4232,320.697 74.4232,320.53 75.5,321C 72.0337,324.04 70.7004,327.874 71.5,332.5C 74.0488,332.613 76.3821,331.946 78.5,330.5C 79.1494,332.624 79.9827,334.624 81,336.5C 82.7506,335.826 84.4173,335.493 86,335.5C 87.1474,337.819 88.9807,339.152 91.5,339.5 Z"/></g>
<g><path style="opacity:1" fill="#48495c" d="M 328.5,320.5 C 326.895,323.378 325.561,326.378 324.5,329.5C 322.727,330.314 322.227,331.648 323,333.5C 326.995,336.333 330.829,339.333 334.5,342.5C 340.631,349.131 346.964,355.631 353.5,362C 364.174,362.354 374.841,362.854 385.5,363.5C 390.734,364.398 393.734,362.398 394.5,357.5C 398.833,350.833 403.167,344.167 407.5,337.5C 408.458,338.962 409.624,340.295 411,341.5C 411.342,339.381 412.175,339.047 413.5,340.5C 411.762,342.921 410.429,345.588 409.5,348.5C 404.616,353.91 400.45,359.91 397,366.5C 396.503,369.146 396.336,371.813 396.5,374.5C 379.833,374.5 363.167,374.5 346.5,374.5C 346.453,371.432 345.953,368.432 345,365.5C 338.218,357.297 330.551,349.964 322,343.5C 321.536,342.906 321.369,342.239 321.5,341.5C 321.737,340.209 321.404,339.209 320.5,338.5C 320.084,333.507 319.751,328.507 319.5,323.5C 321.159,320.705 322.992,320.372 325,322.5C 325.71,321.027 326.876,320.36 328.5,320.5 Z"/></g>
<g><path style="opacity:1" fill="#1b1c2e" d="M 334.5,342.5 C 341.275,348.102 347.942,353.935 354.5,360C 366.804,361.419 379.138,361.752 391.5,361C 392.163,359.482 393.163,358.315 394.5,357.5C 393.734,362.398 390.734,364.398 385.5,363.5C 374.841,362.854 364.174,362.354 353.5,362C 346.964,355.631 340.631,349.131 334.5,342.5 Z"/></g>
<g><path style="opacity:1" fill="#2f3041" d="M 321.5,341.5 C 321.369,342.239 321.536,342.906 322,343.5C 330.551,349.964 338.218,357.297 345,365.5C 345.953,368.432 346.453,371.432 346.5,374.5C 339.5,374.5 332.5,374.5 325.5,374.5C 324.913,366.581 323.58,358.914 321.5,351.5C 320.41,348.015 320.41,344.681 321.5,341.5 Z"/></g>
<g><path style="opacity:1" fill="#2d2b32" d="M 226.5,374.5 C 213.167,374.5 199.833,374.5 186.5,374.5C 192.492,367.987 199.159,362.154 206.5,357C 207.252,356.329 207.586,355.496 207.5,354.5C 211.815,351.525 216.149,348.525 220.5,345.5C 220.351,346.552 220.517,347.552 221,348.5C 221.181,345.305 221.681,342.305 222.5,339.5C 222.517,341.028 223.184,341.528 224.5,341C 227.684,338.248 231.018,335.748 234.5,333.5C 235.885,332.386 237.385,331.386 239,330.5C 239.667,334.833 239.667,339.167 239,343.5C 236.599,351.241 233.266,358.575 229,365.5C 228.261,368.546 227.428,371.546 226.5,374.5 Z"/></g>
<g><path style="opacity:1" fill="#3e403f" d="M 490.5,329.5 C 502.12,342.405 509.787,357.405 513.5,374.5C 511.167,374.5 508.833,374.5 506.5,374.5C 506.666,368.491 506.499,362.491 506,356.5C 500.788,347.238 494.954,338.405 488.5,330C 489.094,329.536 489.761,329.369 490.5,329.5 Z"/></g>
<g><path style="opacity:1" fill="#5b5c5d" d="M 481.5,354.5 C 482.276,361.137 482.609,367.804 482.5,374.5C 477.167,374.5 471.833,374.5 466.5,374.5C 468.345,366.119 470.345,357.786 472.5,349.5C 473.888,346.192 475.388,342.859 477,339.5C 478.058,344.756 479.558,349.756 481.5,354.5 Z"/></g>
<g><path style="opacity:1" fill="#272829" d="M 481.5,354.5 C 482.222,354.918 482.722,355.584 483,356.5C 483.831,362.477 484.331,368.477 484.5,374.5C 483.833,374.5 483.167,374.5 482.5,374.5C 482.609,367.804 482.276,361.137 481.5,354.5 Z"/></g>
</svg>
