<?xml version="1.0" encoding="UTF-8"?>
<!DOCTYPE svg PUBLIC "-//W3C//DTD SVG 1.1//EN" "http://www.w3.org/Graphics/SVG/1.1/DTD/svg11.dtd">
<svg xmlns="http://www.w3.org/2000/svg" version="1.1" width="1280px" height="1280px" style="shape-rendering:geometricPrecision; text-rendering:geometricPrecision; image-rendering:optimizeQuality; fill-rule:evenodd; clip-rule:evenodd" xmlns:xlink="http://www.w3.org/1999/xlink">
<g><path style="opacity:0.866" fill="#000000" d="M 573.5,215.5 C 594.714,214.22 602.547,223.887 597,244.5C 590.361,258.241 579.861,262.741 565.5,258C 558.042,253.249 554.708,246.415 555.5,237.5C 555.295,225.042 561.295,217.709 573.5,215.5 Z"/></g>
<g><path style="opacity:1" fill="#353535" d="M 576.5,222.5 C 591.87,224.578 595.37,232.245 587,245.5C 579.9,254.285 572.566,254.619 565,246.5C 559.45,233.934 563.284,225.934 576.5,222.5 Z"/></g>
<g><path style="opacity:0.901" fill="#000000" d="M 800.5,1023.5 C 817.917,1018.96 833.917,1011.46 848.5,1001C 842.513,995.881 835.513,994.048 827.5,995.5C 828.581,993.236 829.915,991.069 831.5,989C 836.5,988.333 841.5,988.333 846.5,989C 850,991.833 853.5,994.667 857,997.5C 857.667,999.833 857.667,1002.17 857,1004.5C 848.293,1011.52 838.793,1017.36 828.5,1022C 818.307,1026.06 807.974,1029.73 797.5,1033C 796.572,1033.39 795.905,1034.05 795.5,1035C 806.61,1056.73 819.11,1077.56 833,1097.5C 882.11,1083.03 928.944,1063.19 973.5,1038C 994.595,1025.9 1015.43,1013.4 1036,1000.5C 1042.66,940.332 1041.33,880.332 1032,820.5C 1027.82,798.248 1024.15,775.915 1021,753.5C 1017.57,722.872 1020.57,692.872 1030,663.5C 1037.67,637.167 1045.33,610.833 1053,584.5C 1065.33,548.167 1077.67,511.833 1090,475.5C 1091.86,458.823 1091.7,442.157 1089.5,425.5C 1073.58,478.332 1051.41,528.332 1023,575.5C 1013.67,588.833 1004.33,602.167 995,615.5C 989.532,624.77 984.865,634.436 981,644.5C 979.867,646.211 978.367,646.711 976.5,646C 967.966,631.104 959.8,615.937 952,600.5C 940.125,584.542 928.792,568.208 918,551.5C 913.745,521.149 905.745,491.815 894,463.5C 883.041,426.429 881.708,389.096 890,351.5C 864.864,400.847 854.197,453.181 858,508.5C 858.77,513.929 860.603,518.929 863.5,523.5C 862.259,526.144 860.259,526.977 857.5,526C 844.596,520.143 831.263,515.476 817.5,512C 797.899,506.307 778.066,501.807 758,498.5C 748.738,512.685 740.238,527.352 732.5,542.5C 728.892,543.593 725.225,543.76 721.5,543C 714.627,535.795 708.127,528.295 702,520.5C 690.734,497.491 685.901,473.158 687.5,447.5C 688.833,423.509 689.666,399.509 690,375.5C 688.869,379.894 687.535,384.227 686,388.5C 679.804,400.227 674.137,412.227 669,424.5C 665.264,437.12 664.097,449.953 665.5,463C 665.129,465.856 664.629,468.689 664,471.5C 662,474.167 660,474.167 658,471.5C 656.924,461.187 656.09,450.854 655.5,440.5C 658.201,407.663 660.867,374.829 663.5,342C 661.668,315.505 656.501,289.672 648,264.5C 649.239,358.146 618.572,439.48 556,508.5C 551.797,513.738 547.964,519.238 544.5,525C 542.105,527.145 539.938,526.978 538,524.5C 534.398,516.128 529.898,508.294 524.5,501C 514.888,501.017 505.388,502.184 496,504.5C 494.289,504.561 492.956,503.894 492,502.5C 491.185,496.797 490.185,491.13 489,485.5C 484.333,472.167 479.667,458.833 475,445.5C 472.461,435.987 470.795,426.32 470,416.5C 462.368,456.919 446.201,493.419 421.5,526C 417.961,527.504 414.295,527.837 410.5,527C 408.734,483.439 397.234,442.606 376,404.5C 378.998,459.86 368.664,512.527 345,562.5C 330.618,582.589 318.285,603.923 308,626.5C 301.312,642.219 297.312,658.553 296,675.5C 293.88,678.08 291.713,678.08 289.5,675.5C 276.57,647.454 258.236,623.621 234.5,604C 232.167,602.5 229.833,601 227.5,599.5C 235.17,630.34 241.67,661.674 247,693.5C 250.096,714.557 251.929,735.724 252.5,757C 246.915,809.106 241.415,861.273 236,913.5C 235.301,941.258 236.635,968.925 240,996.5C 266.731,1018.46 295.565,1037.29 326.5,1053C 356.419,1067.31 386.752,1080.64 417.5,1093C 424.691,1095.67 432.024,1097.84 439.5,1099.5C 442.385,1098.13 444.885,1096.13 447,1093.5C 461.114,1074.95 472.948,1054.95 482.5,1033.5C 460.402,1026.95 440.069,1016.95 421.5,1003.5C 420.456,1001.23 420.289,998.899 421,996.5C 424.833,994 428,990.833 430.5,987C 433.744,986.288 436.744,986.788 439.5,988.5C 440.833,989.167 441.833,990.167 442.5,991.5C 443.167,992.167 443.833,992.833 444.5,993.5C 441.813,993.336 439.146,993.503 436.5,994C 434.5,996 432.5,998 430.5,1000C 448.528,1012.51 468.194,1021.51 489.5,1027C 491.006,1032.77 490.173,1038.27 487,1043.5C 480.507,1056.49 473.507,1069.16 466,1081.5C 460.126,1089.94 453.793,1097.94 447,1105.5C 445.261,1106.89 443.261,1107.56 441,1107.5C 375.789,1087.97 314.956,1059.47 258.5,1022C 249.379,1015.71 241.046,1008.54 233.5,1000.5C 227.264,955.543 227.097,910.543 233,865.5C 238.714,829.004 242.88,792.338 245.5,755.5C 242.55,699.918 232.717,645.585 216,592.5C 215.505,590.527 215.338,588.527 215.5,586.5C 219.281,585.789 222.281,586.955 224.5,590C 231.745,592.622 238.412,596.289 244.5,601C 262.352,617.672 277.352,636.505 289.5,657.5C 294.716,639.35 301.216,621.683 309,604.5C 318.167,588.829 327.833,573.496 338,558.5C 364.951,502.344 374.451,443.344 366.5,381.5C 369.044,381.104 371.211,381.771 373,383.5C 399.259,424.279 413.926,468.946 417,517.5C 433.598,495.307 446.265,470.974 455,444.5C 458.92,425.742 464.253,407.408 471,389.5C 472.753,386.995 474.253,384.329 475.5,381.5C 478.086,380.52 480.753,380.187 483.5,380.5C 482.067,393.405 480.067,406.238 477.5,419C 481.096,439.459 486.93,459.292 495,478.5C 496.496,484.495 497.83,490.495 499,496.5C 508.989,493.948 519.156,493.115 529.5,494C 534.061,500.232 538.228,506.732 542,513.5C 551.621,500.877 561.621,488.544 572,476.5C 601.201,437.424 621.868,394.091 634,346.5C 641.117,308.68 642.45,270.68 638,232.5C 640.267,231.065 642.267,231.398 644,233.5C 660.301,268.872 668.801,306.039 669.5,345C 668.837,367.608 667.337,390.108 665,412.5C 673.851,397.935 680.351,382.435 684.5,366C 682.926,359.621 681.926,353.121 681.5,346.5C 684.247,346.187 686.914,346.52 689.5,347.5C 693.544,355.005 696.044,363.005 697,371.5C 697.207,397.392 696.041,423.225 693.5,449C 693.321,472.776 698.487,495.276 709,516.5C 714.677,523.009 720.511,529.343 726.5,535.5C 734.692,520.954 743.025,506.454 751.5,492C 762.959,492.017 774.293,493.351 785.5,496C 807.652,501.162 829.485,507.329 851,514.5C 845.135,443.458 861.468,378.125 900,318.5C 902.381,317.565 904.881,317.232 907.5,317.5C 907.664,320.187 907.497,322.854 907,325.5C 890.468,364.415 887.135,404.415 897,445.5C 904,467.167 911,488.833 918,510.5C 920.847,522.735 923.18,535.068 925,547.5C 936,563.167 947,578.833 958,594.5C 964.604,606.708 970.937,619.041 977,631.5C 989.256,608.642 1003.26,586.975 1019,566.5C 1048.74,516.682 1071.07,463.682 1086,407.5C 1086.33,404.5 1086.67,401.5 1087,398.5C 1089.46,396.679 1092.29,396.012 1095.5,396.5C 1097.4,418.817 1099.07,441.15 1100.5,463.5C 1099.4,469.511 1098.23,475.511 1097,481.5C 1072.77,546.06 1051.77,611.727 1034,678.5C 1026.97,702.766 1024.97,727.433 1028,752.5C 1036.15,794.524 1042.15,836.857 1046,879.5C 1047.51,915.172 1047.17,950.839 1045,986.5C 1044.74,992.551 1044.07,998.551 1043,1004.5C 981.213,1047.81 914.046,1080.64 841.5,1103C 837.527,1104 833.527,1104.33 829.5,1104C 825.333,1099.17 821.167,1094.33 817,1089.5C 807.747,1074 798.747,1058.33 790,1042.5C 788.359,1037.92 787.359,1033.25 787,1028.5C 791.668,1027.05 796.168,1025.38 800.5,1023.5 Z"/></g>
<g><path style="opacity:0.886" fill="#000000" d="M 383.5,263.5 C 421.15,263.683 434.65,282.016 424,318.5C 419.364,329.461 412.197,338.295 402.5,345C 391.689,350.298 380.689,350.631 369.5,346C 346.052,337.27 337.885,320.77 345,296.5C 350.081,276.24 362.914,265.24 383.5,263.5 Z"/></g>
<g><path style="opacity:1" fill="#363636" d="M 827.5,995.5 C 827.167,995.5 826.833,995.5 826.5,995.5C 826.351,994.448 826.517,993.448 827,992.5C 829.768,987.988 833.268,983.488 837.5,979C 834.972,976.925 835.139,976.092 838,976.5C 839.411,973.089 841.244,969.922 843.5,967C 842.911,965.127 843.578,963.46 845.5,962C 845.694,960.57 845.694,959.07 845.5,957.5C 846.427,956.094 847.427,954.594 848.5,953C 847.075,951.286 847.408,949.953 849.5,949C 849.912,946.795 849.912,944.462 849.5,942C 849.978,940.697 850.645,939.531 851.5,938.5C 852.833,936.5 852.833,934.5 851.5,932.5C 851.5,929.5 851.5,926.5 851.5,923.5C 852.317,921.031 852.817,918.365 853,915.5C 873.231,900.605 886.231,880.938 892,856.5C 892.923,833.801 892.59,811.134 891,788.5C 884.736,768.218 873.569,751.052 857.5,737C 844.585,725.874 829.919,717.874 813.5,713C 792.2,711.416 770.866,711.082 749.5,712C 737.794,713.01 726.794,716.343 716.5,722C 690.722,737.779 671.222,759.279 658,786.5C 643.343,838.385 655.843,881.885 695.5,917C 727.032,941.043 762.365,948.709 801.5,940C 818.032,936.607 833.032,929.941 846.5,920C 847.577,919.53 848.577,919.697 849.5,920.5C 849.683,922.936 849.016,925.103 847.5,927C 848.167,927.333 848.833,927.667 849.5,928C 847.171,931.028 845.838,934.194 845.5,937.5C 847.022,939.156 846.689,940.323 844.5,941C 844.833,941.333 845.167,941.667 845.5,942C 844.35,944.462 843.017,946.796 841.5,949C 842.634,950.016 842.301,950.683 840.5,951C 840.833,951.333 841.167,951.667 841.5,952C 836.864,958.671 831.198,965.004 824.5,971C 823.167,971.333 821.833,971.667 820.5,972C 820.833,972.333 821.167,972.667 821.5,973C 820.234,973.309 819.067,973.809 818,974.5C 816.984,973.366 816.317,973.699 816,975.5C 815.667,975.167 815.333,974.833 815,974.5C 813.665,976.605 811.998,977.271 810,976.5C 809,977.5 808,978.5 807,979.5C 805.093,979.579 803.093,979.246 801,978.5C 800.5,979 800,979.5 799.5,980C 797.167,980.167 794.833,980.333 792.5,980.5C 789.094,980.704 785.928,980.038 783,978.5C 780.845,979.683 778.845,979.35 777,977.5C 775.286,978.925 773.953,978.592 773,976.5C 772.667,976.833 772.333,977.167 772,977.5C 770.333,976.5 768.667,975.5 767,974.5C 765.984,975.634 765.317,975.301 765,973.5C 764.577,974.956 763.744,975.456 762.5,975C 763.833,973.16 763.666,972.66 762,973.5C 760.667,972.833 759.667,971.833 759,970.5C 758,970.5 757,970.5 756,970.5C 752.571,966.701 748.904,964.034 745,962.5C 740.001,958.836 735.334,954.169 731,948.5C 729.057,948.959 727.724,947.959 727,945.5C 726.667,945.833 726.333,946.167 726,946.5C 722.931,942.428 719.265,939.094 715,936.5C 714.667,936.833 714.333,937.167 714,937.5C 711.775,936.061 709.775,934.394 708,932.5C 706.333,932.5 704.667,932.5 703,932.5C 702.085,931.672 701.419,930.672 701,929.5C 700.667,929.833 700.333,930.167 700,930.5C 695.072,929.015 690.572,927.348 686.5,925.5C 679.411,924.397 672.078,924.397 664.5,925.5C 661.194,925.838 658.028,927.171 655,929.5C 654.667,929.167 654.333,928.833 654,928.5C 652.134,930.341 650.134,932.008 648,933.5C 646.284,932.448 645.284,933.114 645,935.5C 644.282,934.549 643.449,934.383 642.5,935C 643.833,935.667 643.833,936.333 642.5,937C 640.275,937.561 638.275,938.561 636.5,940C 637.833,940.667 638.833,941.667 639.5,943C 638.451,943.492 637.451,943.326 636.5,942.5C 635.3,943.531 633.966,944.365 632.5,945C 633.167,945.333 633.833,945.667 634.5,946C 633.069,946.465 631.903,947.299 631,948.5C 629.205,952.326 627.705,955.826 626.5,959C 624.297,960.866 622.964,960.199 622.5,957C 624.141,955.354 623.807,954.354 621.5,954C 621.137,948.606 618.804,943.939 614.5,940C 616.878,939.026 616.544,938.359 613.5,938C 613.833,937.667 614.167,937.333 614.5,937C 612.486,934.655 610.153,932.655 607.5,931C 608.833,930.333 608.833,929.667 607.5,929C 602.658,926.153 597.825,923.32 593,920.5C 591.841,921.566 591.008,921.233 590.5,919.5C 588.723,918.4 586.723,917.566 584.5,917C 622.971,882.455 635.138,839.955 621,789.5C 609.551,764.414 592.384,744.247 569.5,729C 549.814,716.63 528.314,711.463 505,713.5C 465.62,711.7 433.286,725.7 408,755.5C 402.417,763.664 397.084,771.997 392,780.5C 390.063,784.646 388.729,788.979 388,793.5C 387.054,820.535 387.387,847.535 389,874.5C 392.111,884.06 396.778,892.726 403,900.5C 403.333,905.167 403.667,909.833 404,914.5C 404.172,908.319 404.672,902.319 405.5,896.5C 405.812,903.422 405.479,910.256 404.5,917C 405,917.5 405.5,918 406,918.5C 406.315,921.372 406.815,924.205 407.5,927C 406.3,928.703 406.633,930.203 408.5,931.5C 407.529,932.962 407.862,934.295 409.5,935.5C 409.291,936.086 408.957,936.586 408.5,937C 409.985,939.817 411.652,942.984 413.5,946.5C 412.557,948.47 413.224,949.97 415.5,951C 415.167,951.333 414.833,951.667 414.5,952C 415.625,954.139 416.958,955.306 418.5,955.5C 418.122,958.289 419.122,960.789 421.5,963C 421.167,963.333 420.833,963.667 420.5,964C 421.416,964.374 422.25,964.874 423,965.5C 425.733,970.936 428.9,975.269 432.5,978.5C 433.09,979.766 433.59,981.099 434,982.5C 434.333,982.167 434.667,981.833 435,981.5C 437.11,983.443 438.61,985.776 439.5,988.5C 436.744,986.788 433.744,986.288 430.5,987C 428,990.833 424.833,994 421,996.5C 420.289,998.899 420.456,1001.23 421.5,1003.5C 440.069,1016.95 460.402,1026.95 482.5,1033.5C 472.948,1054.95 461.114,1074.95 447,1093.5C 444.885,1096.13 442.385,1098.13 439.5,1099.5C 432.024,1097.84 424.691,1095.67 417.5,1093C 386.752,1080.64 356.419,1067.31 326.5,1053C 295.565,1037.29 266.731,1018.46 240,996.5C 236.635,968.925 235.301,941.258 236,913.5C 241.415,861.273 246.915,809.106 252.5,757C 251.929,735.724 250.096,714.557 247,693.5C 241.67,661.674 235.17,630.34 227.5,599.5C 229.833,601 232.167,602.5 234.5,604C 258.236,623.621 276.57,647.454 289.5,675.5C 291.713,678.08 293.88,678.08 296,675.5C 297.312,658.553 301.312,642.219 308,626.5C 318.285,603.923 330.618,582.589 345,562.5C 368.664,512.527 378.998,459.86 376,404.5C 397.234,442.606 408.734,483.439 410.5,527C 414.295,527.837 417.961,527.504 421.5,526C 446.201,493.419 462.368,456.919 470,416.5C 470.795,426.32 472.461,435.987 475,445.5C 479.667,458.833 484.333,472.167 489,485.5C 490.185,491.13 491.185,496.797 492,502.5C 492.956,503.894 494.289,504.561 496,504.5C 505.388,502.184 514.888,501.017 524.5,501C 529.898,508.294 534.398,516.128 538,524.5C 539.938,526.978 542.105,527.145 544.5,525C 547.964,519.238 551.797,513.738 556,508.5C 618.572,439.48 649.239,358.146 648,264.5C 656.501,289.672 661.668,315.505 663.5,342C 660.867,374.829 658.201,407.663 655.5,440.5C 656.09,450.854 656.924,461.187 658,471.5C 660,474.167 662,474.167 664,471.5C 664.629,468.689 665.129,465.856 665.5,463C 664.097,449.953 665.264,437.12 669,424.5C 674.137,412.227 679.804,400.227 686,388.5C 687.535,384.227 688.869,379.894 690,375.5C 689.666,399.509 688.833,423.509 687.5,447.5C 685.901,473.158 690.734,497.491 702,520.5C 708.127,528.295 714.627,535.795 721.5,543C 725.225,543.76 728.892,543.593 732.5,542.5C 740.238,527.352 748.738,512.685 758,498.5C 778.066,501.807 797.899,506.307 817.5,512C 831.263,515.476 844.596,520.143 857.5,526C 860.259,526.977 862.259,526.144 863.5,523.5C 860.603,518.929 858.77,513.929 858,508.5C 854.197,453.181 864.864,400.847 890,351.5C 881.708,389.096 883.041,426.429 894,463.5C 905.745,491.815 913.745,521.149 918,551.5C 928.792,568.208 940.125,584.542 952,600.5C 959.8,615.937 967.966,631.104 976.5,646C 978.367,646.711 979.867,646.211 981,644.5C 984.865,634.436 989.532,624.77 995,615.5C 1004.33,602.167 1013.67,588.833 1023,575.5C 1051.41,528.332 1073.58,478.332 1089.5,425.5C 1091.7,442.157 1091.86,458.823 1090,475.5C 1077.67,511.833 1065.33,548.167 1053,584.5C 1045.33,610.833 1037.67,637.167 1030,663.5C 1020.57,692.872 1017.57,722.872 1021,753.5C 1024.15,775.915 1027.82,798.248 1032,820.5C 1041.33,880.332 1042.66,940.332 1036,1000.5C 1015.43,1013.4 994.595,1025.9 973.5,1038C 928.944,1063.19 882.11,1083.03 833,1097.5C 819.11,1077.56 806.61,1056.73 795.5,1035C 795.905,1034.05 796.572,1033.39 797.5,1033C 807.974,1029.73 818.307,1026.06 828.5,1022C 838.793,1017.36 848.293,1011.52 857,1004.5C 857.667,1002.17 857.667,999.833 857,997.5C 853.5,994.667 850,991.833 846.5,989C 841.5,988.333 836.5,988.333 831.5,989C 829.915,991.069 828.581,993.236 827.5,995.5 Z"/></g>
<g><path style="opacity:1" fill="#353535" d="M 383.5,270.5 C 399.766,268.879 411.599,275.212 419,289.5C 421.686,310.628 414.186,327.128 396.5,339C 388.81,340.914 381.144,340.914 373.5,339C 352.587,331.673 345.754,317.506 353,296.5C 358.174,281.815 368.341,273.149 383.5,270.5 Z"/></g>
<g><path style="opacity:0.632" fill="#343434" d="M 979.5,275.5 C 995.104,276.598 1004.27,284.932 1007,300.5C 1007.87,327.303 995.374,337.469 969.5,331C 956.414,322.774 951.247,310.941 954,295.5C 955.553,287.548 960.053,282.048 967.5,279C 971.623,277.808 975.623,276.641 979.5,275.5 Z"/></g>
<g><path style="opacity:1" fill="#020202" d="M 978.5,277.5 C 990.508,277.016 998.674,282.349 1003,293.5C 1008.58,307.457 1005.74,319.29 994.5,329C 975.427,335.88 962.594,329.714 956,310.5C 952.149,291.492 959.649,280.492 978.5,277.5 Z"/></g>
<g><path style="opacity:1" fill="#353535" d="M 978.5,284.5 C 984.926,284.103 990.092,286.436 994,291.5C 1001.97,303.087 1000.8,313.587 990.5,323C 980.766,327.024 972.6,324.857 966,316.5C 959.463,306.215 960.296,296.715 968.5,288C 971.98,286.897 975.313,285.731 978.5,284.5 Z"/></g>
<g><path style="opacity:0.867" fill="#000000" d="M 528.5,354.5 C 533.248,354.275 537.915,354.775 542.5,356C 564.113,366.84 569.279,383.007 558,404.5C 547.781,420.017 533.948,424.517 516.5,418C 508.771,412.922 504.271,405.756 503,396.5C 499.42,374.956 507.92,360.956 528.5,354.5 Z"/></g>
<g><path style="opacity:1" fill="#353535" d="M 531.5,361.5 C 540.554,364.114 548.054,369.114 554,376.5C 557.579,385.487 556.246,393.82 550,401.5C 544.933,408.359 538.266,412.359 530,413.5C 520.381,412.225 514.048,406.892 511,397.5C 507.365,385.744 510.199,375.91 519.5,368C 523.434,365.536 527.434,363.369 531.5,361.5 Z"/></g>
<g><path style="opacity:0.884" fill="#000000" d="M 784.5,362.5 C 791.175,362.334 797.842,362.5 804.5,363C 807.873,363.101 810.373,364.601 812,367.5C 817.487,377.651 818.82,388.317 816,399.5C 812.909,405.297 808.076,408.464 801.5,409C 777.971,410.793 768.471,399.96 773,376.5C 774.283,369.532 778.116,364.866 784.5,362.5 Z"/></g>
<g><path style="opacity:1" fill="#353535" d="M 788.5,369.5 C 793.599,369.175 798.599,369.675 803.5,371C 810.571,379.081 811.905,387.914 807.5,397.5C 797.352,405.003 788.519,403.67 781,393.5C 778.63,386.532 779.297,379.865 783,373.5C 784.5,371.531 786.333,370.198 788.5,369.5 Z"/></g>
<g><path style="opacity:0.881" fill="#000000" d="M 245.5,463.5 C 264.781,460.982 276.948,468.982 282,487.5C 287.533,518.455 274.7,533.455 243.5,532.5C 215.582,529.007 205.416,513.674 213,486.5C 219.578,472.746 230.412,465.079 245.5,463.5 Z"/></g>
<g><path style="opacity:1" fill="#353535" d="M 246.5,470.5 C 264.827,470.319 274.827,479.486 276.5,498C 276.009,503.781 274.509,509.281 272,514.5C 268.517,519.636 263.684,522.803 257.5,524C 242.949,527.179 230.782,523.345 221,512.5C 215.143,497.401 218.976,485.234 232.5,476C 237.159,473.842 241.825,472.009 246.5,470.5 Z"/></g>
<g><path style="opacity:0.871" fill="#000000" d="M 964.5,479.5 C 970.555,479.338 976.555,479.838 982.5,481C 985.902,482.4 988.736,484.567 991,487.5C 996.22,510.613 987.387,519.113 964.5,513C 955.915,506.517 953.082,498.017 956,487.5C 957.691,483.579 960.525,480.913 964.5,479.5 Z"/></g>
<g><path style="opacity:1" fill="#343434" d="M 968.5,486.5 C 977.132,485.645 983.132,489.145 986.5,497C 982.568,508.898 975.735,511.065 966,503.5C 960.666,496.658 961.499,490.991 968.5,486.5 Z"/></g>
<g><path style="opacity:1" fill="#3b3b3b" d="M 851.5,923.5 C 850.395,921.847 850.229,920.18 851,918.5C 850.283,919.044 849.783,919.711 849.5,920.5C 848.577,919.697 847.577,919.53 846.5,920C 833.032,929.941 818.032,936.607 801.5,940C 762.365,948.709 727.032,941.043 695.5,917C 655.843,881.885 643.343,838.385 658,786.5C 671.222,759.279 690.722,737.779 716.5,722C 726.794,716.343 737.794,713.01 749.5,712C 770.866,711.082 792.2,711.416 813.5,713C 829.919,717.874 844.585,725.874 857.5,737C 873.569,751.052 884.736,768.218 891,788.5C 892.59,811.134 892.923,833.801 892,856.5C 886.231,880.938 873.231,900.605 853,915.5C 852.817,918.365 852.317,921.031 851.5,923.5 Z"/></g>
<g><path style="opacity:1" fill="#3b3b3b" d="M 590.5,919.5 C 589.883,919.611 589.383,919.944 589,920.5C 584.826,918.269 580.326,916.936 575.5,916.5C 575.5,915.833 575.167,915.5 574.5,915.5C 617.055,878.944 628.221,834.278 608,781.5C 573.131,724.424 523.631,706.258 459.5,727C 425.328,741.494 403.828,766.66 395,802.5C 394.333,821.167 394.333,839.833 395,858.5C 396.443,869.003 399.943,878.67 405.5,887.5C 406.244,890.683 406.244,893.683 405.5,896.5C 404.672,902.319 404.172,908.319 404,914.5C 403.667,909.833 403.333,905.167 403,900.5C 396.778,892.726 392.111,884.06 389,874.5C 387.387,847.535 387.054,820.535 388,793.5C 388.729,788.979 390.063,784.646 392,780.5C 397.084,771.997 402.417,763.664 408,755.5C 433.286,725.7 465.62,711.7 505,713.5C 528.314,711.463 549.814,716.63 569.5,729C 592.384,744.247 609.551,764.414 621,789.5C 635.138,839.955 622.971,882.455 584.5,917C 586.723,917.566 588.723,918.4 590.5,919.5 Z"/></g>
<g><path style="opacity:1" fill="#414141" d="M 764.5,716.5 C 809.596,712.471 845.096,728.804 871,765.5C 879.067,777.636 883.734,790.969 885,805.5C 893.101,860.132 872.935,900.298 824.5,926C 771.928,947.995 726.095,938.495 687,897.5C 663.427,868.497 655.76,835.497 664,798.5C 670.553,776.937 682.387,758.77 699.5,744C 717.962,727.098 739.629,717.931 764.5,716.5 Z"/></g>
<g><path style="opacity:1" fill="#414141" d="M 574.5,915.5 C 571.813,915.664 569.146,915.497 566.5,915C 608.305,882.241 621.138,840.408 605,789.5C 575.573,733.564 530.073,713.398 468.5,729C 414.425,751.954 391.592,792.788 400,851.5C 401.456,862.698 404.622,873.364 409.5,883.5C 406.543,881.975 405.876,882.642 407.5,885.5C 406.833,886.167 406.167,886.833 405.5,887.5C 399.943,878.67 396.443,869.003 395,858.5C 394.333,839.833 394.333,821.167 395,802.5C 403.828,766.66 425.328,741.494 459.5,727C 523.631,706.258 573.131,724.424 608,781.5C 628.221,834.278 617.055,878.944 574.5,915.5 Z"/></g>
<g><path style="opacity:1" fill="#474747" d="M 758.5,721.5 C 812.109,716.209 850.609,737.542 874,785.5C 876.277,791.332 877.944,797.332 879,803.5C 887.653,851.983 871.819,889.816 831.5,917C 789.089,940.683 748.089,938.683 708.5,911C 667.88,876.273 657.047,833.773 676,783.5C 693.716,749.594 721.216,728.928 758.5,721.5 Z"/></g>
<g><path style="opacity:1" fill="#484848" d="M 574.5,915.5 C 575.167,915.5 575.5,915.833 575.5,916.5C 570.16,916.831 564.826,917.164 559.5,917.5C 559.414,916.504 559.748,915.671 560.5,915C 599.313,887.178 614.147,849.678 605,802.5C 594.774,770.937 574.607,748.104 544.5,734C 494.554,717.102 453.054,728.935 420,769.5C 411.739,781.281 406.405,794.281 404,808.5C 396.7,847.858 407.2,881.358 435.5,909C 448.976,920.07 464.309,927.403 481.5,931C 495.209,932.452 508.876,932.952 522.5,932.5C 519.555,934.898 516.555,936.564 513.5,937.5C 512.711,937.217 512.044,936.717 511.5,936C 467.836,938.918 434.336,922.085 411,885.5C 410.667,889.833 410.333,894.167 410,898.5C 409.501,893.845 409.334,889.179 409.5,884.5C 409.5,884.167 409.5,883.833 409.5,883.5C 404.622,873.364 401.456,862.698 400,851.5C 391.592,792.788 414.425,751.954 468.5,729C 530.073,713.398 575.573,733.564 605,789.5C 621.138,840.408 608.305,882.241 566.5,915C 569.146,915.497 571.813,915.664 574.5,915.5 Z"/></g>
<g><path style="opacity:1" fill="#4d4d4d" d="M 761.5,724.5 C 813.207,720.924 849.707,742.591 871,789.5C 885.505,835.38 875.339,874.547 840.5,907C 804.041,933.724 765.374,937.39 724.5,918C 679.901,889.568 663.401,849.401 675,797.5C 690.221,756.836 719.054,732.502 761.5,724.5 Z"/></g>
<g><path style="opacity:1" fill="#4d4d4d" d="M 559.5,917.5 C 558.458,918.791 557.292,918.791 556,917.5C 554.541,919.81 552.708,920.143 550.5,918.5C 549.262,918.19 549.262,917.69 550.5,917C 592.427,890.966 609.26,853.466 601,804.5C 588.365,763.864 561.198,739.364 519.5,731C 477.671,726.37 444.837,741.204 421,775.5C 407.96,798.541 403.627,823.208 408,849.5C 417.983,896.482 446.816,922.982 494.5,929C 506.736,930.137 518.736,928.97 530.5,925.5C 531.183,925.863 531.85,926.196 532.5,926.5C 529.441,928.068 526.108,930.068 522.5,932.5C 508.876,932.952 495.209,932.452 481.5,931C 464.309,927.403 448.976,920.07 435.5,909C 407.2,881.358 396.7,847.858 404,808.5C 406.405,794.281 411.739,781.281 420,769.5C 453.054,728.935 494.554,717.102 544.5,734C 574.607,748.104 594.774,770.937 605,802.5C 614.147,849.678 599.313,887.178 560.5,915C 559.748,915.671 559.414,916.504 559.5,917.5 Z"/></g>
<g><path style="opacity:1" fill="#545454" d="M 758.5,728.5 C 808.788,723.882 844.621,744.215 866,789.5C 880.842,833.662 871.675,871.829 838.5,904C 800.362,932.557 760.695,934.89 719.5,911C 681.946,882.699 668.446,845.533 679,799.5C 686.761,775.795 700.928,756.962 721.5,743C 733.043,735.886 745.376,731.052 758.5,728.5 Z"/></g>
<g><path style="opacity:1" fill="#545454" d="M 550.5,918.5 C 550.53,919.497 550.03,920.164 549,920.5C 547.584,921.573 546.25,921.573 545,920.5C 541.206,923.09 537.04,925.09 532.5,926.5C 531.85,926.196 531.183,925.863 530.5,925.5C 518.736,928.97 506.736,930.137 494.5,929C 446.816,922.982 417.983,896.482 408,849.5C 403.627,823.208 407.96,798.541 421,775.5C 444.837,741.204 477.671,726.37 519.5,731C 561.198,739.364 588.365,763.864 601,804.5C 609.26,853.466 592.427,890.966 550.5,917C 549.262,917.69 549.262,918.19 550.5,918.5 Z"/></g>
<g><path style="opacity:1" fill="#5c5c5c" d="M 765.5,730.5 C 811.555,729.424 844.055,749.757 863,791.5C 865.449,797.63 867.116,803.963 868,810.5C 874.221,859.188 855.721,894.688 812.5,917C 769.275,933.401 732.108,924.568 701,890.5C 675.231,856.459 671.565,820.126 690,781.5C 707.018,752.296 732.185,735.296 765.5,730.5 Z"/></g>
<g><path style="opacity:1" fill="#5c5c5c" d="M 495.5,732.5 C 535.753,730.707 566.587,746.707 588,780.5C 607.14,818.73 604.14,855.063 579,889.5C 545.451,927.591 505.285,936.425 458.5,916C 431.198,900.342 415.365,876.842 411,845.5C 405.481,800.378 421.981,766.212 460.5,743C 471.714,737.535 483.381,734.035 495.5,732.5 Z"/></g>
<g><path style="opacity:1" fill="#666666" d="M 762.5,735.5 C 806.627,733.172 838.127,751.839 857,791.5C 869.355,825.888 865.021,857.888 844,887.5C 818.779,916.684 787.279,926.85 749.5,918C 717.864,907.03 697.031,885.53 687,853.5C 677.26,807.364 692.094,771.531 731.5,746C 741.441,740.965 751.775,737.465 762.5,735.5 Z"/></g>
<g><path style="opacity:1" fill="#666666" d="M 498.5,736.5 C 538.97,736.188 568.47,753.854 587,789.5C 603.485,833.029 594.652,870.529 560.5,902C 524.028,928.598 487.028,929.265 449.5,904C 419.982,877.477 409.482,844.644 418,805.5C 426.891,772.275 447.725,750.442 480.5,740C 486.581,738.503 492.581,737.336 498.5,736.5 Z"/></g>
<g><path style="opacity:1" fill="#717171" d="M 491.5,739.5 C 544.177,736.693 577.344,760.693 591,811.5C 596.569,853.511 581.736,886.011 546.5,909C 524.806,920.264 502.139,922.597 478.5,916C 439.359,900.581 419.359,871.747 418.5,829.5C 418.98,792.016 435.647,764.516 468.5,747C 476.119,743.96 483.785,741.46 491.5,739.5 Z"/></g>
<g><path style="opacity:1" fill="#717171" d="M 768.5,737.5 C 807.379,737.679 835.546,755.012 853,789.5C 867.057,825.608 862.391,858.941 839,889.5C 811.584,918.145 779.084,925.979 741.5,913C 706.741,895.677 688.408,867.51 686.5,828.5C 687.905,790.159 705.572,762.325 739.5,745C 748.95,741.118 758.616,738.618 768.5,737.5 Z"/></g>
<g><path style="opacity:1" fill="#7d7d7d" d="M 767.5,741.5 C 806.395,741.684 833.895,759.351 850,794.5C 863.943,835.228 855.11,870.062 823.5,899C 791.017,921.815 758.35,922.148 725.5,900C 692.329,870.82 683.162,835.32 698,793.5C 711.668,763.315 734.835,745.982 767.5,741.5 Z"/></g>
<g><path style="opacity:1" fill="#7d7d7d" d="M 496.5,742.5 C 543.012,741.996 572.845,763.996 586,808.5C 592.936,850.071 579.102,882.571 544.5,906C 506.217,924.137 472.384,917.97 443,887.5C 424.921,864.072 418.921,837.739 425,808.5C 435.004,771.323 458.837,749.323 496.5,742.5 Z"/></g>
<g><path style="opacity:1" fill="#898989" d="M 495.5,746.5 C 544.974,745.82 574.141,769.82 583,818.5C 585.796,854.068 572.629,881.901 543.5,902C 510.718,918.555 480.384,914.888 452.5,891C 427.493,862.964 421.327,831.13 434,795.5C 446.131,768.524 466.631,752.191 495.5,746.5 Z"/></g>
<g><path style="opacity:1" fill="#8f8f8f" d="M 761.5,746.5 C 804.578,744.109 833.412,763.109 848,803.5C 857.957,842.896 847.124,875.062 815.5,900C 777.312,921.052 743.479,915.552 714,883.5C 689.71,848.047 689.377,812.38 713,776.5C 725.488,760.508 741.655,750.508 761.5,746.5 Z"/></g>
<g><path style="opacity:1" fill="#fefefe" d="M 533.5,754.5 C 559.743,768.31 574.577,789.976 578,819.5C 580.599,849.856 570.766,875.19 548.5,895.5C 538.907,901.964 528.573,906.797 517.5,910C 509.5,910.667 501.5,910.667 493.5,910C 485.495,907.778 477.828,904.778 470.5,901C 462.675,895.006 455.342,888.506 448.5,881.5C 430.638,853.379 427.804,823.713 440,792.5C 446.464,779.869 455.298,769.203 466.5,760.5C 487.748,746.881 510.082,744.881 533.5,754.5 Z"/></g>
<g><path style="opacity:1" fill="#fefefe" d="M 762.5,748.5 C 800.164,747.317 826.664,763.983 842,798.5C 851.805,830.821 846.471,860.155 826,886.5C 796.426,915.307 764.593,918.14 730.5,895C 702.758,868.878 694.258,837.378 705,800.5C 715.51,773.486 734.676,756.152 762.5,748.5 Z"/></g>
<g><path style="opacity:1" fill="#9a9a9a" d="M 466.5,760.5 C 455.298,769.203 446.464,779.869 440,792.5C 427.804,823.713 430.638,853.379 448.5,881.5C 447.504,881.586 446.671,881.252 446,880.5C 428.308,853.96 424.975,825.627 436,795.5C 441.638,782.708 449.804,771.875 460.5,763C 462.217,761.441 464.217,760.608 466.5,760.5 Z"/></g>
<g><path style="opacity:1" fill="#989898" d="M 533.5,754.5 C 546.331,758.811 556.831,766.477 565,777.5C 583.124,804.013 586.457,832.346 575,862.5C 571.001,871.173 566.001,879.173 560,886.5C 556.845,890.503 553.012,893.503 548.5,895.5C 570.766,875.19 580.599,849.856 578,819.5C 574.577,789.976 559.743,768.31 533.5,754.5 Z"/></g>
<g><path style="opacity:1" fill="#f31c1b" d="M 409.5,883.5 C 409.5,883.833 409.5,884.167 409.5,884.5C 408.833,884.833 408.167,885.167 407.5,885.5C 405.876,882.642 406.543,881.975 409.5,883.5 Z"/></g>
<g><path style="opacity:1" fill="#f31c1c" d="M 407.5,885.5 C 407.968,892.109 408.968,898.609 410.5,905C 409.065,907.267 409.398,909.267 411.5,911C 410.978,911.561 410.645,912.228 410.5,913C 411.703,916.919 413.203,921.086 415,925.5C 417.02,927.536 418.52,929.369 419.5,931C 419.167,931.333 418.833,931.667 418.5,932C 419.833,932.667 421.167,933.333 422.5,934C 421.167,935.84 421.334,936.34 423,935.5C 423.667,936.833 424.333,938.167 425,939.5C 426,939.5 427,939.5 428,939.5C 430.767,943.308 434.267,946.308 438.5,948.5C 439.773,948.254 440.94,948.254 442,948.5C 442.915,949.328 443.581,950.328 444,951.5C 445.881,950.646 447.714,950.979 449.5,952.5C 450.086,952.291 450.586,951.957 451,951.5C 464.222,955.247 477.222,954.913 490,950.5C 490.945,950.095 491.612,949.428 492,948.5C 493.667,948.5 495.333,948.5 497,948.5C 498.333,947.167 499.667,945.833 501,944.5C 501.333,944.833 501.667,945.167 502,945.5C 506.138,942.419 509.971,939.753 513.5,937.5C 516.555,936.564 519.555,934.898 522.5,932.5C 526.108,930.068 529.441,928.068 532.5,926.5C 537.04,925.09 541.206,923.09 545,920.5C 546.25,921.573 547.584,921.573 549,920.5C 550.03,920.164 550.53,919.497 550.5,918.5C 552.708,920.143 554.541,919.81 556,917.5C 557.292,918.791 558.458,918.791 559.5,917.5C 564.826,917.164 570.16,916.831 575.5,916.5C 580.326,916.936 584.826,918.269 589,920.5C 589.383,919.944 589.883,919.611 590.5,919.5C 591.008,921.233 591.841,921.566 593,920.5C 597.825,923.32 602.658,926.153 607.5,929C 608.833,929.667 608.833,930.333 607.5,931C 610.153,932.655 612.486,934.655 614.5,937C 614.167,937.333 613.833,937.667 613.5,938C 616.544,938.359 616.878,939.026 614.5,940C 618.804,943.939 621.137,948.606 621.5,954C 623.807,954.354 624.141,955.354 622.5,957C 622.964,960.199 624.297,960.866 626.5,959C 627.705,955.826 629.205,952.326 631,948.5C 631.903,947.299 633.069,946.465 634.5,946C 633.833,945.667 633.167,945.333 632.5,945C 633.966,944.365 635.3,943.531 636.5,942.5C 637.451,943.326 638.451,943.492 639.5,943C 638.833,941.667 637.833,940.667 636.5,940C 638.275,938.561 640.275,937.561 642.5,937C 643.833,936.333 643.833,935.667 642.5,935C 643.449,934.383 644.282,934.549 645,935.5C 645.284,933.114 646.284,932.448 648,933.5C 650.134,932.008 652.134,930.341 654,928.5C 654.333,928.833 654.667,929.167 655,929.5C 658.028,927.171 661.194,925.838 664.5,925.5C 672.078,924.397 679.411,924.397 686.5,925.5C 690.572,927.348 695.072,929.015 700,930.5C 700.333,930.167 700.667,929.833 701,929.5C 701.419,930.672 702.085,931.672 703,932.5C 704.667,932.5 706.333,932.5 708,932.5C 709.775,934.394 711.775,936.061 714,937.5C 714.333,937.167 714.667,936.833 715,936.5C 719.265,939.094 722.931,942.428 726,946.5C 726.333,946.167 726.667,945.833 727,945.5C 727.724,947.959 729.057,948.959 731,948.5C 735.334,954.169 740.001,958.836 745,962.5C 748.904,964.034 752.571,966.701 756,970.5C 757,970.5 758,970.5 759,970.5C 759.667,971.833 760.667,972.833 762,973.5C 763.666,972.66 763.833,973.16 762.5,975C 763.744,975.456 764.577,974.956 765,973.5C 765.317,975.301 765.984,975.634 767,974.5C 768.667,975.5 770.333,976.5 772,977.5C 772.333,977.167 772.667,976.833 773,976.5C 773.953,978.592 775.286,978.925 777,977.5C 778.845,979.35 780.845,979.683 783,978.5C 785.928,980.038 789.094,980.704 792.5,980.5C 794.833,980.333 797.167,980.167 799.5,980C 800,979.5 800.5,979 801,978.5C 803.093,979.246 805.093,979.579 807,979.5C 808,978.5 809,977.5 810,976.5C 811.998,977.271 813.665,976.605 815,974.5C 815.333,974.833 815.667,975.167 816,975.5C 816.317,973.699 816.984,973.366 818,974.5C 819.067,973.809 820.234,973.309 821.5,973C 821.167,972.667 820.833,972.333 820.5,972C 821.833,971.667 823.167,971.333 824.5,971C 831.198,965.004 836.864,958.671 841.5,952C 841.167,951.667 840.833,951.333 840.5,951C 842.301,950.683 842.634,950.016 841.5,949C 843.017,946.796 844.35,944.462 845.5,942C 845.167,941.667 844.833,941.333 844.5,941C 846.689,940.323 847.022,939.156 845.5,937.5C 845.838,934.194 847.171,931.028 849.5,928C 848.833,927.667 848.167,927.333 847.5,927C 849.016,925.103 849.683,922.936 849.5,920.5C 849.783,919.711 850.283,919.044 851,918.5C 850.229,920.18 850.395,921.847 851.5,923.5C 851.5,926.5 851.5,929.5 851.5,932.5C 850.427,934.347 850.427,936.347 851.5,938.5C 850.645,939.531 849.978,940.697 849.5,942C 849.912,944.462 849.912,946.795 849.5,949C 847.408,949.953 847.075,951.286 848.5,953C 847.427,954.594 846.427,956.094 845.5,957.5C 845.694,959.07 845.694,960.57 845.5,962C 843.578,963.46 842.911,965.127 843.5,967C 841.244,969.922 839.411,973.089 838,976.5C 835.139,976.092 834.972,976.925 837.5,979C 833.268,983.488 829.768,987.988 827,992.5C 826.517,993.448 826.351,994.448 826.5,995.5C 824.167,995.833 822.833,997.167 822.5,999.5C 821.833,1000.83 820.833,1001.83 819.5,1002.5C 816.833,1003.17 815.167,1004.83 814.5,1007.5C 812.983,1007.51 811.816,1008.18 811,1009.5C 810.667,1009.17 810.333,1008.83 810,1008.5C 809.59,1009.9 809.09,1011.23 808.5,1012.5C 806.251,1013.08 804.585,1014.41 803.5,1016.5C 802.167,1016.5 801.5,1017.17 801.5,1018.5C 801.167,1018.5 800.833,1018.5 800.5,1018.5C 800.565,1018.06 800.399,1017.73 800,1017.5C 797.929,1018.1 796.762,1019.44 796.5,1021.5C 794.62,1021.23 793.287,1021.9 792.5,1023.5C 791.71,1024.4 790.71,1025.07 789.5,1025.5C 788.075,1023.97 787.409,1024.3 787.5,1026.5C 787.167,1026.5 786.833,1026.5 786.5,1026.5C 785.673,1025.56 785.006,1025.89 784.5,1027.5C 784.158,1028.34 783.492,1028.67 782.5,1028.5C 781.075,1026.97 780.409,1027.3 780.5,1029.5C 779.105,1028.19 778.105,1028.52 777.5,1030.5C 776.791,1031.4 775.791,1031.74 774.5,1031.5C 772.473,1031.34 770.473,1031.5 768.5,1032C 767.944,1032.38 767.611,1032.88 767.5,1033.5C 764.756,1032.52 762.423,1033.19 760.5,1035.5C 760.167,1035.5 759.833,1035.5 759.5,1035.5C 759.265,1034.9 758.765,1034.57 758,1034.5C 754.195,1034.91 750.695,1035.91 747.5,1037.5C 747.167,1037.5 746.833,1037.5 746.5,1037.5C 732.831,1037.47 719.165,1037.47 705.5,1037.5C 704.833,1037.5 704.167,1037.5 703.5,1037.5C 701.007,1035.42 698.34,1035.08 695.5,1036.5C 695.167,1036.5 694.833,1036.5 694.5,1036.5C 692.68,1034.54 690.68,1034.21 688.5,1035.5C 688.167,1035.5 687.833,1035.5 687.5,1035.5C 687.38,1034.41 686.713,1033.75 685.5,1033.5C 684.584,1033.54 683.917,1033.88 683.5,1034.5C 683.167,1034.5 682.833,1034.5 682.5,1034.5C 681.779,1032.62 680.779,1032.28 679.5,1033.5C 677.708,1033.63 676.042,1033.3 674.5,1032.5C 671.667,1030.58 668.5,1028.91 665,1027.5C 664.617,1028.06 664.117,1028.39 663.5,1028.5C 663.167,1028.5 662.833,1028.5 662.5,1028.5C 662.591,1026.3 661.925,1025.97 660.5,1027.5C 659.655,1025.24 658.322,1024.57 656.5,1025.5C 655.167,1024.07 653.667,1022.73 652,1021.5C 651.601,1021.73 651.435,1022.06 651.5,1022.5C 651.167,1022.5 650.833,1022.5 650.5,1022.5C 650.179,1020.95 649.179,1020.29 647.5,1020.5C 647.611,1019.88 647.944,1019.38 648.5,1019C 647.069,1018.53 645.903,1017.7 645,1016.5C 644.617,1017.06 644.117,1017.39 643.5,1017.5C 642.595,1015.09 641.095,1013.09 639,1011.5C 638.601,1011.73 638.435,1012.06 638.5,1012.5C 637.5,1012.17 636.833,1011.5 636.5,1010.5C 635.833,1007.83 634.167,1006.17 631.5,1005.5C 632.674,1003.63 632.007,1002.63 629.5,1002.5C 628.89,1001.61 628.557,1000.61 628.5,999.5C 628.938,999.565 629.272,999.399 629.5,999C 628.922,997.583 627.922,996.75 626.5,996.5C 626.611,995.883 626.944,995.383 627.5,995C 626.384,992.261 625.051,989.761 623.5,987.5C 623.5,987.167 623.5,986.833 623.5,986.5C 624.737,985.257 624.404,984.257 622.5,983.5C 621.713,984.242 621.047,985.075 620.5,986C 620.728,986.399 621.062,986.565 621.5,986.5C 619.177,989.984 616.843,993.984 614.5,998.5C 614.672,999.492 614.338,1000.16 613.5,1000.5C 610.833,1001.17 609.167,1002.83 608.5,1005.5C 605.805,1005.93 603.638,1007.27 602,1009.5C 601.667,1009.17 601.333,1008.83 601,1008.5C 600.079,1009.71 599.579,1011.04 599.5,1012.5C 598.833,1012.83 598.167,1013.17 597.5,1013.5C 594.687,1013.02 592.687,1014.02 591.5,1016.5C 590.791,1017.4 589.791,1017.74 588.5,1017.5C 588.565,1017.06 588.399,1016.73 588,1016.5C 584.653,1018.06 581.153,1019.23 577.5,1020C 576.944,1020.38 576.611,1020.88 576.5,1021.5C 574.999,1020.56 573.665,1020.89 572.5,1022.5C 572.167,1022.5 571.833,1022.5 571.5,1022.5C 571.44,1021.96 571.107,1021.62 570.5,1021.5C 563.488,1022.28 556.488,1023.28 549.5,1024.5C 548.167,1024.5 546.833,1024.5 545.5,1024.5C 537.956,1023.58 530.456,1022.58 523,1021.5C 521.862,1021.99 520.695,1022.32 519.5,1022.5C 517.792,1020.49 515.792,1020.15 513.5,1021.5C 511.792,1019.49 509.792,1019.15 507.5,1020.5C 507.167,1020.5 506.833,1020.5 506.5,1020.5C 505.462,1018.48 504.128,1018.15 502.5,1019.5C 502.167,1019.5 501.833,1019.5 501.5,1019.5C 500.295,1017.86 498.962,1017.53 497.5,1018.5C 497.167,1018.5 496.833,1018.5 496.5,1018.5C 495.779,1016.62 494.779,1016.28 493.5,1017.5C 493.167,1017.5 492.833,1017.5 492.5,1017.5C 492.389,1016.88 492.056,1016.38 491.5,1016C 483.142,1013.87 475.142,1010.87 467.5,1007C 466.748,1006.33 466.414,1005.5 466.5,1004.5C 465.292,1005.23 463.959,1005.57 462.5,1005.5C 461.292,1002.96 459.292,1001.62 456.5,1001.5C 454.502,999.4 452.335,997.4 450,995.5C 449.601,995.728 449.435,996.062 449.5,996.5C 449.167,996.5 448.833,996.5 448.5,996.5C 447.805,994.022 446.305,992.022 444,990.5C 443.617,991.056 443.117,991.389 442.5,991.5C 441.833,990.167 440.833,989.167 439.5,988.5C 438.61,985.776 437.11,983.443 435,981.5C 434.667,981.833 434.333,982.167 434,982.5C 433.59,981.099 433.09,979.766 432.5,978.5C 428.9,975.269 425.733,970.936 423,965.5C 422.25,964.874 421.416,964.374 420.5,964C 420.833,963.667 421.167,963.333 421.5,963C 419.122,960.789 418.122,958.289 418.5,955.5C 416.958,955.306 415.625,954.139 414.5,952C 414.833,951.667 415.167,951.333 415.5,951C 413.224,949.97 412.557,948.47 413.5,946.5C 411.652,942.984 409.985,939.817 408.5,937C 408.957,936.586 409.291,936.086 409.5,935.5C 407.862,934.295 407.529,932.962 408.5,931.5C 406.633,930.203 406.3,928.703 407.5,927C 406.815,924.205 406.315,921.372 406,918.5C 405.5,918 405,917.5 404.5,917C 405.479,910.256 405.812,903.422 405.5,896.5C 406.244,893.683 406.244,890.683 405.5,887.5C 406.167,886.833 406.833,886.167 407.5,885.5 Z"/></g>
<g><path style="opacity:1" fill="#3e3d3d" d="M 409.5,884.5 C 409.334,889.179 409.501,893.845 410,898.5C 410.333,894.167 410.667,889.833 411,885.5C 434.336,922.085 467.836,938.918 511.5,936C 512.044,936.717 512.711,937.217 513.5,937.5C 509.971,939.753 506.138,942.419 502,945.5C 501.667,945.167 501.333,944.833 501,944.5C 499.667,945.833 498.333,947.167 497,948.5C 495.333,948.5 493.667,948.5 492,948.5C 491.612,949.428 490.945,950.095 490,950.5C 477.222,954.913 464.222,955.247 451,951.5C 450.586,951.957 450.086,952.291 449.5,952.5C 447.714,950.979 445.881,950.646 444,951.5C 443.581,950.328 442.915,949.328 442,948.5C 440.94,948.254 439.773,948.254 438.5,948.5C 434.267,946.308 430.767,943.308 428,939.5C 427,939.5 426,939.5 425,939.5C 424.333,938.167 423.667,936.833 423,935.5C 421.334,936.34 421.167,935.84 422.5,934C 421.167,933.333 419.833,932.667 418.5,932C 418.833,931.667 419.167,931.333 419.5,931C 418.52,929.369 417.02,927.536 415,925.5C 413.203,921.086 411.703,916.919 410.5,913C 410.645,912.228 410.978,911.561 411.5,911C 409.398,909.267 409.065,907.267 410.5,905C 408.968,898.609 407.968,892.109 407.5,885.5C 408.167,885.167 408.833,884.833 409.5,884.5 Z"/></g>
<g><path style="opacity:1" fill="#908986" d="M 851.5,932.5 C 852.833,934.5 852.833,936.5 851.5,938.5C 850.427,936.347 850.427,934.347 851.5,932.5 Z"/></g>
<g><path style="opacity:1" fill="#43312d" d="M 508.5,941.5 C 511.001,941.511 511.168,942.178 509,943.5C 508.536,942.906 508.369,942.239 508.5,941.5 Z"/></g>
<g><path style="opacity:1" fill="#362c2c" d="M 432.5,978.5 C 433.386,977.224 434.386,977.224 435.5,978.5C 434.767,979.087 433.767,979.087 432.5,978.5 Z"/></g>
<g><path style="opacity:1" fill="#7c7573" d="M 623.5,986.5 C 622.833,986.5 622.167,986.5 621.5,986.5C 621.062,986.565 620.728,986.399 620.5,986C 621.047,985.075 621.713,984.242 622.5,983.5C 624.404,984.257 624.737,985.257 623.5,986.5 Z"/></g>
<g><path style="opacity:0.99" fill="#272525" d="M 621.5,986.5 C 622.167,986.5 622.833,986.5 623.5,986.5C 623.5,986.833 623.5,987.167 623.5,987.5C 623.993,989.806 624.326,992.139 624.5,994.5C 621.612,993.99 619.279,994.656 617.5,996.5C 616.5,997.167 615.5,997.833 614.5,998.5C 616.843,993.984 619.177,989.984 621.5,986.5 Z"/></g>
<g><path style="opacity:1" fill="#7b6863" d="M 623.5,987.5 C 625.051,989.761 626.384,992.261 627.5,995C 626.944,995.383 626.611,995.883 626.5,996.5C 625.833,995.833 625.167,995.167 624.5,994.5C 624.326,992.139 623.993,989.806 623.5,987.5 Z"/></g>
<g><path style="opacity:1" fill="#5d5857" d="M 448.5,996.5 C 446.859,995.853 445.526,994.853 444.5,993.5C 443.833,992.833 443.167,992.167 442.5,991.5C 443.117,991.389 443.617,991.056 444,990.5C 446.305,992.022 447.805,994.022 448.5,996.5 Z"/></g>
<g><path style="opacity:1" fill="#edeeeb" d="M 617.5,996.5 C 618.833,997.167 618.833,997.167 617.5,996.5 Z"/></g>
<g><path style="opacity:1" fill="#eff0ed" d="M 624.5,997.5 C 625.833,998.167 625.833,998.167 624.5,997.5 Z"/></g>
<g><path style="opacity:0.839" fill="#6f534e" d="M 626.5,996.5 C 627.922,996.75 628.922,997.583 629.5,999C 629.272,999.399 628.938,999.565 628.5,999.5C 627.094,999.027 626.427,998.027 626.5,996.5 Z"/></g>
<g><path style="opacity:1" fill="#5f5e5e" d="M 826.5,995.5 C 825.5,997.167 824.167,998.5 822.5,999.5C 822.833,997.167 824.167,995.833 826.5,995.5 Z"/></g>
<g><path style="opacity:0.839" fill="#514544" d="M 456.5,1001.5 C 453.63,1000.57 451.296,998.9 449.5,996.5C 449.435,996.062 449.601,995.728 450,995.5C 452.335,997.4 454.502,999.4 456.5,1001.5 Z"/></g>
<g><path style="opacity:1" fill="#767371" d="M 613.5,1000.5 C 612.789,1002.03 611.789,1003.36 610.5,1004.5C 609.833,1004.83 609.167,1005.17 608.5,1005.5C 609.167,1002.83 610.833,1001.17 613.5,1000.5 Z"/></g>
<g><path style="opacity:1" fill="#545452" d="M 456.5,1001.5 C 459.292,1001.62 461.292,1002.96 462.5,1005.5C 460.147,1004.66 458.147,1003.33 456.5,1001.5 Z"/></g>
<g><path style="opacity:1" fill="#6d6d6b" d="M 629.5,1002.5 C 632.007,1002.63 632.674,1003.63 631.5,1005.5C 630.833,1005.5 630.167,1005.5 629.5,1005.5C 630.833,1004.5 630.833,1003.5 629.5,1002.5 Z"/></g>
<g><path style="opacity:1" fill="#ebede9" d="M 821.5,1002.5 C 822.833,1003.17 822.833,1003.17 821.5,1002.5 Z"/></g>
<g><path style="opacity:0.839" fill="#6c2924" d="M 466.5,1004.5 C 467.469,1003.69 468.302,1002.69 469,1001.5C 469.854,1004.47 469.021,1005.47 466.5,1004.5 Z"/></g>
<g><path style="opacity:1" fill="#eff0ed" d="M 456.5,1004.5 C 457.833,1005.17 457.833,1005.17 456.5,1004.5 Z"/></g>
<g><path style="opacity:1" fill="#eeefec" d="M 610.5,1004.5 C 611.833,1005.17 611.833,1005.17 610.5,1004.5 Z"/></g>
<g><path style="opacity:1" fill="#f1f3ef" d="M 614.5,1005.5 C 615.833,1006.17 615.833,1006.17 614.5,1005.5 Z"/></g>
<g><path style="opacity:1" fill="#eeefec" d="M 629.5,1005.5 C 629.5,1005.83 629.5,1006.17 629.5,1006.5C 628.83,1006.02 628.83,1005.69 629.5,1005.5 Z"/></g>
<g><path style="opacity:1" fill="#4d4b4a" d="M 631.5,1005.5 C 634.167,1006.17 635.833,1007.83 636.5,1010.5C 634.5,1009.17 632.833,1007.5 631.5,1005.5 Z"/></g>
<g><path style="opacity:1" fill="#3f3c3a" d="M 819.5,1002.5 C 818.215,1004.45 816.549,1006.12 814.5,1007.5C 815.167,1004.83 816.833,1003.17 819.5,1002.5 Z"/></g>
<g><path style="opacity:1" fill="#f0f1ee" d="M 629.5,1006.5 C 630.833,1007.17 630.833,1007.17 629.5,1006.5 Z"/></g>
<g><path style="opacity:1" fill="#67524d" d="M 608.5,1005.5 C 605.792,1008.21 602.792,1010.54 599.5,1012.5C 599.579,1011.04 600.079,1009.71 601,1008.5C 601.333,1008.83 601.667,1009.17 602,1009.5C 603.638,1007.27 605.805,1005.93 608.5,1005.5 Z"/></g>
<g><path style="opacity:1" fill="#ebede9" d="M 606.5,1009.5 C 607.833,1010.17 607.833,1010.17 606.5,1009.5 Z"/></g>
<g><path style="opacity:1" fill="#4c4a48" d="M 814.5,1007.5 C 813.089,1009.91 811.089,1011.58 808.5,1012.5C 809.09,1011.23 809.59,1009.9 810,1008.5C 810.333,1008.83 810.667,1009.17 811,1009.5C 811.816,1008.18 812.983,1007.51 814.5,1007.5 Z"/></g>
<g><path style="opacity:1" fill="#544847" d="M 466.5,1004.5 C 466.414,1005.5 466.748,1006.33 467.5,1007C 475.142,1010.87 483.142,1013.87 491.5,1016C 492.056,1016.38 492.389,1016.88 492.5,1017.5C 481.777,1015.13 471.777,1011.13 462.5,1005.5C 463.959,1005.57 465.292,1005.23 466.5,1004.5 Z"/></g>
<g><path style="opacity:1" fill="#eff0ed" d="M 606.5,1010.5 C 605.833,1011.17 605.833,1011.17 606.5,1010.5 Z"/></g>
<g><path style="opacity:1" fill="#666463" d="M 597.5,1013.5 C 595.819,1015.01 593.819,1016.01 591.5,1016.5C 592.687,1014.02 594.687,1013.02 597.5,1013.5 Z"/></g>
<g><path style="opacity:1" fill="#f1f3ef" d="M 599.5,1013.5 C 600.833,1014.17 600.833,1014.17 599.5,1013.5 Z"/></g>
<g><path style="opacity:1" fill="#f1f3ef" d="M 602.5,1013.5 C 603.833,1014.17 603.833,1014.17 602.5,1013.5 Z"/></g>
<g><path style="opacity:1" fill="#efeeec" d="M 636.5,1014.5 C 635.833,1013.17 635.833,1013.17 636.5,1014.5 Z"/></g>
<g><path style="opacity:1" fill="#747371" d="M 808.5,1012.5 C 807.461,1014.53 805.795,1015.86 803.5,1016.5C 804.585,1014.41 806.251,1013.08 808.5,1012.5 Z"/></g>
<g><path style="opacity:1" fill="#f1f3ef" d="M 810.5,1013.5 C 811.833,1014.17 811.833,1014.17 810.5,1013.5 Z"/></g>
<g><path style="opacity:1" fill="#eeedeb" d="M 636.5,1014.5 C 637.833,1015.17 637.833,1015.17 636.5,1014.5 Z"/></g>
<g><path style="opacity:1" fill="#52504f" d="M 643.5,1017.5 C 641.451,1016.12 639.785,1014.45 638.5,1012.5C 638.435,1012.06 638.601,1011.73 639,1011.5C 641.095,1013.09 642.595,1015.09 643.5,1017.5 Z"/></g>
<g><path style="opacity:1" fill="#f0f1ee" d="M 810.5,1014.5 C 809.833,1015.17 809.833,1015.17 810.5,1014.5 Z"/></g>
<g><path style="opacity:1" fill="#f2f1ee" d="M 632.5,1015.5 C 633.833,1016.17 633.833,1016.17 632.5,1015.5 Z"/></g>
<g><path style="opacity:1" fill="#727270" d="M 803.5,1016.5 C 803.167,1017.5 802.5,1018.17 801.5,1018.5C 801.5,1017.17 802.167,1016.5 803.5,1016.5 Z"/></g>
<g><path style="opacity:1" fill="#6f6565" d="M 496.5,1018.5 C 495.209,1018.74 494.209,1018.4 493.5,1017.5C 494.779,1016.28 495.779,1016.62 496.5,1018.5 Z"/></g>
<g><path style="opacity:1" fill="#5b4b46" d="M 647.5,1020.5 C 646.128,1019.49 644.795,1018.49 643.5,1017.5C 644.117,1017.39 644.617,1017.06 645,1016.5C 645.903,1017.7 647.069,1018.53 648.5,1019C 647.944,1019.38 647.611,1019.88 647.5,1020.5 Z"/></g>
<g><path style="opacity:1" fill="#6e6e6e" d="M 501.5,1019.5 C 499.901,1019.77 498.568,1019.43 497.5,1018.5C 498.962,1017.53 500.295,1017.86 501.5,1019.5 Z"/></g>
<g><path style="opacity:1" fill="#675c5b" d="M 506.5,1020.5 C 504.901,1020.77 503.568,1020.43 502.5,1019.5C 504.128,1018.15 505.462,1018.48 506.5,1020.5 Z"/></g>
<g><path style="opacity:1" fill="#726f6d" d="M 588.5,1017.5 C 584.915,1019.81 580.915,1021.14 576.5,1021.5C 576.611,1020.88 576.944,1020.38 577.5,1020C 581.153,1019.23 584.653,1018.06 588,1016.5C 588.399,1016.73 588.565,1017.06 588.5,1017.5 Z"/></g>
<g><path style="opacity:1" fill="#594742" d="M 800.5,1018.5 C 799.564,1019.97 798.23,1020.97 796.5,1021.5C 796.762,1019.44 797.929,1018.1 800,1017.5C 800.399,1017.73 800.565,1018.06 800.5,1018.5 Z"/></g>
<g><path style="opacity:1" fill="#6e6867" d="M 513.5,1021.5 C 511.265,1021.79 509.265,1021.46 507.5,1020.5C 509.792,1019.15 511.792,1019.49 513.5,1021.5 Z"/></g>
<g><path style="opacity:1" fill="#6c6a69" d="M 647.5,1020.5 C 649.179,1020.29 650.179,1020.95 650.5,1022.5C 649.29,1022.07 648.29,1021.4 647.5,1020.5 Z"/></g>
<g><path style="opacity:1" fill="#666666" d="M 519.5,1022.5 C 517.265,1022.79 515.265,1022.46 513.5,1021.5C 515.792,1020.15 517.792,1020.49 519.5,1022.5 Z"/></g>
<g><path style="opacity:1" fill="#949491" d="M 576.5,1021.5 C 575.432,1022.43 574.099,1022.77 572.5,1022.5C 573.665,1020.89 574.999,1020.56 576.5,1021.5 Z"/></g>
<g><path style="opacity:1" fill="#f0f1ee" d="M 801.5,1021.5 C 802.833,1022.17 802.833,1022.17 801.5,1021.5 Z"/></g>
<g><path style="opacity:1" fill="#7f807d" d="M 796.5,1021.5 C 795.486,1022.67 794.153,1023.34 792.5,1023.5C 793.287,1021.9 794.62,1021.23 796.5,1021.5 Z"/></g>
<g><path style="opacity:1" fill="#eeefec" d="M 800.5,1023.5 C 799.833,1022.17 799.833,1022.17 800.5,1023.5 Z"/></g>
<g><path style="opacity:1" fill="#87807e" d="M 545.5,1024.5 C 536.611,1024.8 527.944,1024.14 519.5,1022.5C 520.695,1022.32 521.862,1021.99 523,1021.5C 530.456,1022.58 537.956,1023.58 545.5,1024.5 Z"/></g>
<g><path style="opacity:1" fill="#726d6b" d="M 571.5,1022.5 C 564.319,1024.24 556.986,1024.91 549.5,1024.5C 556.488,1023.28 563.488,1022.28 570.5,1021.5C 571.107,1021.62 571.44,1021.96 571.5,1022.5 Z"/></g>
<g><path style="opacity:1" fill="#f3f2ef" d="M 651.5,1023.5 C 650.833,1024.17 650.833,1024.17 651.5,1023.5 Z"/></g>
<g><path style="opacity:1" fill="#6f6d6c" d="M 656.5,1025.5 C 654.486,1025.61 652.82,1024.94 651.5,1023.5C 651.5,1023.17 651.5,1022.83 651.5,1022.5C 651.435,1022.06 651.601,1021.73 652,1021.5C 653.667,1022.73 655.167,1024.07 656.5,1025.5 Z"/></g>
<g><path style="opacity:1" fill="#5c5554" d="M 660.5,1027.5 C 659.167,1027.17 657.833,1026.83 656.5,1026.5C 656.5,1026.17 656.5,1025.83 656.5,1025.5C 658.322,1024.57 659.655,1025.24 660.5,1027.5 Z"/></g>
<g><path style="opacity:1" fill="#888886" d="M 789.5,1025.5 C 789.158,1026.34 788.492,1026.67 787.5,1026.5C 787.409,1024.3 788.075,1023.97 789.5,1025.5 Z"/></g>
<g><path style="opacity:1" fill="#eff0ef" d="M 656.5,1026.5 C 655.833,1027.17 655.833,1027.17 656.5,1026.5 Z"/></g>
<g><path style="opacity:1" fill="#626260" d="M 786.5,1026.5 C 786.158,1027.34 785.492,1027.67 784.5,1027.5C 785.006,1025.89 785.673,1025.56 786.5,1026.5 Z"/></g>
<g><path style="opacity:1" fill="#757273" d="M 662.5,1028.5 C 661.508,1028.67 660.842,1028.34 660.5,1027.5C 661.925,1025.97 662.591,1026.3 662.5,1028.5 Z"/></g>
<g><path style="opacity:1" fill="#5e5350" d="M 674.5,1032.5 C 670.463,1031.93 666.797,1030.6 663.5,1028.5C 664.117,1028.39 664.617,1028.06 665,1027.5C 668.5,1028.91 671.667,1030.58 674.5,1032.5 Z"/></g>
<g><path style="opacity:1" fill="#737371" d="M 782.5,1028.5 C 782.158,1029.34 781.492,1029.67 780.5,1029.5C 780.409,1027.3 781.075,1026.97 782.5,1028.5 Z"/></g>
<g><path style="opacity:1" fill="#828380" d="M 780.5,1029.5 C 779.791,1030.4 778.791,1030.74 777.5,1030.5C 778.105,1028.52 779.105,1028.19 780.5,1029.5 Z"/></g>
<g><path style="opacity:1" fill="#565554" d="M 774.5,1031.5 C 772.485,1032.92 770.152,1033.59 767.5,1033.5C 767.611,1032.88 767.944,1032.38 768.5,1032C 770.473,1031.5 772.473,1031.34 774.5,1031.5 Z"/></g>
<g><path style="opacity:1" fill="#7d7473" d="M 682.5,1034.5 C 681.209,1034.74 680.209,1034.4 679.5,1033.5C 680.779,1032.28 681.779,1032.62 682.5,1034.5 Z"/></g>
<g><path style="opacity:1" fill="#4d3f3d" d="M 683.5,1034.5 C 683.917,1033.88 684.584,1033.54 685.5,1033.5C 686.713,1033.75 687.38,1034.41 687.5,1035.5C 686.041,1035.57 684.708,1035.23 683.5,1034.5 Z"/></g>
<g><path style="opacity:1" fill="#5d504e" d="M 767.5,1033.5 C 765.401,1034.61 763.067,1035.28 760.5,1035.5C 762.423,1033.19 764.756,1032.52 767.5,1033.5 Z"/></g>
<g><path style="opacity:1" fill="#666363" d="M 688.5,1035.5 C 690.68,1034.21 692.68,1034.54 694.5,1036.5C 692.379,1036.67 690.379,1036.34 688.5,1035.5 Z"/></g>
<g><path style="opacity:1" fill="#656363" d="M 759.5,1035.5 C 755.733,1036.79 751.733,1037.46 747.5,1037.5C 750.695,1035.91 754.195,1034.91 758,1034.5C 758.765,1034.57 759.265,1034.9 759.5,1035.5 Z"/></g>
<g><path style="opacity:1" fill="#656363" d="M 695.5,1036.5 C 698.34,1035.08 701.007,1035.42 703.5,1037.5C 700.721,1037.72 698.054,1037.39 695.5,1036.5 Z"/></g>
<g><path style="opacity:1" fill="#5d5959" d="M 705.5,1037.5 C 719.165,1037.47 732.831,1037.47 746.5,1037.5C 732.863,1038.82 719.197,1038.82 705.5,1037.5 Z"/></g>
</svg>
