<?xml version="1.0" encoding="UTF-8"?>
<!DOCTYPE svg PUBLIC "-//W3C//DTD SVG 1.1//EN" "http://www.w3.org/Graphics/SVG/1.1/DTD/svg11.dtd">
<svg xmlns="http://www.w3.org/2000/svg" version="1.1" width="2000px" height="1080px" style="shape-rendering:geometricPrecision; text-rendering:geometricPrecision; image-rendering:optimizeQuality; fill-rule:evenodd; clip-rule:evenodd" xmlns:xlink="http://www.w3.org/1999/xlink">
<g><path style="opacity:0.941" fill="#fefffe" d="M 983.5,53.5 C 1001.28,53.0439 1018.62,55.5439 1035.5,61C 1038.84,67.4735 1036.84,70.9735 1029.5,71.5C 1015.41,67.6911 1001.07,65.8577 986.5,66C 985.072,68.1847 983.405,70.1847 981.5,72C 977.972,74.8414 973.972,76.8414 969.5,78C 966.482,81.1611 963.149,83.8278 959.5,86C 964.549,85.4844 969.549,84.8178 974.5,84C 978.809,86.573 979.476,89.9063 976.5,94C 968.879,96.9821 961.212,99.6487 953.5,102C 944.345,106.408 935.678,111.575 927.5,117.5C 922.104,128.333 915.271,137.999 907,146.5C 902.988,156.518 897.321,165.518 890,173.5C 888.621,180.349 886.621,187.016 884,193.5C 883.649,201.309 881.649,208.643 878,215.5C 877.333,221.833 877.333,228.167 878,234.5C 883.534,242.232 888.034,250.566 891.5,259.5C 889.386,262.847 887.386,266.347 885.5,270C 882.986,271.252 880.32,271.752 877.5,271.5C 879.179,281.725 879.679,292.058 879,302.5C 878.5,304.333 877.333,305.5 875.5,306C 829.5,306.333 783.5,306.667 737.5,307C 721.579,308.279 705.579,309.279 689.5,310C 683.944,311.239 678.278,311.906 672.5,312C 671.672,312.915 670.672,313.581 669.5,314C 662.842,314.5 656.175,314.666 649.5,314.5C 649.167,344.841 649.5,375.174 650.5,405.5C 652.527,406.693 654.027,408.36 655,410.5C 655.333,448.167 655.667,485.833 656,523.5C 657.204,527.716 657.87,532.049 658,536.5C 658.167,612.836 658.667,689.169 659.5,765.5C 663.613,767.891 667.946,769.724 672.5,771C 685.833,771.333 699.167,771.667 712.5,772C 715.21,773.015 717.543,774.515 719.5,776.5C 879.832,777.333 1040.17,777.833 1200.5,778C 1202.12,778.615 1203.45,779.615 1204.5,781C 1246.83,781.333 1289.17,781.667 1331.5,782C 1334.83,783 1338.17,784 1341.5,785C 1343.02,786.897 1343.68,789.064 1343.5,791.5C 1345.58,791.528 1347.42,790.861 1349,789.5C 1349.33,786.833 1349.67,784.167 1350,781.5C 1352.29,777.47 1355.45,776.636 1359.5,779C 1360.86,780.945 1361.7,783.112 1362,785.5C 1363.76,784.881 1364.92,783.714 1365.5,782C 1363.92,780.277 1362.42,778.444 1361,776.5C 1360.33,689.833 1360.33,603.167 1361,516.5C 1361.13,512.049 1361.8,507.716 1363,503.5C 1363.33,479.167 1363.67,454.833 1364,430.5C 1364.97,428.36 1366.47,426.693 1368.5,425.5C 1368.83,405.167 1369.17,384.833 1369.5,364.5C 1369.66,343.413 1369.16,322.413 1368,301.5C 1367.5,301 1367,300.5 1366.5,300C 1311.74,299.978 1257.08,298.978 1202.5,297C 1200.21,295.71 1198.21,294.043 1196.5,292C 1175.41,291.978 1154.41,291.311 1133.5,290C 1131.61,286.347 1129.61,282.847 1127.5,279.5C 1130.97,270.566 1135.47,262.232 1141,254.5C 1141.67,248.167 1141.67,241.833 1141,235.5C 1137.09,219.705 1132.09,204.371 1126,189.5C 1124.33,183.5 1122.67,177.5 1121,171.5C 1118.33,166.018 1115.5,160.685 1112.5,155.5C 1111.25,154.96 1110.09,154.293 1109,153.5C 1105.25,147.011 1101.25,140.677 1097,134.5C 1094.82,133.072 1092.82,131.405 1091,129.5C 1088.37,123.536 1083.87,119.703 1077.5,118C 1074.17,115 1070.83,112 1067.5,109C 1064.83,108 1062.17,107 1059.5,106C 1055.85,103.828 1052.52,101.161 1049.5,98C 1045.03,96.8414 1041.03,94.8414 1037.5,92C 1035.6,90.1847 1033.93,88.1847 1032.5,86C 1017.93,85.8577 1003.59,87.6911 989.5,91.5C 983.661,91.8306 981.161,89.1639 982,83.5C 982.5,81.6667 983.667,80.5 985.5,80C 1001.77,74.8727 1018.44,72.8727 1035.5,74C 1040.54,77.52 1045.87,80.52 1051.5,83C 1055.15,85.1722 1058.48,87.8389 1061.5,91C 1063.61,91.3599 1065.61,92.0266 1067.5,93C 1070.57,94.8693 1073.24,97.2026 1075.5,100C 1082.24,102.692 1088.24,106.358 1093.5,111C 1097.46,115.103 1100.79,119.603 1103.5,124.5C 1104.91,125.624 1106.41,126.624 1108,127.5C 1111.39,131.898 1114.39,136.565 1117,141.5C 1118.13,143.211 1119.63,143.711 1121.5,143C 1116.66,138.487 1113.49,132.987 1112,126.5C 1103.64,117.495 1096.48,107.495 1090.5,96.5C 1082.55,91.0603 1074.22,86.227 1065.5,82C 1057.51,79.7428 1049.67,76.9095 1042,73.5C 1039.41,68.0226 1041.07,64.6892 1047,63.5C 1054.98,65.4055 1062.81,67.5722 1070.5,70C 1078.37,75.2066 1086.7,79.8733 1095.5,84C 1101.3,89.1169 1105.47,95.2835 1108,102.5C 1110.04,104.874 1112.37,106.874 1115,108.5C 1116.91,113.335 1119.58,117.669 1123,121.5C 1124.42,127.554 1127.42,132.554 1132,136.5C 1135.75,143.009 1139.25,149.676 1142.5,156.5C 1150.91,157.058 1159.25,157.892 1167.5,159C 1197.5,159.333 1227.5,159.667 1257.5,160C 1258.91,160.368 1259.91,161.201 1260.5,162.5C 1304.69,163.825 1348.86,163.825 1393,162.5C 1394.73,162.946 1396.23,163.779 1397.5,165C 1415.48,166.911 1433.48,168.578 1451.5,170C 1454.83,171 1458.17,172 1461.5,173C 1484.17,173.333 1506.83,173.667 1529.5,174C 1531.83,175 1534.17,176 1536.5,177C 1543.5,177.333 1550.5,177.667 1557.5,178C 1559.33,178.748 1561,179.748 1562.5,181C 1570.27,182.129 1577.94,183.796 1585.5,186C 1589.53,188.287 1590.36,191.454 1588,195.5C 1586.09,196.93 1583.93,197.596 1581.5,197.5C 1573,195.09 1564.34,193.59 1555.5,193C 1554.09,192.632 1553.09,191.799 1552.5,190.5C 1546.19,189.669 1539.86,189.169 1533.5,189C 1530.83,188 1528.17,187 1525.5,186C 1502.83,185.667 1480.17,185.333 1457.5,185C 1454.17,184 1450.83,183 1447.5,182C 1433.5,180.6 1419.5,179.267 1405.5,178C 1321.41,178 1237.41,177 1153.5,175C 1151.37,174.241 1150.03,172.741 1149.5,170.5C 1148.68,169.614 1147.68,169.281 1146.5,169.5C 1147.61,174.077 1148.44,178.744 1149,183.5C 1149.56,185.725 1150.56,187.725 1152,189.5C 1152.42,207.836 1152.92,226.169 1153.5,244.5C 1153.41,254.878 1152.74,265.211 1151.5,275.5C 1206.51,275.154 1261.51,275.654 1316.5,277C 1327.06,278.572 1337.73,279.572 1348.5,280C 1349.83,280.667 1351.17,281.333 1352.5,282C 1364.29,281.973 1375.95,282.807 1387.5,284.5C 1390.78,284.684 1392.78,283.184 1393.5,280C 1396.46,277.948 1399.29,278.114 1402,280.5C 1402.96,283.377 1404.29,286.044 1406,288.5C 1408.88,282.089 1410.22,275.423 1410,268.5C 1411.29,266.208 1412.96,264.208 1415,262.5C 1415.09,254.89 1418.59,252.39 1425.5,255C 1426.21,256.255 1427.04,257.421 1428,258.5C 1437,256.476 1446.16,254.976 1455.5,254C 1456.33,253.085 1457.33,252.419 1458.5,252C 1466.71,250.29 1475.04,249.29 1483.5,249C 1484.33,248.085 1485.33,247.419 1486.5,247C 1490.5,246.667 1494.5,246.333 1498.5,246C 1499.33,245.085 1500.33,244.419 1501.5,244C 1523.24,242.87 1544.91,241.537 1566.5,240C 1567.33,239.085 1568.33,238.419 1569.5,238C 1595.5,237.398 1621.5,236.732 1647.5,236C 1642.69,227.483 1635.85,221.316 1627,217.5C 1626.16,215.649 1625.33,213.816 1624.5,212C 1618.66,209.168 1613.66,205.168 1609.5,200C 1605.78,196.948 1601.62,194.781 1597,193.5C 1593.79,189.805 1593.12,185.805 1595,181.5C 1596.31,180.427 1597.81,179.76 1599.5,179.5C 1609.43,184.578 1618.43,191.078 1626.5,199C 1630.64,200.637 1633.64,203.47 1635.5,207.5C 1638.63,210.369 1642.3,212.203 1646.5,213C 1647.46,214.419 1648.29,215.919 1649,217.5C 1654.93,223.554 1660.76,229.721 1666.5,236C 1700.73,234.422 1735.07,234.089 1769.5,235C 1771.81,236.971 1774.14,238.971 1776.5,241C 1779.17,242 1781.83,243 1784.5,244C 1790.18,248.834 1796.18,253.168 1802.5,257C 1805.56,257.848 1808.56,258.848 1811.5,260C 1818.81,266.197 1826.14,272.531 1833.5,279C 1838.38,279.272 1842.71,280.939 1846.5,284C 1851.83,288.667 1857.17,293.333 1862.5,298C 1867.91,302.991 1872.75,308.491 1877,314.5C 1878.12,318.475 1879.62,322.308 1881.5,326C 1878.94,332.179 1875.11,333.012 1870,328.5C 1869.42,331.903 1868.26,335.07 1866.5,338C 1861.18,341.109 1855.51,343.442 1849.5,345C 1817.51,346.491 1785.51,346.824 1753.5,346C 1752.17,345.333 1750.83,344.667 1749.5,344C 1734.51,343.154 1719.51,342.487 1704.5,342C 1703.33,341.581 1702.33,340.915 1701.5,340C 1680.17,339.333 1658.83,339.333 1637.5,340C 1635.49,341.713 1633.49,343.379 1631.5,345C 1618.51,347.126 1606.17,351.126 1594.5,357C 1578.93,359.278 1563.26,360.611 1547.5,361C 1544.96,362.665 1542.29,362.832 1539.5,361.5C 1529.8,362.637 1520.3,364.637 1511,367.5C 1510.68,368.908 1511.02,370.241 1512,371.5C 1517.05,375.254 1520.39,380.254 1522,386.5C 1524,387.167 1525.33,388.5 1526,390.5C 1526.99,402.638 1526.33,414.638 1524,426.5C 1521.69,431.4 1519.69,436.4 1518,441.5C 1517.67,447.167 1517.33,452.833 1517,458.5C 1516.33,459.833 1515.67,461.167 1515,462.5C 1512.95,471.774 1511.28,481.107 1510,490.5C 1509.11,518.828 1508.44,547.161 1508,575.5C 1506.52,585.716 1504.19,595.716 1501,605.5C 1499.93,620.814 1499.26,636.147 1499,651.5C 1497.76,658.268 1496.09,664.935 1494,671.5C 1492.05,717.329 1490.22,763.162 1488.5,809C 1488.67,815.833 1488.83,822.667 1489,829.5C 1490.8,830.927 1491.96,832.76 1492.5,835C 1491.77,838.794 1491.27,842.627 1491,846.5C 1490.58,847.672 1489.91,848.672 1489,849.5C 1488.61,855.721 1487.28,861.721 1485,867.5C 1484.67,876.167 1484.33,884.833 1484,893.5C 1481.37,897.629 1477.87,898.462 1473.5,896C 1472.43,894.687 1471.76,893.187 1471.5,891.5C 1472.28,882.528 1472.78,873.528 1473,864.5C 1474.5,859.664 1476,854.831 1477.5,850C 1477.17,849 1476.83,848 1476.5,847C 1477.65,844.361 1478.99,841.861 1480.5,839.5C 1479.91,837.734 1479.08,836.067 1478,834.5C 1477.83,826 1477.67,817.5 1477.5,809C 1479.34,762.58 1480.84,716.08 1482,669.5C 1483.5,664.488 1485,659.488 1486.5,654.5C 1485.24,652.425 1485.41,650.425 1487,648.5C 1486.8,629.67 1488.13,611.003 1491,592.5C 1493.2,586.314 1494.87,579.98 1496,573.5C 1496.33,555.833 1496.67,538.167 1497,520.5C 1498.17,505.902 1499.17,491.236 1500,476.5C 1501.21,469.065 1502.87,461.731 1505,454.5C 1505.44,441.91 1508.27,429.91 1513.5,418.5C 1514.56,410.303 1514.56,401.97 1513.5,393.5C 1510.5,389.497 1508,385.163 1506,380.5C 1497.72,374.954 1490.05,368.621 1483,361.5C 1481.71,355.198 1478.38,350.198 1473,346.5C 1471.92,344.004 1470.59,341.67 1469,339.5C 1463.29,332.826 1457.62,326.159 1452,319.5C 1450.18,314.674 1447.18,310.674 1443,307.5C 1441.41,305.33 1440.08,302.996 1439,300.5C 1433.12,295.113 1427.46,289.446 1422,283.5C 1420.25,287.361 1418.91,291.361 1418,295.5C 1415.27,298.731 1412.11,301.397 1408.5,303.5C 1407.67,319.156 1407.17,334.823 1407,350.5C 1405.71,352.792 1404.04,354.792 1402,356.5C 1401.39,371.951 1400.05,387.284 1398,402.5C 1397.58,403.672 1396.91,404.672 1396,405.5C 1394.63,415.23 1392.96,424.896 1391,434.5C 1390.22,438.307 1388.55,441.64 1386,444.5C 1385.67,449.167 1385.33,453.833 1385,458.5C 1383.13,463.306 1382.13,468.306 1382,473.5C 1381.08,478.14 1379.41,482.473 1377,486.5C 1375.31,507.151 1375.14,527.818 1376.5,548.5C 1378.23,550.283 1379.73,552.283 1381,554.5C 1382.37,579.165 1383.7,603.832 1385,628.5C 1385.67,650.167 1385.67,671.833 1385,693.5C 1384.63,694.91 1383.8,695.91 1382.5,696.5C 1381.8,699.556 1380.97,702.556 1380,705.5C 1377.96,734.064 1376.96,762.731 1377,791.5C 1376.63,792.416 1376.13,793.25 1375.5,794C 1372.67,794.869 1370,796.036 1367.5,797.5C 1370.17,799.5 1372.5,801.833 1374.5,804.5C 1376.34,805.919 1378.34,807.086 1380.5,808C 1383.79,811.659 1387.12,815.326 1390.5,819C 1397.83,824.878 1405.5,830.211 1413.5,835C 1418.64,840.806 1424.14,846.306 1430,851.5C 1431.93,857.098 1435.76,860.598 1441.5,862C 1443.23,863.973 1445.06,865.806 1447,867.5C 1447.89,870.726 1449.22,873.726 1451,876.5C 1457.73,883.645 1464.23,890.979 1470.5,898.5C 1477.49,905.322 1484.66,911.989 1492,918.5C 1495.33,924.477 1499.33,929.81 1504,934.5C 1505.03,937.754 1506.53,940.754 1508.5,943.5C 1512,946.5 1515.5,949.5 1519,952.5C 1523.14,961.454 1527.81,970.12 1533,978.5C 1534.15,979.743 1535.49,980.743 1537,981.5C 1552.33,1003.39 1571.16,1021.56 1593.5,1036C 1595.66,1037.99 1597.66,1040.16 1599.5,1042.5C 1604.74,1043.45 1609.07,1045.95 1612.5,1050C 1616.28,1050.55 1618.95,1052.55 1620.5,1056C 1622.5,1057 1624.5,1058 1626.5,1059C 1619.17,1059.67 1611.83,1059.67 1604.5,1059C 1599.83,1056.67 1595.17,1054.33 1590.5,1052C 1589.5,1050.33 1588.5,1048.67 1587.5,1047C 1578.02,1041.86 1569.69,1035.19 1562.5,1027C 1556.36,1024.36 1551.7,1020.19 1548.5,1014.5C 1546.13,1011.63 1543.29,1009.3 1540,1007.5C 1539.14,1005.91 1538.47,1004.25 1538,1002.5C 1534.01,997.506 1529.67,992.84 1525,988.5C 1519.85,979.532 1514.68,970.532 1509.5,961.5C 1506.49,958.988 1503.66,956.322 1501,953.5C 1490.83,938.009 1479.33,923.509 1466.5,910C 1462,909.5 1459.5,907 1459,902.5C 1449.25,893.648 1440.91,883.648 1434,872.5C 1428.05,869.379 1423.55,864.712 1420.5,858.5C 1413.74,852.911 1407.07,847.078 1400.5,841C 1385.56,832.038 1372.56,821.038 1361.5,808C 1358.83,808 1356.17,808 1353.5,808C 1351.5,807.333 1350.17,806 1349.5,804C 1340.15,803.168 1330.82,803.335 1321.5,804.5C 1320.97,806.741 1319.63,808.241 1317.5,809C 1151.83,809.167 986.166,809.667 820.5,810.5C 819.91,811.799 818.91,812.632 817.5,813C 775.5,813.333 733.5,813.667 691.5,814C 686.833,816 682.167,816 677.5,814C 674.833,811 674.833,808 677.5,805C 680.833,804 684.167,803 687.5,802C 729.833,801.667 772.167,801.333 814.5,801C 815.551,799.615 816.884,798.615 818.5,798C 978.834,797.833 1139.17,797.333 1299.5,796.5C 1300.09,795.201 1301.09,794.368 1302.5,794C 1268.83,793.667 1235.17,793.333 1201.5,793C 1200.09,792.632 1199.09,791.799 1198.5,790.5C 1032.83,789.667 867.168,789.167 701.5,789C 699.365,788.241 698.032,786.741 697.5,784.5C 687.517,783.668 677.517,783.168 667.5,783C 664.557,782.058 661.724,780.892 659,779.5C 658.667,785.167 658.333,790.833 658,796.5C 654.667,801.833 651.333,801.833 648,796.5C 647.831,789.476 647.331,782.476 646.5,775.5C 644.259,774.968 642.759,773.635 642,771.5C 642.044,742.731 641.044,714.064 639,685.5C 638.03,682.556 637.196,679.556 636.5,676.5C 635.201,675.91 634.368,674.91 634,673.5C 633.333,651.833 633.333,630.167 634,608.5C 635.296,583.832 636.63,559.165 638,534.5C 640.861,531.051 642.695,527.217 643.5,523C 643,517.5 642.5,512 642,506.5C 639.591,502.473 637.925,498.14 637,493.5C 634.743,483.975 633.409,474.308 633,464.5C 630.446,461.64 628.779,458.307 628,454.5C 626.035,444.896 624.369,435.23 623,425.5C 622.085,424.672 621.419,423.672 621,422.5C 618.947,407.284 617.614,391.951 617,376.5C 614.957,374.792 613.29,372.792 612,370.5C 611.833,354.823 611.333,339.156 610.5,323.5C 606.894,321.397 603.727,318.731 601,315.5C 600.088,311.361 598.754,307.361 597,303.5C 592.292,308.376 587.459,313.043 582.5,317.5C 578.963,323.895 574.463,329.562 569,334.5C 568.529,336.246 567.862,337.913 567,339.5C 561.379,346.159 555.712,352.826 550,359.5C 546.84,365.104 542.84,370.104 538,374.5C 537.71,376.952 537.044,379.285 536,381.5C 528.951,388.621 521.284,394.954 513,400.5C 508.68,407.439 505.846,414.772 504.5,422.5C 504.302,426.84 504.969,431.007 506.5,435C 506.089,436.144 505.756,437.311 505.5,438.5C 510.726,449.91 513.559,461.91 514,474.5C 516.128,481.731 517.795,489.065 519,496.5C 519.833,511.236 520.833,525.902 522,540.5C 522.333,558.167 522.667,575.833 523,593.5C 524.135,599.98 525.802,606.314 528,612.5C 530.866,631.003 532.199,649.67 532,668.5C 533.595,670.425 533.762,672.425 532.5,674.5C 533.999,679.488 535.499,684.488 537,689.5C 538.158,736.08 539.658,782.58 541.5,829C 541.333,837.5 541.167,846 541,854.5C 539.924,856.067 539.091,857.734 538.5,859.5C 540.012,861.861 541.346,864.361 542.5,867C 542.167,868 541.833,869 541.5,870C 543,874.831 544.5,879.664 546,884.5C 546.221,893.528 546.721,902.528 547.5,911.5C 545.428,917.622 541.595,918.955 536,915.5C 534.72,906.267 534.053,896.934 534,887.5C 531.722,881.721 530.389,875.721 530,869.5C 529.085,868.672 528.419,867.672 528,866.5C 527.73,862.627 527.23,858.794 526.5,855C 527.036,852.76 528.203,850.927 530,849.5C 530.167,842.667 530.333,835.833 530.5,829C 528.782,783.162 526.949,737.329 525,691.5C 522.906,684.935 521.24,678.268 520,671.5C 519.737,656.147 519.07,640.814 518,625.5C 514.813,615.716 512.479,605.716 511,595.5C 510.555,567.161 509.889,538.828 509,510.5C 507.722,501.107 506.055,491.774 504,482.5C 503.333,481.167 502.667,479.833 502,478.5C 501.667,472.833 501.333,467.167 501,461.5C 499.312,456.4 497.312,451.4 495,446.5C 492.672,434.638 492.005,422.638 493,410.5C 493.667,408.5 495,407.167 497,406.5C 498.612,400.254 501.946,395.254 507,391.5C 507.982,390.241 508.315,388.908 508,387.5C 498.704,384.637 489.204,382.637 479.5,381.5C 476.705,382.832 474.039,382.665 471.5,381C 455.736,380.611 440.07,379.278 424.5,377C 412.826,371.126 400.493,367.126 387.5,365C 385.507,363.379 383.507,361.713 381.5,360C 360.167,359.333 338.833,359.333 317.5,360C 316.672,360.915 315.672,361.581 314.5,362C 299.492,362.487 284.492,363.154 269.5,364C 268.167,364.667 266.833,365.333 265.5,366C 233.486,366.824 201.486,366.491 169.5,365C 163.488,363.442 157.821,361.109 152.5,358C 150.745,355.07 149.578,351.903 149,348.5C 143.889,353.012 140.056,352.179 137.5,346C 139.38,342.308 140.88,338.475 142,334.5C 144.381,331.493 146.714,328.493 149,325.5C 158.24,315.93 168.406,307.43 179.5,300C 181.5,299.667 183.5,299.333 185.5,299C 192.856,292.531 200.189,286.197 207.5,280C 210.44,278.848 213.44,277.848 216.5,277C 222.819,273.168 228.819,268.834 234.5,264C 237.167,263 239.833,262 242.5,261C 244.858,258.971 247.192,256.971 249.5,255C 283.934,254.089 318.268,254.422 352.5,256C 358.235,249.721 364.069,243.554 370,237.5C 370.707,235.919 371.54,234.419 372.5,233C 379.298,230.936 384.632,226.936 388.5,221C 393.084,218.42 397.084,215.087 400.5,211C 406.907,207.137 413.24,203.304 419.5,199.5C 423.167,199.833 425.167,201.833 425.5,205.5C 424.611,208.279 423.444,210.945 422,213.5C 417.382,214.781 413.216,216.948 409.5,220C 405.343,225.168 400.343,229.168 394.5,232C 393.671,233.816 392.837,235.649 392,237.5C 383.146,241.316 376.313,247.483 371.5,256C 397.498,256.732 423.498,257.398 449.5,258C 450.672,258.419 451.672,259.085 452.5,260C 474.092,261.537 495.758,262.87 517.5,264C 518.672,264.419 519.672,265.085 520.5,266C 524.5,266.333 528.5,266.667 532.5,267C 533.672,267.419 534.672,268.085 535.5,269C 543.96,269.29 552.293,270.29 560.5,272C 561.672,272.419 562.672,273.085 563.5,274C 572.836,274.976 582.003,276.476 591,278.5C 593.609,273.432 597.276,272.432 602,275.5C 603.044,277.715 603.71,280.048 604,282.5C 608.336,285.154 609.836,288.821 608.5,293.5C 610.033,298.546 611.533,303.546 613,308.5C 614.711,306.044 616.044,303.377 617,300.5C 621.672,297.377 625.172,298.377 627.5,303.5C 630.506,304.748 633.506,304.748 636.5,303.5C 637.332,294.852 637.832,286.186 638,277.5C 639.039,275.254 640.206,273.087 641.5,271C 644.167,270 646.833,269 649.5,268C 704.59,267.981 759.59,266.981 814.5,265C 815.728,262.86 817.395,261.193 819.5,260C 835.163,259.5 850.83,259.333 866.5,259.5C 865.778,242.837 865.611,226.17 866,209.5C 869.575,197.475 873.242,185.475 877,173.5C 876.619,168.544 878.119,164.377 881.5,161C 882.871,157.607 883.871,154.107 884.5,150.5C 880.333,150.167 876.167,149.833 872,149.5C 867.056,149.388 862.223,149.888 857.5,151C 826.5,151.333 795.5,151.667 764.5,152C 763.449,153.385 762.116,154.385 760.5,155C 715.5,155.667 670.5,155.667 625.5,155C 621.287,152.427 620.12,148.927 622,144.5C 623.194,143.57 624.527,142.903 626,142.5C 670.142,143.825 714.308,143.825 758.5,142.5C 759.09,141.201 760.09,140.368 761.5,140C 791.5,139.667 821.5,139.333 851.5,139C 857.73,137.873 864.063,137.373 870.5,137.5C 876.548,137.52 882.548,137.854 888.5,138.5C 892.518,135.17 894.685,130.837 895,125.5C 897.462,124.35 899.796,123.017 902,121.5C 904.606,116.565 907.606,111.898 911,107.5C 912.586,106.624 914.086,105.624 915.5,104.5C 918.209,99.6028 921.542,95.1028 925.5,91C 944.552,77.9283 963.886,65.4283 983.5,53.5 Z M 953.5,87.5 C 955.379,87.3932 955.712,87.8932 954.5,89C 951.125,89.6316 950.791,89.1316 953.5,87.5 Z M 1125.5,149.5 C 1128.58,151.737 1130.08,154.737 1130,158.5C 1127.33,156.021 1125.83,153.021 1125.5,149.5 Z M 1868.5,326.5 C 1862.8,323.275 1858.14,324.441 1854.5,330C 1851.59,331.286 1848.59,332.286 1845.5,333C 1815.94,335.46 1786.27,336.126 1756.5,335C 1755.67,334.085 1754.67,333.419 1753.5,333C 1738.27,331.23 1722.94,330.23 1707.5,330C 1706.67,329.085 1705.67,328.419 1704.5,328C 1681.17,327.333 1657.83,327.333 1634.5,328C 1624.26,333.98 1613.26,337.98 1601.5,340C 1597.48,340.919 1593.82,342.586 1590.5,345C 1575.32,347.553 1559.99,348.886 1544.5,349C 1531.73,350.344 1519.07,352.344 1506.5,355C 1505.58,355.374 1504.75,355.874 1504,356.5C 1503.09,358.664 1501.92,360.664 1500.5,362.5C 1499.51,358.847 1497.35,356.18 1494,354.5C 1492.94,351.382 1491.61,348.382 1490,345.5C 1487.04,343.539 1484.37,341.206 1482,338.5C 1470.67,323.167 1459.33,307.833 1448,292.5C 1441.6,284.936 1434.77,277.936 1427.5,271.5C 1429.11,270.573 1430.78,269.739 1432.5,269C 1442.9,268.661 1452.9,266.661 1462.5,263C 1470.15,262.181 1477.82,261.514 1485.5,261C 1486.67,260.581 1487.67,259.915 1488.5,259C 1493.5,258.667 1498.5,258.333 1503.5,258C 1504.67,257.581 1505.67,256.915 1506.5,256C 1528.03,253.383 1549.7,252.05 1571.5,252C 1572.67,251.581 1573.67,250.915 1574.5,250C 1638.07,247.193 1701.74,246.193 1765.5,247C 1767.56,251.032 1770.89,253.032 1775.5,253C 1780.91,259.039 1787.57,263.039 1795.5,265C 1800.73,268.739 1806.06,272.239 1811.5,275.5C 1812.66,278.755 1814.99,280.588 1818.5,281C 1823.78,286.828 1830.12,290.661 1837.5,292.5C 1838.62,293.914 1839.62,295.414 1840.5,297C 1845.58,301.054 1850.91,304.887 1856.5,308.5C 1859.73,311.943 1862.73,315.61 1865.5,319.5C 1866.79,321.739 1867.79,324.072 1868.5,326.5 Z M 150.5,346.5 C 151.212,344.072 152.212,341.739 153.5,339.5C 156.271,335.61 159.271,331.943 162.5,328.5C 168.085,324.887 173.419,321.054 178.5,317C 179.376,315.414 180.376,313.914 181.5,312.5C 188.883,310.661 195.216,306.828 200.5,301C 204.007,300.588 206.34,298.755 207.5,295.5C 212.94,292.239 218.273,288.739 223.5,285C 231.428,283.039 238.095,279.039 243.5,273C 248.11,273.032 251.444,271.032 253.5,267C 317.264,266.193 380.931,267.193 444.5,270C 445.328,270.915 446.328,271.581 447.5,272C 469.3,272.05 490.967,273.383 512.5,276C 513.328,276.915 514.328,277.581 515.5,278C 520.5,278.333 525.5,278.667 530.5,279C 531.328,279.915 532.328,280.581 533.5,281C 545.911,281.036 557.911,283.036 569.5,287C 575.143,287.864 580.81,288.531 586.5,289C 588.221,289.739 589.887,290.573 591.5,291.5C 584.232,297.936 577.399,304.936 571,312.5C 559.667,327.833 548.333,343.167 537,358.5C 534.629,361.206 531.963,363.539 529,365.5C 527.392,368.382 526.059,371.382 525,374.5C 521.655,376.18 519.488,378.847 518.5,382.5C 517.081,380.664 515.914,378.664 515,376.5C 514.25,375.874 513.416,375.374 512.5,375C 488.352,370.765 464.019,368.098 439.5,367C 435.954,365.826 432.287,365.16 428.5,365C 426.833,364 425.167,363 423.5,362C 409.87,358.948 396.87,354.281 384.5,348C 361.167,347.333 337.833,347.333 314.5,348C 313.328,348.419 312.328,349.085 311.5,350C 296.06,350.23 280.726,351.23 265.5,353C 264.328,353.419 263.328,354.085 262.5,355C 232.726,356.126 203.06,355.46 173.5,353C 167.518,352.018 162.518,349.352 158.5,345C 155.593,344.282 152.926,344.782 150.5,346.5 Z M 822.5,271.5 C 837.167,271.5 851.833,271.5 866.5,271.5C 866.501,279.517 866.834,287.517 867.5,295.5C 812.49,295.154 757.49,295.654 702.5,297C 691.937,298.572 681.271,299.572 670.5,300C 669.167,300.667 667.833,301.333 666.5,302C 660.843,302.499 655.176,302.666 649.5,302.5C 649.334,296.158 649.5,289.825 650,283.5C 650.465,282.069 651.299,280.903 652.5,280C 707.257,279.978 761.923,278.978 816.5,277C 818.996,275.669 820.996,273.836 822.5,271.5 Z M 1380.5,295.5 C 1384.57,295.766 1388.57,295.433 1392.5,294.5C 1393.32,297.447 1393.82,300.447 1394,303.5C 1394.42,304.672 1395.09,305.672 1396,306.5C 1396.67,319.833 1396.67,333.167 1396,346.5C 1393.67,347.5 1392,349.167 1391,351.5C 1389,364.371 1388,377.371 1388,390.5C 1385.58,398.676 1383.58,407.009 1382,415.5C 1381.82,375.459 1381.32,335.459 1380.5,295.5 Z M 625.5,314.5 C 629.434,315.36 633.434,315.693 637.5,315.5C 637.333,346.168 637.5,376.835 638,407.5C 638.93,410.362 640.597,412.695 643,414.5C 643.667,428.5 643.667,442.5 643,456.5C 642.385,454.884 641.385,453.551 640,452.5C 638.08,441.465 636.08,430.465 634,419.5C 633.581,418.328 632.915,417.328 632,416.5C 631.153,401.414 629.819,386.414 628,371.5C 627,369.167 625.333,367.5 623,366.5C 622.333,353.167 622.333,339.833 623,326.5C 625.243,322.869 626.077,318.869 625.5,314.5 Z M 646.5,609.5 C 647.662,629.329 647.829,649.329 647,669.5C 645.844,659.822 645.344,649.988 645.5,640C 645.524,629.789 645.857,619.622 646.5,609.5 Z M 1371.5,629.5 C 1372.22,629.918 1372.72,630.584 1373,631.5C 1373.17,641 1373.33,650.5 1373.5,660C 1373.66,669.988 1373.16,679.822 1372,689.5C 1371.5,669.503 1371.33,649.503 1371.5,629.5 Z"/></g>
<g><path style="opacity:0.925" fill="#fefffe" d="M 779.5,183.5 C 808.169,183.333 836.835,183.5 865.5,184C 870.833,187.667 870.833,191.333 865.5,195C 781.586,197 697.586,198 613.5,198C 599.495,199.267 585.495,200.6 571.5,202C 568.167,203 564.833,204 561.5,205C 538.833,205.333 516.167,205.667 493.5,206C 490.833,207 488.167,208 485.5,209C 479.141,209.169 472.807,209.669 466.5,210.5C 465.91,211.799 464.91,212.632 463.5,213C 454.662,213.59 445.996,215.09 437.5,217.5C 430.155,216.973 428.155,213.473 431.5,207C 439.604,204.038 447.938,202.038 456.5,201C 458.001,199.748 459.668,198.748 461.5,198C 468.5,197.667 475.5,197.333 482.5,197C 484.833,196 487.167,195 489.5,194C 512.167,193.667 534.833,193.333 557.5,193C 560.833,192 564.167,191 567.5,190C 581.5,188.667 595.5,187.333 609.5,186C 665.5,185.667 721.5,185.333 777.5,185C 778.416,184.722 779.082,184.222 779.5,183.5 Z"/></g>
<g><path style="opacity:0.917" fill="#fefffe" d="M 1881.5,338.5 C 1883.94,338.317 1886.1,338.984 1888,340.5C 1889.5,344.039 1889.84,347.705 1889,351.5C 1883.31,361.553 1878.98,372.22 1876,383.5C 1868.1,386.867 1864.77,384.2 1866,375.5C 1868.01,365.752 1871.68,356.752 1877,348.5C 1876.74,344.214 1878.24,340.88 1881.5,338.5 Z"/></g>
<g><path style="opacity:0.917" fill="#fefffe" d="M 133.5,358.5 C 139.79,358.692 142.623,362.025 142,368.5C 147.752,377.686 151.585,387.686 153.5,398.5C 152.361,405.153 148.861,406.82 143,403.5C 140.022,392.22 135.688,381.553 130,371.5C 129.333,368.5 129.333,365.5 130,362.5C 130.69,360.65 131.856,359.316 133.5,358.5 Z"/></g>
<g><path style="opacity:0.942" fill="#fefffe" d="M 1999.5,469.5 C 1999.5,479.833 1999.5,490.167 1999.5,500.5C 1998.04,503.203 1997.2,506.203 1997,509.5C 1995.38,511.493 1993.71,513.493 1992,515.5C 1991.51,520.136 1990.17,524.469 1988,528.5C 1987.05,530.455 1985.71,532.122 1984,533.5C 1983.46,536.529 1982.79,539.529 1982,542.5C 1975.97,554.252 1971.3,566.585 1968,579.5C 1966.33,582.5 1964.67,585.5 1963,588.5C 1962.81,594.184 1961.48,599.517 1959,604.5C 1958.67,611.833 1958.33,619.167 1958,626.5C 1956.81,628.605 1955.14,630.272 1953,631.5C 1950.59,640.15 1948.26,648.816 1946,657.5C 1944.33,659.833 1942.67,662.167 1941,664.5C 1940.67,667.167 1940.33,669.833 1940,672.5C 1934.77,684.919 1930.77,697.586 1928,710.5C 1924,722.402 1920,734.402 1916,746.5C 1909.19,757.855 1905.19,770.189 1904,783.5C 1900.85,786.652 1898.51,790.319 1897,794.5C 1895.12,800.716 1893.79,807.05 1893,813.5C 1890.92,817.152 1889.92,821.152 1890,825.5C 1885.59,831.054 1882.92,837.387 1882,844.5C 1877.68,850.138 1875.34,856.471 1875,863.5C 1873.71,865.792 1872.04,867.792 1870,869.5C 1869.75,872.754 1868.75,875.754 1867,878.5C 1866.67,881.5 1866.33,884.5 1866,887.5C 1863.88,892.462 1861.88,897.462 1860,902.5C 1858.6,908.533 1857.26,914.533 1856,920.5C 1852.14,928.546 1848.81,936.879 1846,945.5C 1843.46,953.213 1841.79,961.213 1841,969.5C 1836.44,976.8 1833.77,984.8 1833,993.5C 1831.32,999.582 1829.32,1005.58 1827,1011.5C 1826.67,1014.5 1826.33,1017.5 1826,1020.5C 1824.29,1022.96 1822.96,1025.62 1822,1028.5C 1821.27,1034.83 1820.6,1041.16 1820,1047.5C 1818.39,1051.71 1816.56,1055.71 1814.5,1059.5C 1809.79,1059.83 1805.12,1059.49 1800.5,1058.5C 1802.77,1053.73 1805.27,1049.06 1808,1044.5C 1809.3,1035.87 1810.64,1027.2 1812,1018.5C 1812.42,1017.33 1813.09,1016.33 1814,1015.5C 1815.47,1006.97 1817.47,998.636 1820,990.5C 1820.47,989.069 1821.3,987.903 1822.5,987C 1821.98,986.439 1821.64,985.772 1821.5,985C 1823.02,981.338 1823.86,977.505 1824,973.5C 1825.67,971.167 1827.33,968.833 1829,966.5C 1829.2,963.308 1830.03,960.308 1831.5,957.5C 1830.26,954.291 1831.09,951.624 1834,949.5C 1835.35,942.104 1837.02,934.771 1839,927.5C 1842.16,921.851 1844.16,915.851 1845,909.5C 1847.32,902.191 1849.65,894.857 1852,887.5C 1854.94,884.116 1856.27,880.116 1856,875.5C 1856.83,873.833 1857.67,872.167 1858.5,870.5C 1857.57,869.232 1857.41,867.899 1858,866.5C 1859.63,863.872 1861.63,861.539 1864,859.5C 1863.1,852.613 1865.1,846.613 1870,841.5C 1871.16,837.877 1872.16,834.211 1873,830.5C 1875.37,827.392 1877.37,824.059 1879,820.5C 1881.38,809.11 1884.04,797.777 1887,786.5C 1888.29,784.208 1889.96,782.208 1892,780.5C 1892.33,777.5 1892.67,774.5 1893,771.5C 1895.83,764.814 1897.83,757.814 1899,750.5C 1904.41,744.226 1907.41,736.892 1908,728.5C 1910.41,721.36 1913.07,714.36 1916,707.5C 1916.19,701.168 1917.52,695.168 1920,689.5C 1925.66,674.757 1931.33,660.091 1937,645.5C 1938.2,636.911 1941.2,628.911 1946,621.5C 1946.33,615.5 1946.67,609.5 1947,603.5C 1948.64,601.757 1948.8,599.923 1947.5,598C 1948.04,595.76 1949.2,593.927 1951,592.5C 1950.29,586.099 1952.29,580.766 1957,576.5C 1956.81,571.648 1958.14,567.315 1961,563.5C 1963.16,553.185 1966.99,543.518 1972.5,534.5C 1971.36,530.754 1972.53,527.754 1976,525.5C 1976.33,523.5 1976.67,521.5 1977,519.5C 1980.86,510.904 1984.53,502.237 1988,493.5C 1991.15,489.794 1992.31,485.461 1991.5,480.5C 1940.83,480.333 1890.17,480.5 1839.5,481C 1838.67,481.915 1837.67,482.581 1836.5,483C 1813.17,483.667 1789.83,483.667 1766.5,483C 1764.56,481.58 1762.72,480.08 1761,478.5C 1758.63,479.717 1756.13,480.551 1753.5,481C 1728.96,483.93 1704.3,484.93 1679.5,484C 1674.17,480.667 1674.17,477.333 1679.5,474C 1689.83,473.667 1700.17,473.333 1710.5,473C 1727.58,471.923 1744.58,470.089 1761.5,467.5C 1763.83,467.667 1766.17,467.833 1768.5,468C 1769.91,468.368 1770.91,469.201 1771.5,470.5C 1791.83,471.666 1812.16,471.833 1832.5,471C 1833.33,470.085 1834.33,469.419 1835.5,469C 1882.83,468.667 1930.17,468.333 1977.5,468C 1967.45,460.603 1957.45,453.27 1947.5,446C 1939.7,443.246 1932.03,440.246 1924.5,437C 1922.09,433.551 1918.75,431.551 1914.5,431C 1913.43,427.841 1911.43,425.507 1908.5,424C 1904.02,421.867 1899.35,420.2 1894.5,419C 1888.33,415.404 1882.66,411.071 1877.5,406C 1870.33,402.827 1863.66,398.827 1857.5,394C 1833.08,394.016 1808.74,395.016 1784.5,397C 1783.45,398.385 1782.12,399.385 1780.5,400C 1705.83,400.667 1631.17,400.667 1556.5,400C 1551.17,396.667 1551.17,393.333 1556.5,390C 1629.5,389.667 1702.5,389.333 1775.5,389C 1776.88,387.287 1778.54,385.953 1780.5,385C 1807.25,384.202 1833.92,383.202 1860.5,382C 1866.79,386.097 1873.46,389.43 1880.5,392C 1884.9,397.707 1890.56,401.707 1897.5,404C 1898.5,405.667 1899.83,407 1901.5,408C 1908.4,410.785 1915.07,414.119 1921.5,418C 1922.17,419 1922.83,420 1923.5,421C 1928.52,424.032 1933.52,427.032 1938.5,430C 1945.82,432.994 1953.16,435.994 1960.5,439C 1962.98,442.465 1966.31,444.798 1970.5,446C 1973.75,449.316 1977.08,452.65 1980.5,456C 1985.39,458.294 1990.05,460.961 1994.5,464C 1995.71,466.375 1997.38,468.209 1999.5,469.5 Z"/></g>
<g><path style="opacity:0.941" fill="#fefffe" d="M 218.5,1079.5 C 213.833,1079.5 209.167,1079.5 204.5,1079.5C 202.444,1075.71 200.61,1071.71 199,1067.5C 198.399,1061.16 197.733,1054.83 197,1048.5C 196.044,1045.62 194.711,1042.96 193,1040.5C 193.109,1034.74 191.776,1029.41 189,1024.5C 186.636,1016 184.636,1007.33 183,998.5C 181.333,995.5 179.667,992.5 178,989.5C 177.21,981.213 175.543,973.213 173,965.5C 170.19,956.879 166.857,948.546 163,940.5C 161.736,934.533 160.403,928.533 159,922.5C 157.124,917.462 155.124,912.462 153,907.5C 152.667,904.5 152.333,901.5 152,898.5C 150.25,895.754 149.25,892.754 149,889.5C 144.227,885.678 142.227,880.678 143,874.5C 141.37,870.941 139.37,867.608 137,864.5C 136.077,857.387 133.41,851.054 129,845.5C 129.082,841.152 128.082,837.152 126,833.5C 125.215,827.05 123.882,820.716 122,814.5C 120.487,810.319 118.154,806.652 115,803.5C 113.806,790.189 109.806,777.855 103,766.5C 98.9984,754.402 94.9984,742.402 91,730.5C 88.2332,717.586 84.2332,704.919 79,692.5C 78.6667,689.833 78.3333,687.167 78,684.5C 76.3333,682.167 74.6667,679.833 73,677.5C 70.7385,668.816 68.4052,660.15 66,651.5C 63.8601,650.272 62.1934,648.605 61,646.5C 60.6667,639.167 60.3333,631.833 60,624.5C 57.5233,619.517 56.19,614.184 56,608.5C 52.6278,604.083 50.6278,599.083 50,593.5C 45.3824,583.267 41.049,572.934 37,562.5C 36.2057,559.529 35.539,556.529 35,553.5C 33.2866,552.122 31.9533,550.455 31,548.5C 28.8254,544.469 27.492,540.136 27,535.5C 25.2873,533.493 23.6207,531.493 22,529.5C 21.3836,523.316 19.3836,517.649 16,512.5C 14.9658,505.633 15.6325,498.967 18,492.5C 22.9969,484.848 29.8302,479.348 38.5,476C 43.9141,470.398 49.9141,465.732 56.5,462C 57.1667,461 57.8333,460 58.5,459C 65.8433,455.994 73.1767,452.994 80.5,450C 85.4797,447.032 90.4797,444.032 95.5,441C 96.1667,440 96.8333,439 97.5,438C 109.137,431.957 120.471,425.624 131.5,419C 134.5,417.333 136.833,415 138.5,412C 145.54,409.43 152.207,406.097 158.5,402C 185.08,403.202 211.746,404.202 238.5,405C 240.455,405.953 242.122,407.287 243.5,409C 316.5,409.333 389.5,409.667 462.5,410C 467.833,413.333 467.833,416.667 462.5,420C 387.833,420.667 313.167,420.667 238.5,420C 236.884,419.385 235.551,418.385 234.5,417C 210.258,415.016 185.925,414.016 161.5,414C 155.337,418.827 148.671,422.827 141.5,426C 136.338,431.071 130.671,435.404 124.5,439C 118.492,441.087 112.659,443.587 107,446.5C 105.772,450.704 102.939,452.87 98.5,453C 96.8333,454 95.5,455.333 94.5,457C 84.949,460.441 75.6157,464.441 66.5,469C 65.8333,470 65.1667,471 64.5,472C 56.3097,476.594 48.643,481.927 41.5,488C 88.8333,488.333 136.167,488.667 183.5,489C 184.672,489.419 185.672,490.085 186.5,491C 206.842,491.833 227.175,491.666 247.5,490.5C 248.09,489.201 249.09,488.368 250.5,488C 252.833,487.833 255.167,487.667 257.5,487.5C 274.421,490.089 291.421,491.923 308.5,493C 318.833,493.333 329.167,493.667 339.5,494C 344.833,497.333 344.833,500.667 339.5,504C 314.702,504.93 290.035,503.93 265.5,501C 262.868,500.551 260.368,499.717 258,498.5C 256.277,500.08 254.444,501.58 252.5,503C 229.167,503.667 205.833,503.667 182.5,503C 181.328,502.581 180.328,501.915 179.5,501C 128.834,500.5 78.1678,500.333 27.5,500.5C 26.6866,505.461 27.8533,509.794 31,513.5C 34.4689,522.237 38.1356,530.904 42,539.5C 42.3333,541.5 42.6667,543.5 43,545.5C 46.4723,547.754 47.639,550.754 46.5,554.5C 52.0106,563.518 55.8439,573.185 58,583.5C 60.8596,587.315 62.1929,591.648 62,596.5C 66.7069,600.766 68.7069,606.099 68,612.5C 70.9099,614.624 71.7432,617.291 70.5,620.5C 71,621.5 71.5,622.5 72,623.5C 72.3333,629.5 72.6667,635.5 73,641.5C 77.8006,648.911 80.8006,656.911 82,665.5C 83.6589,671.864 86.3255,677.864 90,683.5C 90.3333,686.167 90.6667,688.833 91,691.5C 94.8306,700.555 98.4973,709.555 102,718.5C 102.333,721.5 102.667,724.5 103,727.5C 105.926,734.36 108.592,741.36 111,748.5C 111.589,756.892 114.589,764.226 120,770.5C 121.172,777.814 123.172,784.814 126,791.5C 126.333,794.5 126.667,797.5 127,800.5C 129.043,802.208 130.71,804.208 132,806.5C 134.955,817.777 137.622,829.11 140,840.5C 141.63,844.059 143.63,847.392 146,850.5C 146.844,854.211 147.844,857.877 149,861.5C 153.901,866.613 155.901,872.613 155,879.5C 157.948,881.775 160.114,884.609 161.5,888C 160.549,890.663 161.049,893.163 163,895.5C 162.729,900.116 164.063,904.116 167,907.5C 169.35,914.857 171.684,922.191 174,929.5C 174.837,935.851 176.837,941.851 180,947.5C 181.985,954.771 183.651,962.104 185,969.5C 187.91,971.624 188.743,974.291 187.5,977.5C 188.97,980.308 189.803,983.308 190,986.5C 191.667,988.833 193.333,991.167 195,993.5C 195.145,997.505 195.978,1001.34 197.5,1005C 197.355,1005.77 197.022,1006.44 196.5,1007C 197.701,1007.9 198.535,1009.07 199,1010.5C 201.528,1018.64 203.528,1026.97 205,1035.5C 205.915,1036.33 206.581,1037.33 207,1038.5C 208.363,1047.2 209.697,1055.87 211,1064.5C 214.054,1069.27 216.554,1074.27 218.5,1079.5 Z"/></g>
<g><path style="opacity:0.952" fill="#fefffe" d="M 1547.5,401.5 C 1555.59,402.545 1562.25,406.212 1567.5,412.5C 1573.29,415.793 1578.96,419.293 1584.5,423C 1589.43,428.768 1595.1,433.601 1601.5,437.5C 1604.71,439.274 1608.05,440.774 1611.5,442C 1612.29,443.085 1612.96,444.252 1613.5,445.5C 1620.58,449.372 1626.91,454.205 1632.5,460C 1635.5,461 1638.5,462 1641.5,463C 1644.68,466.349 1648.02,469.516 1651.5,472.5C 1655.64,474.571 1659.97,476.071 1664.5,477C 1666.33,477.5 1667.5,478.667 1668,480.5C 1668.33,491.5 1668.67,502.5 1669,513.5C 1670.71,514.878 1672.05,516.545 1673,518.5C 1673.33,526.833 1673.67,535.167 1674,543.5C 1674.64,544.609 1675.14,545.775 1675.5,547C 1674.86,553.298 1674.53,559.632 1674.5,566C 1676.47,594.073 1676.97,622.24 1676,650.5C 1674.29,652.956 1672.96,655.623 1672,658.5C 1670.98,667.247 1669.64,675.914 1668,684.5C 1667.58,685.672 1666.91,686.672 1666,687.5C 1665.71,706.106 1663.71,724.44 1660,742.5C 1659.28,764.264 1657.94,785.93 1656,807.5C 1655.58,808.672 1654.91,809.672 1654,810.5C 1652.88,834.242 1651.54,857.909 1650,881.5C 1649.97,938.922 1648.97,996.256 1647,1053.5C 1645.44,1055.22 1644.61,1057.22 1644.5,1059.5C 1640.83,1059.5 1637.17,1059.5 1633.5,1059.5C 1633.06,1056.11 1633.9,1053.11 1636,1050.5C 1636.95,993.503 1637.62,936.503 1638,879.5C 1639.11,874.609 1639.61,869.609 1639.5,864.5C 1639.46,859.63 1639.13,854.796 1638.5,850C 1638.86,848.775 1639.36,847.609 1640,846.5C 1640.31,832.727 1641.31,819.061 1643,805.5C 1645.74,799.616 1646.24,793.449 1644.5,787C 1644.86,785.775 1645.36,784.609 1646,783.5C 1646.33,775.5 1646.67,767.5 1647,759.5C 1650.66,733.648 1653.32,707.648 1655,681.5C 1657.5,679.011 1658,676.178 1656.5,673C 1659.67,665.853 1661.5,658.353 1662,650.5C 1662.42,649.328 1663.09,648.328 1664,647.5C 1665.06,605.373 1663.89,563.373 1660.5,521.5C 1659.2,520.91 1658.37,519.91 1658,518.5C 1657.67,508.833 1657.33,499.167 1657,489.5C 1654.02,485.924 1650.19,483.758 1645.5,483C 1640.24,477.074 1633.91,472.74 1626.5,470C 1620.92,463.869 1614.25,459.202 1606.5,456C 1602.24,451.665 1597.24,448.331 1591.5,446C 1587.82,440.649 1582.82,436.983 1576.5,435C 1571.92,428.766 1565.92,424.432 1558.5,422C 1557.33,418.833 1555.17,416.667 1552,415.5C 1549.89,431.78 1546.89,447.78 1543,463.5C 1541.5,494.819 1541.17,526.152 1542,557.5C 1543.38,558.551 1544.38,559.884 1545,561.5C 1545.33,601.833 1545.67,642.167 1546,682.5C 1546.9,689.382 1548.07,696.215 1549.5,703C 1549.26,703.873 1548.93,704.707 1548.5,705.5C 1549.93,708.626 1551.26,711.793 1552.5,715C 1551.67,766.471 1551.17,817.971 1551,869.5C 1550.58,870.672 1549.91,871.672 1549,872.5C 1548.13,891.919 1546.79,911.253 1545,930.5C 1544.58,931.672 1543.91,932.672 1543,933.5C 1541.72,944.553 1540.39,955.553 1539,966.5C 1535.67,971.833 1532.33,971.833 1529,966.5C 1527.98,953.312 1528.98,940.312 1532,927.5C 1532.42,926.328 1533.09,925.328 1534,924.5C 1534.93,909.512 1535.59,894.512 1536,879.5C 1537.75,876.761 1537.91,873.927 1536.5,871C 1537.04,868.76 1538.2,866.927 1540,865.5C 1540.67,815.833 1540.67,766.167 1540,716.5C 1536.27,706.89 1534.6,696.89 1535,686.5C 1534.67,646.167 1534.33,605.833 1534,565.5C 1532,564.833 1530.67,563.5 1530,561.5C 1528.6,522.702 1529.6,484.035 1533,445.5C 1536.91,436.001 1538.91,426.001 1539,415.5C 1540.64,412.283 1541.97,408.95 1543,405.5C 1544.4,403.93 1545.9,402.596 1547.5,401.5 Z"/></g>
<g><path style="opacity:0.952" fill="#fefffe" d="M 385.5,1079.5 C 381.833,1079.5 378.167,1079.5 374.5,1079.5C 374.392,1077.22 373.559,1075.22 372,1073.5C 370.033,1016.26 369.033,958.922 369,901.5C 367.457,877.909 366.124,854.242 365,830.5C 364.085,829.672 363.419,828.672 363,827.5C 361.056,805.93 359.723,784.264 359,762.5C 355.29,744.44 353.29,726.106 353,707.5C 352.085,706.672 351.419,705.672 351,704.5C 349.357,695.914 348.023,687.247 347,678.5C 346.044,675.623 344.711,672.956 343,670.5C 342.035,642.24 342.535,614.073 344.5,586C 344.471,579.632 344.138,573.298 343.5,567C 343.862,565.775 344.362,564.609 345,563.5C 345.333,555.167 345.667,546.833 346,538.5C 346.953,536.545 348.287,534.878 350,533.5C 350.333,522.5 350.667,511.5 351,500.5C 351.5,498.667 352.667,497.5 354.5,497C 359.026,496.071 363.36,494.571 367.5,492.5C 370.985,489.516 374.318,486.349 377.5,483C 383.813,482.513 388.48,479.513 391.5,474C 396.59,471.718 401.256,468.885 405.5,465.5C 406.04,464.252 406.707,463.085 407.5,462C 410.952,460.774 414.285,459.274 417.5,457.5C 423.904,453.601 429.571,448.768 434.5,443C 444.073,437.389 453.073,431.056 461.5,424C 466.9,420.484 471.733,420.984 476,425.5C 480.027,435.033 482.027,445.033 482,455.5C 483.826,458.603 485.16,461.937 486,465.5C 489.401,504.035 490.401,542.702 489,581.5C 488.333,583.5 487,584.833 485,585.5C 484.667,625.833 484.333,666.167 484,706.5C 484.397,716.89 482.73,726.89 479,736.5C 478.333,786.167 478.333,835.833 479,885.5C 482.297,888.052 483.13,891.219 481.5,895C 481.625,896.627 482.125,898.127 483,899.5C 483.405,914.512 484.072,929.512 485,944.5C 485.915,945.328 486.581,946.328 487,947.5C 490.025,960.312 491.025,973.312 490,986.5C 486.667,991.833 483.333,991.833 480,986.5C 479.151,976.466 477.984,966.466 476.5,956.5C 476.378,954.209 475.545,952.209 474,950.5C 472.208,931.253 470.875,911.919 470,892.5C 469.085,891.672 468.419,890.672 468,889.5C 467.827,837.971 467.327,786.471 466.5,735C 467.736,731.793 469.069,728.626 470.5,725.5C 470.069,724.707 469.735,723.873 469.5,723C 470.93,716.215 472.097,709.382 473,702.5C 473.333,662.167 473.667,621.833 474,581.5C 474.615,579.884 475.615,578.551 477,577.5C 477.831,546.152 477.498,514.819 476,483.5C 472.106,467.78 469.106,451.78 467,435.5C 463.833,436.667 461.667,438.833 460.5,442C 453.076,444.432 447.076,448.766 442.5,455C 436.176,456.983 431.176,460.649 427.5,466C 421.763,468.331 416.763,471.665 412.5,476C 404.746,479.202 398.079,483.869 392.5,490C 385.09,492.74 378.757,497.074 373.5,503C 368.813,503.758 364.979,505.924 362,509.5C 361.667,519.167 361.333,528.833 361,538.5C 360.632,539.91 359.799,540.91 358.5,541.5C 355.106,583.373 353.939,625.373 355,667.5C 355.915,668.328 356.581,669.328 357,670.5C 357.498,678.353 359.332,685.853 362.5,693C 361.002,696.178 361.502,699.011 364,701.5C 365.678,727.648 368.345,753.648 372,779.5C 372.333,787.5 372.667,795.5 373,803.5C 373.638,804.609 374.138,805.775 374.5,807C 372.757,813.449 373.257,819.616 376,825.5C 377.695,839.061 378.695,852.727 379,866.5C 379.638,867.609 380.138,868.775 380.5,870C 379.873,874.796 379.539,879.63 379.5,884.5C 379.386,889.609 379.886,894.609 381,899.5C 381.379,956.503 382.046,1013.5 383,1070.5C 385.105,1073.11 385.938,1076.11 385.5,1079.5 Z"/></g>
<g><path style="opacity:0.935" fill="#fefffe" d="M 414.5,1079.5 C 407.167,1079.5 399.833,1079.5 392.5,1079.5C 398.007,1074.51 404.007,1070.01 410.5,1066C 413.558,1064.99 416.558,1063.82 419.5,1062.5C 421.344,1060.16 423.344,1057.99 425.5,1056C 447.84,1041.56 466.673,1023.39 482,1001.5C 483.512,1000.74 484.846,999.743 486,998.5C 491.19,990.12 495.857,981.454 500,972.5C 503.5,969.5 507,966.5 510.5,963.5C 512.473,960.754 513.973,957.754 515,954.5C 519.667,949.81 523.667,944.477 527,938.5C 534.343,931.989 541.51,925.322 548.5,918.5C 554.765,910.979 561.265,903.645 568,896.5C 569.781,893.726 571.115,890.726 572,887.5C 573.939,885.806 575.772,883.973 577.5,882C 583.236,880.598 587.069,877.098 589,871.5C 594.86,866.306 600.36,860.806 605.5,855C 613.5,850.211 621.166,844.878 628.5,839C 636.957,830.404 645.957,822.237 655.5,814.5C 657.118,810.356 657.951,806.022 658,801.5C 661.667,796.167 665.333,796.167 669,801.5C 669.937,809.937 669.604,818.27 668,826.5C 666.687,827.573 665.187,828.24 663.5,828.5C 661.527,827.669 659.527,827.502 657.5,828C 653.458,832.04 649.791,836.373 646.5,841C 632.648,851.684 618.648,862.184 604.5,872.5C 599.389,877.578 594.889,883.245 591,889.5C 585.026,892.479 580.693,897.146 578,903.5C 571.718,909.452 565.718,915.785 560,922.5C 559.5,927 557,929.5 552.5,930C 539.673,943.509 528.173,958.009 518,973.5C 515.344,976.322 512.511,978.988 509.5,981.5C 504.32,990.532 499.153,999.532 494,1008.5C 489.327,1012.84 484.994,1017.51 481,1022.5C 480.529,1024.25 479.862,1025.91 479,1027.5C 474.284,1030.55 470.618,1034.55 468,1039.5C 458.589,1044.92 450.422,1051.75 443.5,1060C 439.787,1062.69 435.787,1065.02 431.5,1067C 430.5,1068.67 429.5,1070.33 428.5,1072C 423.613,1074.27 418.946,1076.77 414.5,1079.5 Z"/></g>
</svg>
