<?xml version="1.0" encoding="UTF-8"?>
<!DOCTYPE svg PUBLIC "-//W3C//DTD SVG 1.1//EN" "http://www.w3.org/Graphics/SVG/1.1/DTD/svg11.dtd">
<svg xmlns="http://www.w3.org/2000/svg" version="1.1" width="1280px" height="1280px" style="shape-rendering:geometricPrecision; text-rendering:geometricPrecision; image-rendering:optimizeQuality; fill-rule:evenodd; clip-rule:evenodd" xmlns:xlink="http://www.w3.org/1999/xlink">
<g><path style="opacity:0.866" fill="#010101" d="M 573.5,215.5 C 594.714,214.22 602.547,223.887 597,244.5C 590.361,258.241 579.861,262.741 565.5,258C 558.042,253.249 554.708,246.415 555.5,237.5C 555.295,225.042 561.295,217.709 573.5,215.5 Z"/></g>
<g><path style="opacity:1" fill="#f31c1b" d="M 577.5,222.5 C 590.604,224.708 594.104,231.708 588,243.5C 584.751,247.936 580.585,250.936 575.5,252.5C 567.283,250.945 562.949,245.945 562.5,237.5C 563.861,228.806 568.861,223.806 577.5,222.5 Z"/></g>
<g><path style="opacity:0.901" fill="#020202" d="M 800.5,1023.5 C 817.917,1018.96 833.917,1011.46 848.5,1001C 842.513,995.881 835.513,994.048 827.5,995.5C 828.786,992.883 830.453,990.55 832.5,988.5C 836.059,988.716 839.559,988.382 843,987.5C 848.213,990.043 852.879,993.376 857,997.5C 857.667,1000.17 857.667,1002.83 857,1005.5C 849.027,1011.46 840.527,1016.63 831.5,1021C 819.607,1025.8 807.607,1030.3 795.5,1034.5C 806.489,1056.49 818.989,1077.49 833,1097.5C 880.511,1083.16 926.011,1064 969.5,1040C 991.666,1027.08 1013.67,1013.92 1035.5,1000.5C 1042.6,943.421 1041.77,886.421 1033,829.5C 1029,804.831 1025,780.164 1021,755.5C 1017.68,726.703 1020.01,698.37 1028,670.5C 1035.84,642.788 1043.84,615.122 1052,587.5C 1064.47,549.77 1077.13,512.104 1090,474.5C 1091.97,458.353 1091.64,442.353 1089,426.5C 1069.11,494.948 1038.11,557.614 996,614.5C 990.199,624.436 985.199,634.769 981,645.5C 979.274,646.576 977.441,646.743 975.5,646C 967.333,630.5 959.167,615 951,599.5C 941.421,586.676 932.088,573.676 923,560.5C 920.197,556.859 918.03,552.859 916.5,548.5C 915.508,534.695 913.008,521.028 909,507.5C 903.327,490.824 897.66,474.157 892,457.5C 882.89,422.243 882.224,386.909 890,351.5C 864.249,402.254 853.915,455.921 859,512.5C 860.011,516.368 861.511,520.034 863.5,523.5C 862.259,526.144 860.259,526.977 857.5,526C 846.872,521.012 835.872,517.012 824.5,514C 802.529,507.798 780.362,502.631 758,498.5C 749.107,513.121 740.607,527.954 732.5,543C 728.833,543.667 725.167,543.667 721.5,543C 714.265,535.437 707.431,527.604 701,519.5C 690.477,496.851 685.977,473.018 687.5,448C 688.689,424.169 689.522,400.336 690,376.5C 688.732,381.637 687.066,386.637 685,391.5C 679.12,402.592 673.787,413.925 669,425.5C 665.301,437.954 664.134,450.621 665.5,463.5C 665.194,466.532 664.694,469.532 664,472.5C 662.204,473.767 660.371,473.767 658.5,472.5C 656.904,462.068 655.904,451.568 655.5,441C 658.077,408.15 660.744,375.316 663.5,342.5C 661.477,315.886 656.311,289.886 648,264.5C 650.183,311.23 642.516,356.23 625,399.5C 612.97,428.819 597.637,456.153 579,481.5C 566.898,495.545 555.398,510.045 544.5,525C 542.105,527.145 539.938,526.978 538,524.5C 534.522,516.208 530.022,508.541 524.5,501.5C 514.782,501.266 505.115,502.266 495.5,504.5C 494.5,504.167 493.5,503.833 492.5,503.5C 491.195,497.872 490.029,492.205 489,486.5C 483.799,471.897 478.799,457.23 474,442.5C 472.084,433.929 470.751,425.262 470,416.5C 462.745,457.644 446.245,494.477 420.5,527C 417.167,527.667 413.833,527.667 410.5,527C 408.822,524.708 408.489,522.041 409.5,519C 407.024,478.575 395.857,440.741 376,405.5C 379.084,460.078 369.084,512.078 346,561.5C 332.222,580.712 320.222,601.046 310,622.5C 302.572,640.752 296.905,659.086 293,677.5C 291.289,677.561 289.956,676.894 289,675.5C 276.775,649.892 260.275,627.392 239.5,608C 236.167,605.667 232.833,603.333 229.5,601C 228.517,600.409 227.85,600.743 227.5,602C 241.949,652.859 250.282,704.693 252.5,757.5C 250.17,794.653 246.004,831.653 240,868.5C 234.083,911.163 234.083,953.829 240,996.5C 265.903,1017.54 293.736,1035.71 323.5,1051C 361.017,1070 399.684,1086.17 439.5,1099.5C 441.728,1098.78 443.561,1097.45 445,1095.5C 459.762,1076.33 472.262,1055.66 482.5,1033.5C 460.056,1027.36 439.556,1017.36 421,1003.5C 419.276,1001.1 419.276,998.769 421,996.5C 424.349,993.43 427.516,990.264 430.5,987C 432.473,986.505 434.473,986.338 436.5,986.5C 437.222,987.551 438.222,988.218 439.5,988.5C 440.833,989.167 441.833,990.167 442.5,991.5C 443.167,992.167 443.833,992.833 444.5,993.5C 441.813,993.336 439.146,993.503 436.5,994C 434.5,996 432.5,998 430.5,1000C 448.528,1012.51 468.194,1021.51 489.5,1027C 491.006,1032.77 490.173,1038.27 487,1043.5C 480.507,1056.49 473.507,1069.16 466,1081.5C 460.126,1089.94 453.793,1097.94 447,1105.5C 445.261,1106.89 443.261,1107.56 441,1107.5C 375.789,1087.97 314.956,1059.47 258.5,1022C 249.379,1015.71 241.046,1008.54 233.5,1000.5C 227.264,955.543 227.097,910.543 233,865.5C 238.714,829.004 242.88,792.338 245.5,755.5C 242.55,699.918 232.717,645.585 216,592.5C 215.505,590.527 215.338,588.527 215.5,586.5C 219.281,585.789 222.281,586.955 224.5,590C 231.745,592.622 238.412,596.289 244.5,601C 262.352,617.672 277.352,636.505 289.5,657.5C 294.716,639.35 301.216,621.683 309,604.5C 318.167,588.829 327.833,573.496 338,558.5C 364.951,502.344 374.451,443.344 366.5,381.5C 369.044,381.104 371.211,381.771 373,383.5C 399.259,424.279 413.926,468.946 417,517.5C 433.598,495.307 446.265,470.974 455,444.5C 458.92,425.742 464.253,407.408 471,389.5C 472.753,386.995 474.253,384.329 475.5,381.5C 478.086,380.52 480.753,380.187 483.5,380.5C 482.067,393.405 480.067,406.238 477.5,419C 481.096,439.459 486.93,459.292 495,478.5C 496.496,484.495 497.83,490.495 499,496.5C 508.989,493.948 519.156,493.115 529.5,494C 534.061,500.232 538.228,506.732 542,513.5C 551.621,500.877 561.621,488.544 572,476.5C 601.201,437.424 621.868,394.091 634,346.5C 641.117,308.68 642.45,270.68 638,232.5C 640.267,231.065 642.267,231.398 644,233.5C 660.301,268.872 668.801,306.039 669.5,345C 668.837,367.608 667.337,390.108 665,412.5C 673.851,397.935 680.351,382.435 684.5,366C 682.926,359.621 681.926,353.121 681.5,346.5C 684.247,346.187 686.914,346.52 689.5,347.5C 693.544,355.005 696.044,363.005 697,371.5C 697.207,397.392 696.041,423.225 693.5,449C 693.321,472.776 698.487,495.276 709,516.5C 714.677,523.009 720.511,529.343 726.5,535.5C 734.692,520.954 743.025,506.454 751.5,492C 762.959,492.017 774.293,493.351 785.5,496C 807.652,501.162 829.485,507.329 851,514.5C 845.135,443.458 861.468,378.125 900,318.5C 902.381,317.565 904.881,317.232 907.5,317.5C 907.664,320.187 907.497,322.854 907,325.5C 890.468,364.415 887.135,404.415 897,445.5C 904,467.167 911,488.833 918,510.5C 920.847,522.735 923.18,535.068 925,547.5C 936,563.167 947,578.833 958,594.5C 964.604,606.708 970.937,619.041 977,631.5C 989.256,608.642 1003.26,586.975 1019,566.5C 1048.74,516.682 1071.07,463.682 1086,407.5C 1086.33,404.5 1086.67,401.5 1087,398.5C 1089.46,396.679 1092.29,396.012 1095.5,396.5C 1097.4,418.817 1099.07,441.15 1100.5,463.5C 1099.4,469.511 1098.23,475.511 1097,481.5C 1072.77,546.06 1051.77,611.727 1034,678.5C 1026.97,702.766 1024.97,727.433 1028,752.5C 1036.15,794.524 1042.15,836.857 1046,879.5C 1047.51,915.172 1047.17,950.839 1045,986.5C 1044.74,992.551 1044.07,998.551 1043,1004.5C 981.213,1047.81 914.046,1080.64 841.5,1103C 837.527,1104 833.527,1104.33 829.5,1104C 825.333,1099.17 821.167,1094.33 817,1089.5C 807.747,1074 798.747,1058.33 790,1042.5C 788.359,1037.92 787.359,1033.25 787,1028.5C 791.668,1027.05 796.168,1025.38 800.5,1023.5 Z M 832.5,988.5 C 832.5,988.167 832.5,987.833 832.5,987.5C 833.674,986.486 834.34,985.153 834.5,983.5C 835.974,982.564 836.974,981.23 837.5,979.5C 837.5,979.167 837.5,978.833 837.5,978.5C 839.588,976.664 840.921,974.331 841.5,971.5C 842.674,970.486 843.34,969.153 843.5,967.5C 844.537,966.07 845.204,964.403 845.5,962.5C 846.404,961.791 846.737,960.791 846.5,959.5C 847.924,957.485 848.59,955.152 848.5,952.5C 849.404,951.791 849.737,950.791 849.5,949.5C 849.5,949.167 849.5,948.833 849.5,948.5C 850.404,947.791 850.737,946.791 850.5,945.5C 850.5,945.167 850.5,944.833 850.5,944.5C 851.451,943.081 851.784,941.415 851.5,939.5C 851.5,939.167 851.5,938.833 851.5,938.5C 852.812,930.932 852.812,923.265 851.5,915.5C 850.504,915.414 849.671,915.748 849,916.5C 848.174,919.793 847.674,923.126 847.5,926.5C 847.5,926.833 847.5,927.167 847.5,927.5C 846.549,928.919 846.216,930.585 846.5,932.5C 845.566,933.568 845.232,934.901 845.5,936.5C 845.5,936.833 845.5,937.167 845.5,937.5C 844.596,938.209 844.263,939.209 844.5,940.5C 843.129,942.936 842.129,945.603 841.5,948.5C 840.662,948.842 840.328,949.508 840.5,950.5C 838.992,952.181 837.992,954.181 837.5,956.5C 836.5,956.833 835.833,957.5 835.5,958.5C 834.599,959.29 833.932,960.29 833.5,961.5C 831.186,963.477 828.853,965.477 826.5,967.5C 824.463,968.846 822.463,970.18 820.5,971.5C 819.29,971.932 818.29,972.599 817.5,973.5C 816.391,973.557 815.391,973.89 814.5,974.5C 812.597,974.796 810.93,975.463 809.5,976.5C 806.627,976.802 803.961,977.469 801.5,978.5C 801.167,978.5 800.833,978.5 800.5,978.5C 794.833,978.5 789.167,978.5 783.5,978.5C 783.167,978.5 782.833,978.5 782.5,978.5C 781.081,977.549 779.415,977.216 777.5,977.5C 776.432,976.566 775.099,976.232 773.5,976.5C 773.631,975.761 773.464,975.094 773,974.5C 772.329,975.252 771.496,975.586 770.5,975.5C 769.791,974.596 768.791,974.263 767.5,974.5C 767.158,973.662 766.492,973.328 765.5,973.5C 765.591,971.302 764.925,970.969 763.5,972.5C 763.167,972.5 762.833,972.5 762.5,972.5C 761.71,971.599 760.71,970.932 759.5,970.5C 759.158,969.662 758.492,969.328 757.5,969.5C 757.5,969.167 757.5,968.833 757.5,968.5C 756.508,968.672 755.842,968.338 755.5,967.5C 754.167,966.833 752.833,966.167 751.5,965.5C 751.158,964.662 750.492,964.328 749.5,964.5C 748.833,963.167 747.833,962.167 746.5,961.5C 746.167,961.5 745.833,961.5 745.5,961.5C 744.167,959.5 742.5,957.833 740.5,956.5C 739.833,956.167 739.167,955.833 738.5,955.5C 736.5,952.833 734.167,950.5 731.5,948.5C 730.205,947.512 728.872,946.512 727.5,945.5C 725.54,943.844 723.54,942.177 721.5,940.5C 719.611,939.396 717.945,938.063 716.5,936.5C 715.833,936.5 715.167,936.5 714.5,936.5C 714.5,936.167 714.5,935.833 714.5,935.5C 712.5,934.5 710.5,933.5 708.5,932.5C 708.167,932.5 707.833,932.5 707.5,932.5C 705.819,930.992 703.819,929.992 701.5,929.5C 701.167,929.5 700.833,929.5 700.5,929.5C 697.785,927.928 694.785,926.928 691.5,926.5C 690.432,925.566 689.099,925.232 687.5,925.5C 687.167,925.5 686.833,925.5 686.5,925.5C 683.713,924.523 680.713,924.19 677.5,924.5C 675.833,923.167 674.167,923.167 672.5,924.5C 669.615,924.194 666.948,924.527 664.5,925.5C 664.167,925.5 663.833,925.5 663.5,925.5C 661.901,925.232 660.568,925.566 659.5,926.5C 657.799,926.966 656.299,926.966 655,926.5C 654.283,927.044 653.783,927.711 653.5,928.5C 650.669,929.079 648.336,930.412 646.5,932.5C 646.167,932.5 645.833,932.5 645.5,932.5C 644.29,932.932 643.29,933.599 642.5,934.5C 641.167,935.167 640.167,936.167 639.5,937.5C 638.167,938.167 637.167,939.167 636.5,940.5C 634.833,941.5 633.5,942.833 632.5,944.5C 631.728,945.694 630.728,946.694 629.5,947.5C 628.167,950.833 626.833,954.167 625.5,957.5C 625.5,957.833 625.5,958.167 625.5,958.5C 624.833,957.5 624.167,956.5 623.5,955.5C 623.5,955.167 623.5,954.833 623.5,954.5C 623.737,953.209 623.404,952.209 622.5,951.5C 621.633,948.092 620.467,944.758 619,941.5C 618.292,940.619 617.458,939.953 616.5,939.5C 616.5,939.167 616.5,938.833 616.5,938.5C 616.167,937.5 615.5,936.833 614.5,936.5C 614.5,936.167 614.5,935.833 614.5,935.5C 613.833,935.5 613.5,935.167 613.5,934.5C 612.167,932.5 610.5,930.833 608.5,929.5C 608.158,928.662 607.492,928.328 606.5,928.5C 606.167,927.5 605.5,926.833 604.5,926.5C 603.101,925.11 601.434,924.11 599.5,923.5C 597.819,921.992 595.819,920.992 593.5,920.5C 592.895,918.519 591.895,918.185 590.5,919.5C 588.485,918.076 586.152,917.41 583.5,917.5C 581.052,916.527 578.385,916.194 575.5,916.5C 574.391,915.71 573.058,915.21 571.5,915C 615.396,877.912 626.229,832.745 604,779.5C 571.208,727.559 525.041,710.059 465.5,727C 436.567,738.602 415.4,758.435 402,786.5C 399.551,792.63 397.884,798.963 397,805.5C 396.333,822.167 396.333,838.833 397,855.5C 398.102,865.641 401.269,874.974 406.5,883.5C 405.766,884.708 405.433,886.041 405.5,887.5C 405.5,887.833 405.5,888.167 405.5,888.5C 404.659,890.379 404.325,892.379 404.5,894.5C 404.5,894.833 404.5,895.167 404.5,895.5C 403.167,902.5 403.167,909.5 404.5,916.5C 404.5,916.833 404.5,917.167 404.5,917.5C 404.646,921.387 405.313,925.054 406.5,928.5C 406.5,928.833 406.5,929.167 406.5,929.5C 406.263,930.791 406.596,931.791 407.5,932.5C 407.5,932.833 407.5,933.167 407.5,933.5C 407.263,934.791 407.596,935.791 408.5,936.5C 408.5,936.833 408.5,937.167 408.5,937.5C 408.328,938.492 408.662,939.158 409.5,939.5C 409.5,939.833 409.5,940.167 409.5,940.5C 409.935,943.157 410.935,945.491 412.5,947.5C 412.263,948.791 412.596,949.791 413.5,950.5C 413.328,951.492 413.662,952.158 414.5,952.5C 415.722,956.612 417.722,960.279 420.5,963.5C 420.5,963.833 420.5,964.167 420.5,964.5C 421.475,966.795 422.808,968.795 424.5,970.5C 425.443,973.109 427.11,975.109 429.5,976.5C 429.5,976.833 429.5,977.167 429.5,977.5C 430.5,979.167 431.833,980.5 433.5,981.5C 433.5,981.833 433.5,982.167 433.5,982.5C 434.5,983.833 435.5,985.167 436.5,986.5C 434.473,986.338 432.473,986.505 430.5,987C 427.516,990.264 424.349,993.43 421,996.5C 419.276,998.769 419.276,1001.1 421,1003.5C 439.556,1017.36 460.056,1027.36 482.5,1033.5C 472.262,1055.66 459.762,1076.33 445,1095.5C 443.561,1097.45 441.728,1098.78 439.5,1099.5C 399.684,1086.17 361.017,1070 323.5,1051C 293.736,1035.71 265.903,1017.54 240,996.5C 234.083,953.829 234.083,911.163 240,868.5C 246.004,831.653 250.17,794.653 252.5,757.5C 250.282,704.693 241.949,652.859 227.5,602C 227.85,600.743 228.517,600.409 229.5,601C 232.833,603.333 236.167,605.667 239.5,608C 260.275,627.392 276.775,649.892 289,675.5C 289.956,676.894 291.289,677.561 293,677.5C 296.905,659.086 302.572,640.752 310,622.5C 320.222,601.046 332.222,580.712 346,561.5C 369.084,512.078 379.084,460.078 376,405.5C 395.857,440.741 407.024,478.575 409.5,519C 408.489,522.041 408.822,524.708 410.5,527C 413.833,527.667 417.167,527.667 420.5,527C 446.245,494.477 462.745,457.644 470,416.5C 470.751,425.262 472.084,433.929 474,442.5C 478.799,457.23 483.799,471.897 489,486.5C 490.029,492.205 491.195,497.872 492.5,503.5C 493.5,503.833 494.5,504.167 495.5,504.5C 505.115,502.266 514.782,501.266 524.5,501.5C 530.022,508.541 534.522,516.208 538,524.5C 539.938,526.978 542.105,527.145 544.5,525C 555.398,510.045 566.898,495.545 579,481.5C 597.637,456.153 612.97,428.819 625,399.5C 642.516,356.23 650.183,311.23 648,264.5C 656.311,289.886 661.477,315.886 663.5,342.5C 660.744,375.316 658.077,408.15 655.5,441C 655.904,451.568 656.904,462.068 658.5,472.5C 660.371,473.767 662.204,473.767 664,472.5C 664.694,469.532 665.194,466.532 665.5,463.5C 664.134,450.621 665.301,437.954 669,425.5C 673.787,413.925 679.12,402.592 685,391.5C 687.066,386.637 688.732,381.637 690,376.5C 689.522,400.336 688.689,424.169 687.5,448C 685.977,473.018 690.477,496.851 701,519.5C 707.431,527.604 714.265,535.437 721.5,543C 725.167,543.667 728.833,543.667 732.5,543C 740.607,527.954 749.107,513.121 758,498.5C 780.362,502.631 802.529,507.798 824.5,514C 835.872,517.012 846.872,521.012 857.5,526C 860.259,526.977 862.259,526.144 863.5,523.5C 861.511,520.034 860.011,516.368 859,512.5C 853.915,455.921 864.249,402.254 890,351.5C 882.224,386.909 882.89,422.243 892,457.5C 897.66,474.157 903.327,490.824 909,507.5C 913.008,521.028 915.508,534.695 916.5,548.5C 918.03,552.859 920.197,556.859 923,560.5C 932.088,573.676 941.421,586.676 951,599.5C 959.167,615 967.333,630.5 975.5,646C 977.441,646.743 979.274,646.576 981,645.5C 985.199,634.769 990.199,624.436 996,614.5C 1038.11,557.614 1069.11,494.948 1089,426.5C 1091.64,442.353 1091.97,458.353 1090,474.5C 1077.13,512.104 1064.47,549.77 1052,587.5C 1043.84,615.122 1035.84,642.788 1028,670.5C 1020.01,698.37 1017.68,726.703 1021,755.5C 1025,780.164 1029,804.831 1033,829.5C 1041.77,886.421 1042.6,943.421 1035.5,1000.5C 1013.67,1013.92 991.666,1027.08 969.5,1040C 926.011,1064 880.511,1083.16 833,1097.5C 818.989,1077.49 806.489,1056.49 795.5,1034.5C 807.607,1030.3 819.607,1025.8 831.5,1021C 840.527,1016.63 849.027,1011.46 857,1005.5C 857.667,1002.83 857.667,1000.17 857,997.5C 852.879,993.376 848.213,990.043 843,987.5C 839.559,988.382 836.059,988.716 832.5,988.5 Z M 511.5,938.5 C 511.167,938.5 510.833,938.5 510.5,938.5C 509.29,938.932 508.29,939.599 507.5,940.5C 504.868,941.472 502.535,942.805 500.5,944.5C 497.515,945.326 494.849,946.659 492.5,948.5C 492.167,948.5 491.833,948.5 491.5,948.5C 483.223,951.089 474.889,952.756 466.5,953.5C 462.901,952.656 459.234,952.323 455.5,952.5C 454.081,951.549 452.415,951.216 450.5,951.5C 448.064,950.129 445.397,949.129 442.5,948.5C 442.158,947.662 441.492,947.328 440.5,947.5C 440.167,947.5 439.833,947.5 439.5,947.5C 437.833,946.167 436.167,944.833 434.5,943.5C 432.589,942.925 430.922,941.925 429.5,940.5C 429.5,940.167 429.5,939.833 429.5,939.5C 428.391,939.443 427.391,939.11 426.5,938.5C 425.833,937.167 424.833,936.167 423.5,935.5C 423.5,934.833 423.167,934.5 422.5,934.5C 422.5,934.167 422.5,933.833 422.5,933.5C 422.5,933.167 422.5,932.833 422.5,932.5C 421.5,931.833 420.5,931.167 419.5,930.5C 419.5,929.833 419.5,929.167 419.5,928.5C 419.167,928.5 418.833,928.5 418.5,928.5C 417.89,927.609 417.557,926.609 417.5,925.5C 416.5,924.167 415.5,922.833 414.5,921.5C 414.5,921.167 414.5,920.833 414.5,920.5C 414.34,918.847 413.674,917.514 412.5,916.5C 412.5,916.167 412.5,915.833 412.5,915.5C 412.567,914.041 412.234,912.708 411.5,911.5C 411.5,911.167 411.5,910.833 411.5,910.5C 411.634,908.708 411.301,907.042 410.5,905.5C 410.5,905.167 410.5,904.833 410.5,904.5C 410.334,900.486 410.501,896.486 411,892.5C 435.853,926.676 469.353,942.009 511.5,938.5 Z"/></g>
<g><path style="opacity:0.886" fill="#020202" d="M 383.5,263.5 C 421.15,263.683 434.65,282.016 424,318.5C 419.364,329.461 412.197,338.295 402.5,345C 391.689,350.298 380.689,350.631 369.5,346C 346.052,337.27 337.885,320.77 345,296.5C 350.081,276.24 362.914,265.24 383.5,263.5 Z"/></g>
<g><path style="opacity:1" fill="#f31c1b" d="M 385.5,270.5 C 414.093,271.895 424.593,286.229 417,313.5C 404.286,342.977 384.786,348.477 358.5,330C 350.529,321.575 348.362,311.742 352,300.5C 357.132,283.524 368.299,273.524 385.5,270.5 Z"/></g>
<g><path style="opacity:0.632" fill="#343434" d="M 979.5,275.5 C 995.104,276.598 1004.27,284.932 1007,300.5C 1007.87,327.303 995.374,337.469 969.5,331C 956.414,322.774 951.247,310.941 954,295.5C 955.553,287.548 960.053,282.048 967.5,279C 971.623,277.808 975.623,276.641 979.5,275.5 Z"/></g>
<g><path style="opacity:1" fill="#030303" d="M 978.5,277.5 C 990.508,277.016 998.674,282.349 1003,293.5C 1008.58,307.457 1005.74,319.29 994.5,329C 975.427,335.88 962.594,329.714 956,310.5C 952.149,291.492 959.649,280.492 978.5,277.5 Z"/></g>
<g><path style="opacity:1" fill="#f31c1b" d="M 975.5,285.5 C 983.966,283.657 990.466,286.323 995,293.5C 1001.27,303.83 1000.11,313.33 991.5,322C 979.572,327.302 970.405,324.135 964,312.5C 961.096,305.493 961.429,298.493 965,291.5C 968.069,288.554 971.569,286.554 975.5,285.5 Z"/></g>
<g><path style="opacity:0.867" fill="#020202" d="M 528.5,354.5 C 533.248,354.275 537.915,354.775 542.5,356C 564.113,366.84 569.279,383.007 558,404.5C 547.781,420.017 533.948,424.517 516.5,418C 508.771,412.922 504.271,405.756 503,396.5C 499.42,374.956 507.92,360.956 528.5,354.5 Z"/></g>
<g><path style="opacity:1" fill="#f31c1b" d="M 532.5,361.5 C 561.395,373.368 564.061,389.534 540.5,410C 527.529,416.275 518.029,412.775 512,399.5C 506.472,384.43 510.638,372.93 524.5,365C 527.309,363.907 529.976,362.74 532.5,361.5 Z"/></g>
<g><path style="opacity:0.884" fill="#010101" d="M 784.5,362.5 C 791.175,362.334 797.842,362.5 804.5,363C 807.873,363.101 810.373,364.601 812,367.5C 817.487,377.651 818.82,388.317 816,399.5C 812.909,405.297 808.076,408.464 801.5,409C 777.971,410.793 768.471,399.96 773,376.5C 774.283,369.532 778.116,364.866 784.5,362.5 Z"/></g>
<g><path style="opacity:1" fill="#f31c1b" d="M 788.5,369.5 C 802.238,367.721 809.571,373.887 810.5,388C 808.395,400.05 801.395,404.383 789.5,401C 779.257,394.921 776.757,386.421 782,375.5C 784.063,373.266 786.229,371.266 788.5,369.5 Z"/></g>
<g><path style="opacity:0.881" fill="#020202" d="M 245.5,463.5 C 264.781,460.982 276.948,468.982 282,487.5C 287.533,518.455 274.7,533.455 243.5,532.5C 215.582,529.007 205.416,513.674 213,486.5C 219.578,472.746 230.412,465.079 245.5,463.5 Z"/></g>
<g><path style="opacity:1" fill="#f31c1b" d="M 248.5,470.5 C 258.101,470.078 265.601,473.745 271,481.5C 278.138,492.877 278.138,504.211 271,515.5C 265.098,522.305 257.598,525.305 248.5,524.5C 236.232,525.385 226.732,520.718 220,510.5C 215.988,492.694 222.488,480.194 239.5,473C 242.678,472.34 245.678,471.507 248.5,470.5 Z"/></g>
<g><path style="opacity:0.871" fill="#020202" d="M 964.5,479.5 C 970.555,479.338 976.555,479.838 982.5,481C 985.902,482.4 988.736,484.567 991,487.5C 996.22,510.613 987.387,519.113 964.5,513C 955.915,506.517 953.082,498.017 956,487.5C 957.691,483.579 960.525,480.913 964.5,479.5 Z"/></g>
<g><path style="opacity:1" fill="#f31c1b" d="M 969.5,486.5 C 976.171,486.418 981.338,489.085 985,494.5C 985.657,501.688 982.491,506.355 975.5,508.5C 966.817,506.004 962.651,500.337 963,491.5C 964.965,489.45 967.132,487.783 969.5,486.5 Z"/></g>
<g><path style="opacity:1" fill="#454545" d="M 760.5,718.5 C 814.155,713.401 852.988,734.735 877,782.5C 879.277,788.332 880.944,794.332 882,800.5C 892.404,861.878 869.237,904.711 812.5,929C 754.866,945.906 709.7,929.406 677,879.5C 671.007,868.855 667.007,857.522 665,845.5C 659.617,814.728 666.284,787.061 685,762.5C 695.312,750.846 706.812,740.679 719.5,732C 732.335,724.555 746.001,720.055 760.5,718.5 Z"/></g>
<g><path style="opacity:1" fill="#464646" d="M 575.5,916.5 C 570.16,916.831 564.826,917.164 559.5,917.5C 559.414,916.504 559.748,915.671 560.5,915C 599.313,887.178 614.147,849.678 605,802.5C 594.774,770.937 574.607,748.104 544.5,734C 494.554,717.102 453.054,728.935 420,769.5C 411.739,781.281 406.405,794.281 404,808.5C 396.7,847.858 407.2,881.358 435.5,909C 448.976,920.07 464.309,927.403 481.5,931C 495.209,932.452 508.876,932.952 522.5,932.5C 520.295,933.198 518.461,934.532 517,936.5C 516.667,936.167 516.333,935.833 516,935.5C 514.903,937.053 513.57,938.386 512,939.5C 511.601,939.272 511.435,938.938 511.5,938.5C 469.353,942.009 435.853,926.676 411,892.5C 410.501,896.486 410.334,900.486 410.5,904.5C 409.566,903.432 409.232,902.099 409.5,900.5C 409.5,895.167 409.5,889.833 409.5,884.5C 408.779,882.618 407.779,882.285 406.5,883.5C 401.269,874.974 398.102,865.641 397,855.5C 396.333,838.833 396.333,822.167 397,805.5C 397.884,798.963 399.551,792.63 402,786.5C 415.4,758.435 436.567,738.602 465.5,727C 525.041,710.059 571.208,727.559 604,779.5C 626.229,832.745 615.396,877.912 571.5,915C 573.058,915.21 574.391,915.71 575.5,916.5 Z"/></g>
<g><path style="opacity:1" fill="#4d4d4d" d="M 761.5,724.5 C 813.207,720.924 849.707,742.591 871,789.5C 885.505,835.38 875.339,874.547 840.5,907C 804.041,933.724 765.374,937.39 724.5,918C 679.901,889.568 663.401,849.401 675,797.5C 690.221,756.836 719.054,732.502 761.5,724.5 Z"/></g>
<g><path style="opacity:1" fill="#4d4d4d" d="M 559.5,917.5 C 558.458,918.791 557.292,918.791 556,917.5C 554.541,919.81 552.708,920.143 550.5,918.5C 549.262,918.19 549.262,917.69 550.5,917C 592.427,890.966 609.26,853.466 601,804.5C 588.365,763.864 561.198,739.364 519.5,731C 477.671,726.37 444.837,741.204 421,775.5C 407.96,798.541 403.627,823.208 408,849.5C 417.983,896.482 446.816,922.982 494.5,929C 506.736,930.137 518.736,928.97 530.5,925.5C 531.183,925.863 531.85,926.196 532.5,926.5C 529.441,928.068 526.108,930.068 522.5,932.5C 508.876,932.952 495.209,932.452 481.5,931C 464.309,927.403 448.976,920.07 435.5,909C 407.2,881.358 396.7,847.858 404,808.5C 406.405,794.281 411.739,781.281 420,769.5C 453.054,728.935 494.554,717.102 544.5,734C 574.607,748.104 594.774,770.937 605,802.5C 614.147,849.678 599.313,887.178 560.5,915C 559.748,915.671 559.414,916.504 559.5,917.5 Z"/></g>
<g><path style="opacity:1" fill="#545454" d="M 758.5,728.5 C 808.788,723.882 844.621,744.215 866,789.5C 880.842,833.662 871.675,871.829 838.5,904C 800.362,932.557 760.695,934.89 719.5,911C 681.946,882.699 668.446,845.533 679,799.5C 686.761,775.795 700.928,756.962 721.5,743C 733.043,735.886 745.376,731.052 758.5,728.5 Z"/></g>
<g><path style="opacity:1" fill="#545454" d="M 550.5,918.5 C 550.53,919.497 550.03,920.164 549,920.5C 547.584,921.573 546.25,921.573 545,920.5C 541.206,923.09 537.04,925.09 532.5,926.5C 531.85,926.196 531.183,925.863 530.5,925.5C 518.736,928.97 506.736,930.137 494.5,929C 446.816,922.982 417.983,896.482 408,849.5C 403.627,823.208 407.96,798.541 421,775.5C 444.837,741.204 477.671,726.37 519.5,731C 561.198,739.364 588.365,763.864 601,804.5C 609.26,853.466 592.427,890.966 550.5,917C 549.262,917.69 549.262,918.19 550.5,918.5 Z"/></g>
<g><path style="opacity:1" fill="#5c5c5c" d="M 765.5,730.5 C 811.555,729.424 844.055,749.757 863,791.5C 865.449,797.63 867.116,803.963 868,810.5C 874.221,859.188 855.721,894.688 812.5,917C 769.275,933.401 732.108,924.568 701,890.5C 675.231,856.459 671.565,820.126 690,781.5C 707.018,752.296 732.185,735.296 765.5,730.5 Z"/></g>
<g><path style="opacity:1" fill="#5c5c5c" d="M 495.5,732.5 C 535.753,730.707 566.587,746.707 588,780.5C 607.14,818.73 604.14,855.063 579,889.5C 545.451,927.591 505.285,936.425 458.5,916C 431.198,900.342 415.365,876.842 411,845.5C 405.481,800.378 421.981,766.212 460.5,743C 471.714,737.535 483.381,734.035 495.5,732.5 Z"/></g>
<g><path style="opacity:1" fill="#666666" d="M 762.5,735.5 C 806.627,733.172 838.127,751.839 857,791.5C 869.355,825.888 865.021,857.888 844,887.5C 818.779,916.684 787.279,926.85 749.5,918C 717.864,907.03 697.031,885.53 687,853.5C 677.26,807.364 692.094,771.531 731.5,746C 741.441,740.965 751.775,737.465 762.5,735.5 Z"/></g>
<g><path style="opacity:1" fill="#666666" d="M 498.5,736.5 C 538.97,736.188 568.47,753.854 587,789.5C 603.485,833.029 594.652,870.529 560.5,902C 524.028,928.598 487.028,929.265 449.5,904C 419.982,877.477 409.482,844.644 418,805.5C 426.891,772.275 447.725,750.442 480.5,740C 486.581,738.503 492.581,737.336 498.5,736.5 Z"/></g>
<g><path style="opacity:1" fill="#717171" d="M 491.5,739.5 C 544.177,736.693 577.344,760.693 591,811.5C 596.569,853.511 581.736,886.011 546.5,909C 524.806,920.264 502.139,922.597 478.5,916C 439.359,900.581 419.359,871.747 418.5,829.5C 418.98,792.016 435.647,764.516 468.5,747C 476.119,743.96 483.785,741.46 491.5,739.5 Z"/></g>
<g><path style="opacity:1" fill="#717171" d="M 768.5,737.5 C 807.379,737.679 835.546,755.012 853,789.5C 867.057,825.608 862.391,858.941 839,889.5C 811.584,918.145 779.084,925.979 741.5,913C 706.741,895.677 688.408,867.51 686.5,828.5C 687.905,790.159 705.572,762.325 739.5,745C 748.95,741.118 758.616,738.618 768.5,737.5 Z"/></g>
<g><path style="opacity:1" fill="#7d7d7d" d="M 767.5,741.5 C 806.395,741.684 833.895,759.351 850,794.5C 863.943,835.228 855.11,870.062 823.5,899C 791.017,921.815 758.35,922.148 725.5,900C 692.329,870.82 683.162,835.32 698,793.5C 711.668,763.315 734.835,745.982 767.5,741.5 Z"/></g>
<g><path style="opacity:1" fill="#7d7d7d" d="M 496.5,742.5 C 543.012,741.996 572.845,763.996 586,808.5C 592.936,850.071 579.102,882.571 544.5,906C 506.217,924.137 472.384,917.97 443,887.5C 424.921,864.072 418.921,837.739 425,808.5C 435.004,771.323 458.837,749.323 496.5,742.5 Z"/></g>
<g><path style="opacity:1" fill="#919191" d="M 495.5,746.5 C 544.974,745.82 574.141,769.82 583,818.5C 585.796,854.068 572.629,881.901 543.5,902C 510.718,918.555 480.384,914.888 452.5,891C 427.493,862.964 421.327,831.13 434,795.5C 446.131,768.524 466.631,752.191 495.5,746.5 Z"/></g>
<g><path style="opacity:1" fill="#8d8d8d" d="M 761.5,746.5 C 804.578,744.109 833.412,763.109 848,803.5C 857.957,842.896 847.124,875.062 815.5,900C 777.312,921.052 743.479,915.552 714,883.5C 689.71,848.047 689.377,812.38 713,776.5C 725.488,760.508 741.655,750.508 761.5,746.5 Z"/></g>
<g><path style="opacity:1" fill="#f31c1b" d="M 493.5,749.5 C 537.982,747.665 565.815,768.331 577,811.5C 582.601,844.701 573.101,872.534 548.5,895C 526.555,910.889 502.888,913.889 477.5,904C 447.925,888.202 432.925,863.368 432.5,829.5C 432.84,795.69 447.84,770.857 477.5,755C 482.844,752.841 488.177,751.008 493.5,749.5 Z"/></g>
<g><path style="opacity:1" fill="#f31c1b" d="M 816.5,763.5 C 841.818,785.952 851.318,813.952 845,847.5C 841.017,864.801 832.85,879.801 820.5,892.5C 800.686,908.597 778.353,913.43 753.5,907C 745.226,904.188 737.559,900.355 730.5,895.5C 697.174,862.053 691.674,824.386 714,782.5C 721.447,771.883 730.613,763.217 741.5,756.5C 760.49,748.2 779.823,747.367 799.5,754C 805.189,757.177 810.856,760.343 816.5,763.5 Z"/></g>
<g><path style="opacity:1" fill="#999999" d="M 741.5,756.5 C 730.613,763.217 721.447,771.883 714,782.5C 691.674,824.386 697.174,862.053 730.5,895.5C 729.448,895.649 728.448,895.483 727.5,895C 698.748,868.159 690.581,835.992 703,798.5C 710.176,779.163 723.009,765.163 741.5,756.5 Z"/></g>
<g><path style="opacity:1" fill="#9a9a9a" d="M 816.5,763.5 C 817.552,763.351 818.552,763.517 819.5,764C 849.101,791.908 856.934,825.075 843,863.5C 838.225,875.423 830.725,885.089 820.5,892.5C 832.85,879.801 841.017,864.801 845,847.5C 851.318,813.952 841.818,785.952 816.5,763.5 Z"/></g>
<g><path style="opacity:1" fill="#f31c1b" d="M 406.5,883.5 C 407.779,882.285 408.779,882.618 409.5,884.5C 408.833,884.833 408.167,885.167 407.5,885.5C 407.672,884.508 407.338,883.842 406.5,883.5 Z"/></g>
<g><path style="opacity:1" fill="#696969" d="M 406.5,883.5 C 407.338,883.842 407.672,884.508 407.5,885.5C 406.833,886.167 406.167,886.833 405.5,887.5C 405.433,886.041 405.766,884.708 406.5,883.5 Z"/></g>
<g><path style="opacity:1" fill="#f31c1c" d="M 407.5,885.5 C 408.068,890.637 408.734,895.637 409.5,900.5C 409.232,902.099 409.566,903.432 410.5,904.5C 410.5,904.833 410.5,905.167 410.5,905.5C 409.07,907.455 409.403,909.121 411.5,910.5C 411.5,910.833 411.5,911.167 411.5,911.5C 410.147,913.128 410.481,914.462 412.5,915.5C 412.5,915.833 412.5,916.167 412.5,916.5C 412.062,916.435 411.728,916.601 411.5,917C 411.974,918.729 412.974,919.895 414.5,920.5C 414.5,920.833 414.5,921.167 414.5,921.5C 414.216,924.857 415.549,927.191 418.5,928.5C 416.969,929.925 417.302,930.591 419.5,930.5C 418.805,932.437 419.805,933.437 422.5,933.5C 422.5,933.833 422.5,934.167 422.5,934.5C 421.258,936.346 421.591,936.679 423.5,935.5C 423.563,938.195 424.563,939.195 426.5,938.5C 427.391,939.11 428.391,939.443 429.5,939.5C 429.5,939.833 429.5,940.167 429.5,940.5C 429.511,942.017 430.177,943.184 431.5,944C 434.173,945.001 436.507,946.501 438.5,948.5C 439.107,948.376 439.44,948.043 439.5,947.5C 439.833,947.5 440.167,947.5 440.5,947.5C 440.409,949.698 441.075,950.031 442.5,948.5C 442.987,949.473 443.487,950.473 444,951.5C 446.272,951.438 448.438,951.438 450.5,951.5C 452.415,951.216 454.081,951.549 455.5,952.5C 458.356,954.006 461.523,954.672 465,954.5C 467.361,954.496 469.527,954.163 471.5,953.5C 477.762,953.985 483.929,952.985 490,950.5C 491.03,950.164 491.53,949.497 491.5,948.5C 491.833,948.5 492.167,948.5 492.5,948.5C 493.895,948.438 495.395,948.438 497,948.5C 498.376,947.295 499.542,945.962 500.5,944.5C 503.678,945.049 506.011,943.716 507.5,940.5C 509.179,940.715 510.179,940.048 510.5,938.5C 510.833,938.5 511.167,938.5 511.5,938.5C 511.435,938.938 511.601,939.272 512,939.5C 513.57,938.386 514.903,937.053 516,935.5C 516.333,935.833 516.667,936.167 517,936.5C 518.461,934.532 520.295,933.198 522.5,932.5C 526.108,930.068 529.441,928.068 532.5,926.5C 537.04,925.09 541.206,923.09 545,920.5C 546.25,921.573 547.584,921.573 549,920.5C 550.03,920.164 550.53,919.497 550.5,918.5C 552.708,920.143 554.541,919.81 556,917.5C 557.292,918.791 558.458,918.791 559.5,917.5C 564.826,917.164 570.16,916.831 575.5,916.5C 578.385,916.194 581.052,916.527 583.5,917.5C 584.958,919.011 586.791,920.011 589,920.5C 589.383,919.944 589.883,919.611 590.5,919.5C 591.105,921.481 592.105,921.815 593.5,920.5C 594.911,922.539 596.911,923.539 599.5,923.5C 600.401,925.727 602.067,926.727 604.5,926.5C 604.5,927.833 605.167,928.5 606.5,928.5C 607.492,928.328 608.158,928.662 608.5,929.5C 608.389,930.117 608.056,930.617 607.5,931C 609.391,932.442 611.391,933.609 613.5,934.5C 613.5,935.167 613.833,935.5 614.5,935.5C 614.5,935.833 614.5,936.167 614.5,936.5C 613.34,938.203 614.007,938.869 616.5,938.5C 616.5,938.833 616.5,939.167 616.5,939.5C 615.761,939.369 615.094,939.536 614.5,940C 615.5,940.833 616.5,941.667 617.5,942.5C 618.955,945.755 620.622,948.755 622.5,951.5C 622.586,952.496 622.252,953.329 621.5,954C 622.094,954.464 622.761,954.631 623.5,954.5C 623.5,954.833 623.5,955.167 623.5,955.5C 622.288,957.264 622.621,958.93 624.5,960.5C 626.145,959.964 626.478,959.297 625.5,958.5C 625.5,958.167 625.5,957.833 625.5,957.5C 626.376,957.631 627.043,957.298 627.5,956.5C 628.485,952.011 630.818,948.511 634.5,946C 633.584,945.722 632.918,945.222 632.5,944.5C 634.044,944.297 635.378,943.63 636.5,942.5C 637.687,943.894 638.354,943.727 638.5,942C 638.164,940.97 637.497,940.47 636.5,940.5C 637.167,939.167 638.167,938.167 639.5,937.5C 642.494,937.854 643.494,936.854 642.5,934.5C 643.496,934.414 644.329,934.748 645,935.5C 645.483,934.552 645.649,933.552 645.5,932.5C 645.833,932.5 646.167,932.5 646.5,932.5C 647.117,932.611 647.617,932.944 648,933.5C 650.165,932.087 651.999,930.421 653.5,928.5C 655.83,929.28 657.83,928.613 659.5,926.5C 661.263,927.954 662.597,927.62 663.5,925.5C 663.833,925.5 664.167,925.5 664.5,925.5C 667.33,926.459 669.996,926.126 672.5,924.5C 674.167,923.167 675.833,923.167 677.5,924.5C 678.172,925.267 679.005,925.934 680,926.5C 682.139,926.457 684.306,926.123 686.5,925.5C 686.833,925.5 687.167,925.5 687.5,925.5C 688.403,927.62 689.737,927.954 691.5,926.5C 691.611,927.117 691.944,927.617 692.5,928C 695.149,928.452 697.649,929.286 700,930.5C 700.399,930.272 700.565,929.938 700.5,929.5C 700.833,929.5 701.167,929.5 701.5,929.5C 701.461,930.756 701.961,931.756 703,932.5C 704.605,932.438 706.105,932.438 707.5,932.5C 707.833,932.5 708.167,932.5 708.5,932.5C 709.902,934.483 711.736,936.149 714,937.5C 714.399,937.272 714.565,936.938 714.5,936.5C 715.167,936.5 715.833,936.5 716.5,936.5C 717.945,938.063 719.611,939.396 721.5,940.5C 722.373,942.886 723.873,944.886 726,946.5C 726.383,945.944 726.883,945.611 727.5,945.5C 727.91,948.292 729.244,949.292 731.5,948.5C 733.051,951.563 735.218,954.229 738,956.5C 738.399,956.272 738.565,955.938 738.5,955.5C 739.167,955.833 739.833,956.167 740.5,956.5C 741.373,958.886 742.873,960.886 745,962.5C 745.399,962.272 745.565,961.938 745.5,961.5C 745.833,961.5 746.167,961.5 746.5,961.5C 746.5,963.5 747.5,964.5 749.5,964.5C 750.492,964.328 751.158,964.662 751.5,965.5C 752.742,967.25 754.242,968.917 756,970.5C 756.383,969.944 756.883,969.611 757.5,969.5C 757.409,971.698 758.075,972.031 759.5,970.5C 759.369,971.376 759.702,972.043 760.5,972.5C 761.429,973.55 762.095,973.55 762.5,972.5C 762.833,972.5 763.167,972.5 763.5,972.5C 762.31,975.906 762.977,976.239 765.5,973.5C 765.409,975.698 766.075,976.031 767.5,974.5C 768.105,976.481 769.105,976.815 770.5,975.5C 771.105,977.481 772.105,977.815 773.5,976.5C 775.099,976.232 776.432,976.566 777.5,977.5C 778.995,979.345 780.662,979.678 782.5,978.5C 782.833,978.5 783.167,978.5 783.5,978.5C 783.918,979.222 784.584,979.722 785.5,980C 790.167,980.667 794.833,980.667 799.5,980C 800.056,979.617 800.389,979.117 800.5,978.5C 800.833,978.5 801.167,978.5 801.5,978.5C 803.323,979.227 805.157,979.561 807,979.5C 807.698,978.309 808.531,977.309 809.5,976.5C 811.687,977.434 813.354,976.767 814.5,974.5C 815.391,973.89 816.391,973.557 817.5,973.5C 817.435,973.938 817.601,974.272 818,974.5C 819.067,973.809 820.234,973.309 821.5,973C 820.944,972.617 820.611,972.117 820.5,971.5C 823.878,972.109 825.878,970.776 826.5,967.5C 830.033,966.971 832.367,964.971 833.5,961.5C 836.007,961.368 836.674,960.368 835.5,958.5C 836.833,958.5 837.5,957.833 837.5,956.5C 838.933,955.167 840.267,953.667 841.5,952C 840.944,951.617 840.611,951.117 840.5,950.5C 842.698,950.591 843.031,949.925 841.5,948.5C 843.098,946.605 844.432,944.438 845.5,942C 844.944,941.617 844.611,941.117 844.5,940.5C 846.481,939.895 846.815,938.895 845.5,937.5C 845.5,937.167 845.5,936.833 845.5,936.5C 847.62,935.597 847.954,934.263 846.5,932.5C 847.947,931.378 848.947,929.878 849.5,928C 848.906,927.536 848.239,927.369 847.5,927.5C 847.5,927.167 847.5,926.833 847.5,926.5C 849.011,924.524 849.844,922.191 850,919.5C 850.654,918.304 851.154,918.304 851.5,919.5C 851.276,925.731 851.276,932.065 851.5,938.5C 851.5,938.833 851.5,939.167 851.5,939.5C 849.31,940.748 848.977,942.414 850.5,944.5C 850.5,944.833 850.5,945.167 850.5,945.5C 848.618,946.221 848.285,947.221 849.5,948.5C 849.5,948.833 849.5,949.167 849.5,949.5C 847.448,950.053 847.115,951.053 848.5,952.5C 848.59,955.152 847.924,957.485 846.5,959.5C 844.519,960.105 844.185,961.105 845.5,962.5C 843.341,963.785 842.674,965.452 843.5,967.5C 841.896,968.287 841.229,969.62 841.5,971.5C 839.386,972.36 838.22,974.027 838,976.5C 837.086,975.346 836.253,975.513 835.5,977C 836.044,977.717 836.711,978.217 837.5,978.5C 837.5,978.833 837.5,979.167 837.5,979.5C 835.554,980.035 834.554,981.368 834.5,983.5C 832.238,984.345 831.571,985.678 832.5,987.5C 831.504,987.414 830.671,987.748 830,988.5C 828.121,990.527 826.954,992.86 826.5,995.5C 824.167,995.833 822.833,997.167 822.5,999.5C 821.833,1000.83 820.833,1001.83 819.5,1002.5C 816.833,1003.17 815.167,1004.83 814.5,1007.5C 812.983,1007.51 811.816,1008.18 811,1009.5C 810.667,1009.17 810.333,1008.83 810,1008.5C 809.59,1009.9 809.09,1011.23 808.5,1012.5C 806.251,1013.08 804.585,1014.41 803.5,1016.5C 802.167,1016.5 801.5,1017.17 801.5,1018.5C 801.167,1018.5 800.833,1018.5 800.5,1018.5C 800.565,1018.06 800.399,1017.73 800,1017.5C 797.929,1018.1 796.762,1019.44 796.5,1021.5C 794.62,1021.23 793.287,1021.9 792.5,1023.5C 791.71,1024.4 790.71,1025.07 789.5,1025.5C 788.075,1023.97 787.409,1024.3 787.5,1026.5C 787.167,1026.5 786.833,1026.5 786.5,1026.5C 785.673,1025.56 785.006,1025.89 784.5,1027.5C 784.158,1028.34 783.492,1028.67 782.5,1028.5C 781.075,1026.97 780.409,1027.3 780.5,1029.5C 779.105,1028.19 778.105,1028.52 777.5,1030.5C 776.791,1031.4 775.791,1031.74 774.5,1031.5C 772.473,1031.34 770.473,1031.5 768.5,1032C 767.944,1032.38 767.611,1032.88 767.5,1033.5C 764.756,1032.52 762.423,1033.19 760.5,1035.5C 760.167,1035.5 759.833,1035.5 759.5,1035.5C 759.265,1034.9 758.765,1034.57 758,1034.5C 754.195,1034.91 750.695,1035.91 747.5,1037.5C 747.167,1037.5 746.833,1037.5 746.5,1037.5C 732.831,1037.47 719.165,1037.47 705.5,1037.5C 704.833,1037.5 704.167,1037.5 703.5,1037.5C 701.007,1035.42 698.34,1035.08 695.5,1036.5C 695.167,1036.5 694.833,1036.5 694.5,1036.5C 692.68,1034.54 690.68,1034.21 688.5,1035.5C 688.167,1035.5 687.833,1035.5 687.5,1035.5C 687.38,1034.41 686.713,1033.75 685.5,1033.5C 684.584,1033.54 683.917,1033.88 683.5,1034.5C 683.167,1034.5 682.833,1034.5 682.5,1034.5C 681.779,1032.62 680.779,1032.28 679.5,1033.5C 677.708,1033.63 676.042,1033.3 674.5,1032.5C 671.667,1030.58 668.5,1028.91 665,1027.5C 664.617,1028.06 664.117,1028.39 663.5,1028.5C 663.167,1028.5 662.833,1028.5 662.5,1028.5C 662.591,1026.3 661.925,1025.97 660.5,1027.5C 659.655,1025.24 658.322,1024.57 656.5,1025.5C 655.167,1024.07 653.667,1022.73 652,1021.5C 651.601,1021.73 651.435,1022.06 651.5,1022.5C 651.167,1022.5 650.833,1022.5 650.5,1022.5C 650.179,1020.95 649.179,1020.29 647.5,1020.5C 647.611,1019.88 647.944,1019.38 648.5,1019C 647.069,1018.53 645.903,1017.7 645,1016.5C 644.617,1017.06 644.117,1017.39 643.5,1017.5C 642.595,1015.09 641.095,1013.09 639,1011.5C 638.601,1011.73 638.435,1012.06 638.5,1012.5C 637.5,1012.17 636.833,1011.5 636.5,1010.5C 635.833,1007.83 634.167,1006.17 631.5,1005.5C 632.674,1003.63 632.007,1002.63 629.5,1002.5C 628.89,1001.61 628.557,1000.61 628.5,999.5C 628.938,999.565 629.272,999.399 629.5,999C 628.922,997.583 627.922,996.75 626.5,996.5C 626.611,995.883 626.944,995.383 627.5,995C 626.384,992.261 625.051,989.761 623.5,987.5C 623.5,987.167 623.5,986.833 623.5,986.5C 624.737,985.257 624.404,984.257 622.5,983.5C 621.713,984.242 621.047,985.075 620.5,986C 620.728,986.399 621.062,986.565 621.5,986.5C 621.5,986.833 621.5,987.167 621.5,987.5C 618.804,990.344 616.471,994.01 614.5,998.5C 614.672,999.492 614.338,1000.16 613.5,1000.5C 610.833,1001.17 609.167,1002.83 608.5,1005.5C 605.805,1005.93 603.638,1007.27 602,1009.5C 601.667,1009.17 601.333,1008.83 601,1008.5C 600.079,1009.71 599.579,1011.04 599.5,1012.5C 598.833,1012.83 598.167,1013.17 597.5,1013.5C 594.687,1013.02 592.687,1014.02 591.5,1016.5C 590.791,1017.4 589.791,1017.74 588.5,1017.5C 588.565,1017.06 588.399,1016.73 588,1016.5C 584.653,1018.06 581.153,1019.23 577.5,1020C 576.944,1020.38 576.611,1020.88 576.5,1021.5C 574.999,1020.56 573.665,1020.89 572.5,1022.5C 572.167,1022.5 571.833,1022.5 571.5,1022.5C 571.44,1021.96 571.107,1021.62 570.5,1021.5C 563.488,1022.28 556.488,1023.28 549.5,1024.5C 548.167,1024.5 546.833,1024.5 545.5,1024.5C 537.956,1023.58 530.456,1022.58 523,1021.5C 521.862,1021.99 520.695,1022.32 519.5,1022.5C 517.792,1020.49 515.792,1020.15 513.5,1021.5C 511.792,1019.49 509.792,1019.15 507.5,1020.5C 507.167,1020.5 506.833,1020.5 506.5,1020.5C 505.462,1018.48 504.128,1018.15 502.5,1019.5C 502.167,1019.5 501.833,1019.5 501.5,1019.5C 500.295,1017.86 498.962,1017.53 497.5,1018.5C 497.167,1018.5 496.833,1018.5 496.5,1018.5C 495.779,1016.62 494.779,1016.28 493.5,1017.5C 493.167,1017.5 492.833,1017.5 492.5,1017.5C 492.389,1016.88 492.056,1016.38 491.5,1016C 483.142,1013.87 475.142,1010.87 467.5,1007C 466.748,1006.33 466.414,1005.5 466.5,1004.5C 465.292,1005.23 463.959,1005.57 462.5,1005.5C 461.292,1002.96 459.292,1001.62 456.5,1001.5C 454.502,999.4 452.335,997.4 450,995.5C 449.601,995.728 449.435,996.062 449.5,996.5C 449.167,996.5 448.833,996.5 448.5,996.5C 447.805,994.022 446.305,992.022 444,990.5C 443.617,991.056 443.117,991.389 442.5,991.5C 441.833,990.167 440.833,989.167 439.5,988.5C 438.61,985.776 437.11,983.443 435,981.5C 434.617,982.056 434.117,982.389 433.5,982.5C 433.5,982.167 433.5,981.833 433.5,981.5C 433.443,980.391 433.11,979.391 432.5,978.5C 431.778,978.082 431.278,977.416 431,976.5C 430.617,977.056 430.117,977.389 429.5,977.5C 429.5,977.167 429.5,976.833 429.5,976.5C 428.527,973.865 426.86,971.865 424.5,970.5C 424.625,967.392 423.292,965.392 420.5,964.5C 420.5,964.167 420.5,963.833 420.5,963.5C 420.938,963.565 421.272,963.399 421.5,963C 418.961,960.464 417.795,957.63 418,954.5C 417.667,954.833 417.333,955.167 417,955.5C 416.623,954.058 415.79,953.058 414.5,952.5C 416.031,951.075 415.698,950.409 413.5,950.5C 412.596,949.791 412.263,948.791 412.5,947.5C 413.043,947.44 413.376,947.107 413.5,946.5C 412.639,944.089 411.306,942.089 409.5,940.5C 409.5,940.167 409.5,939.833 409.5,939.5C 410.439,938.673 410.105,938.006 408.5,937.5C 408.5,937.167 408.5,936.833 408.5,936.5C 409.715,935.221 409.382,934.221 407.5,933.5C 407.5,933.167 407.5,932.833 407.5,932.5C 408.715,931.221 408.382,930.221 406.5,929.5C 406.5,929.167 406.5,928.833 406.5,928.5C 407.097,928.265 407.43,927.765 407.5,927C 406.815,924.205 406.315,921.372 406,918.5C 405.617,917.944 405.117,917.611 404.5,917.5C 404.5,917.167 404.5,916.833 404.5,916.5C 405.833,909.5 405.833,902.5 404.5,895.5C 404.5,895.167 404.5,894.833 404.5,894.5C 406.461,892.68 406.794,890.68 405.5,888.5C 405.5,888.167 405.5,887.833 405.5,887.5C 406.167,886.833 406.833,886.167 407.5,885.5 Z"/></g>
<g><path style="opacity:1" fill="#191818" d="M 409.5,884.5 C 409.5,889.833 409.5,895.167 409.5,900.5C 408.734,895.637 408.068,890.637 407.5,885.5C 408.167,885.167 408.833,884.833 409.5,884.5 Z"/></g>
<g><path style="opacity:1" fill="#5d5a5a" d="M 405.5,888.5 C 406.794,890.68 406.461,892.68 404.5,894.5C 404.325,892.379 404.659,890.379 405.5,888.5 Z"/></g>
<g><path style="opacity:1" fill="#737272" d="M 404.5,895.5 C 405.833,902.5 405.833,909.5 404.5,916.5C 403.167,909.5 403.167,902.5 404.5,895.5 Z"/></g>
<g><path style="opacity:1" fill="#6f6f6f" d="M 410.5,905.5 C 411.301,907.042 411.634,908.708 411.5,910.5C 409.403,909.121 409.07,907.455 410.5,905.5 Z"/></g>
<g><path style="opacity:1" fill="#585956" d="M 411.5,911.5 C 412.234,912.708 412.567,914.041 412.5,915.5C 410.481,914.462 410.147,913.128 411.5,911.5 Z"/></g>
<g><path style="opacity:1" fill="#535451" d="M 412.5,916.5 C 413.674,917.514 414.34,918.847 414.5,920.5C 412.974,919.895 411.974,918.729 411.5,917C 411.728,916.601 412.062,916.435 412.5,916.5 Z"/></g>
<g><path style="opacity:1" fill="#746866" d="M 583.5,917.5 C 586.152,917.41 588.485,918.076 590.5,919.5C 589.883,919.611 589.383,919.944 589,920.5C 586.791,920.011 584.958,919.011 583.5,917.5 Z"/></g>
<g><path style="opacity:1" fill="#929191" d="M 593.5,920.5 C 592.105,921.815 591.105,921.481 590.5,919.5C 591.895,918.185 592.895,918.519 593.5,920.5 Z"/></g>
<g><path style="opacity:1" fill="#554d4c" d="M 404.5,917.5 C 405.117,917.611 405.617,917.944 406,918.5C 406.315,921.372 406.815,924.205 407.5,927C 407.43,927.765 407.097,928.265 406.5,928.5C 405.313,925.054 404.646,921.387 404.5,917.5 Z"/></g>
<g><path style="opacity:1" fill="#716f6d" d="M 593.5,920.5 C 595.819,920.992 597.819,921.992 599.5,923.5C 596.911,923.539 594.911,922.539 593.5,920.5 Z"/></g>
<g><path style="opacity:1" fill="#575554" d="M 851.5,915.5 C 852.812,923.265 852.812,930.932 851.5,938.5C 851.276,932.065 851.276,925.731 851.5,919.5C 851.154,918.304 850.654,918.304 850,919.5C 849.844,922.191 849.011,924.524 847.5,926.5C 847.674,923.126 848.174,919.793 849,916.5C 849.671,915.748 850.504,915.414 851.5,915.5 Z"/></g>
<g><path style="opacity:1" fill="#575656" d="M 414.5,921.5 C 415.5,922.833 416.5,924.167 417.5,925.5C 417.557,926.609 417.89,927.609 418.5,928.5C 415.549,927.191 414.216,924.857 414.5,921.5 Z"/></g>
<g><path style="opacity:1" fill="#787878" d="M 599.5,923.5 C 601.434,924.11 603.101,925.11 604.5,926.5C 602.067,926.727 600.401,925.727 599.5,923.5 Z"/></g>
<g><path style="opacity:1" fill="#595757" d="M 664.5,925.5 C 666.948,924.527 669.615,924.194 672.5,924.5C 669.996,926.126 667.33,926.459 664.5,925.5 Z"/></g>
<g><path style="opacity:1" fill="#605654" d="M 677.5,924.5 C 680.713,924.19 683.713,924.523 686.5,925.5C 684.306,926.123 682.139,926.457 680,926.5C 679.005,925.934 678.172,925.267 677.5,924.5 Z"/></g>
<g><path style="opacity:1" fill="#6b6b6b" d="M 659.5,926.5 C 660.568,925.566 661.901,925.232 663.5,925.5C 662.597,927.62 661.263,927.954 659.5,926.5 Z"/></g>
<g><path style="opacity:1" fill="#5c5c5c" d="M 687.5,925.5 C 689.099,925.232 690.432,925.566 691.5,926.5C 689.737,927.954 688.403,927.62 687.5,925.5 Z"/></g>
<g><path style="opacity:1" fill="#484848" d="M 604.5,926.5 C 605.5,926.833 606.167,927.5 606.5,928.5C 605.167,928.5 604.5,927.833 604.5,926.5 Z"/></g>
<g><path style="opacity:1" fill="#616161" d="M 659.5,926.5 C 657.83,928.613 655.83,929.28 653.5,928.5C 653.783,927.711 654.283,927.044 655,926.5C 656.299,926.966 657.799,926.966 659.5,926.5 Z"/></g>
<g><path style="opacity:1" fill="#444343" d="M 691.5,926.5 C 694.785,926.928 697.785,927.928 700.5,929.5C 700.565,929.938 700.399,930.272 700,930.5C 697.649,929.286 695.149,928.452 692.5,928C 691.944,927.617 691.611,927.117 691.5,926.5 Z"/></g>
<g><path style="opacity:1" fill="#655a57" d="M 418.5,928.5 C 418.833,928.5 419.167,928.5 419.5,928.5C 419.5,929.167 419.5,929.833 419.5,930.5C 417.302,930.591 416.969,929.925 418.5,928.5 Z"/></g>
<g><path style="opacity:1" fill="#605d5c" d="M 847.5,927.5 C 848.239,927.369 848.906,927.536 849.5,928C 848.947,929.878 847.947,931.378 846.5,932.5C 846.216,930.585 846.549,928.919 847.5,927.5 Z"/></g>
<g><path style="opacity:1" fill="#434241" d="M 406.5,929.5 C 408.382,930.221 408.715,931.221 407.5,932.5C 406.596,931.791 406.263,930.791 406.5,929.5 Z"/></g>
<g><path style="opacity:1" fill="#635d5a" d="M 419.5,930.5 C 420.5,931.167 421.5,931.833 422.5,932.5C 422.5,932.833 422.5,933.167 422.5,933.5C 419.805,933.437 418.805,932.437 419.5,930.5 Z"/></g>
<g><path style="opacity:1" fill="#5c5a59" d="M 608.5,929.5 C 610.5,930.833 612.167,932.5 613.5,934.5C 611.391,933.609 609.391,932.442 607.5,931C 608.056,930.617 608.389,930.117 608.5,929.5 Z"/></g>
<g><path style="opacity:1" fill="#473e3a" d="M 653.5,928.5 C 651.999,930.421 650.165,932.087 648,933.5C 647.617,932.944 647.117,932.611 646.5,932.5C 648.336,930.412 650.669,929.079 653.5,928.5 Z"/></g>
<g><path style="opacity:1" fill="#5c504f" d="M 701.5,929.5 C 703.819,929.992 705.819,930.992 707.5,932.5C 706.105,932.438 704.605,932.438 703,932.5C 701.961,931.756 701.461,930.756 701.5,929.5 Z"/></g>
<g><path style="opacity:1" fill="#494947" d="M 645.5,932.5 C 645.649,933.552 645.483,934.552 645,935.5C 644.329,934.748 643.496,934.414 642.5,934.5C 643.29,933.599 644.29,932.932 645.5,932.5 Z"/></g>
<g><path style="opacity:1" fill="#555454" d="M 708.5,932.5 C 710.5,933.5 712.5,934.5 714.5,935.5C 714.5,935.833 714.5,936.167 714.5,936.5C 714.565,936.938 714.399,937.272 714,937.5C 711.736,936.149 709.902,934.483 708.5,932.5 Z"/></g>
<g><path style="opacity:1" fill="#534745" d="M 407.5,933.5 C 409.382,934.221 409.715,935.221 408.5,936.5C 407.596,935.791 407.263,934.791 407.5,933.5 Z"/></g>
<g><path style="opacity:1" fill="#322826" d="M 422.5,934.5 C 423.167,934.5 423.5,934.833 423.5,935.5C 421.591,936.679 421.258,936.346 422.5,934.5 Z"/></g>
<g><path style="opacity:1" fill="#4b3e3c" d="M 642.5,934.5 C 643.494,936.854 642.494,937.854 639.5,937.5C 640.167,936.167 641.167,935.167 642.5,934.5 Z"/></g>
<g><path style="opacity:1" fill="#6b6b6b" d="M 846.5,932.5 C 847.954,934.263 847.62,935.597 845.5,936.5C 845.232,934.901 845.566,933.568 846.5,932.5 Z"/></g>
<g><path style="opacity:0.761" fill="#90564b" d="M 614.5,936.5 C 615.5,936.833 616.167,937.5 616.5,938.5C 614.007,938.869 613.34,938.203 614.5,936.5 Z"/></g>
<g><path style="opacity:1" fill="#8c8a88" d="M 408.5,937.5 C 410.105,938.006 410.439,938.673 409.5,939.5C 408.662,939.158 408.328,938.492 408.5,937.5 Z"/></g>
<g><path style="opacity:1" fill="#2d2d2d" d="M 423.5,935.5 C 424.833,936.167 425.833,937.167 426.5,938.5C 424.563,939.195 423.563,938.195 423.5,935.5 Z"/></g>
<g><path style="opacity:1" fill="#7c7070" d="M 845.5,937.5 C 846.815,938.895 846.481,939.895 844.5,940.5C 844.263,939.209 844.596,938.209 845.5,937.5 Z"/></g>
<g><path style="opacity:1" fill="#585956" d="M 510.5,938.5 C 510.179,940.048 509.179,940.715 507.5,940.5C 508.29,939.599 509.29,938.932 510.5,938.5 Z"/></g>
<g><path style="opacity:1" fill="#5c5251" d="M 616.5,939.5 C 617.458,939.953 618.292,940.619 619,941.5C 620.467,944.758 621.633,948.092 622.5,951.5C 620.622,948.755 618.955,945.755 617.5,942.5C 616.5,941.667 615.5,940.833 614.5,940C 615.094,939.536 615.761,939.369 616.5,939.5 Z"/></g>
<g><path style="opacity:1" fill="#5d514e" d="M 507.5,940.5 C 506.011,943.716 503.678,945.049 500.5,944.5C 502.535,942.805 504.868,941.472 507.5,940.5 Z"/></g>
<g><path style="opacity:0.761" fill="#502c27" d="M 636.5,940.5 C 637.497,940.47 638.164,940.97 638.5,942C 638.354,943.727 637.687,943.894 636.5,942.5C 635.378,943.63 634.044,944.297 632.5,944.5C 633.5,942.833 634.833,941.5 636.5,940.5 Z"/></g>
<g><path style="opacity:1" fill="#756e6e" d="M 844.5,940.5 C 844.611,941.117 844.944,941.617 845.5,942C 844.432,944.438 843.098,946.605 841.5,948.5C 842.129,945.603 843.129,942.936 844.5,940.5 Z"/></g>
<g><path style="opacity:1" fill="#525350" d="M 851.5,939.5 C 851.784,941.415 851.451,943.081 850.5,944.5C 848.977,942.414 849.31,940.748 851.5,939.5 Z"/></g>
<g><path style="opacity:1" fill="#664e48" d="M 721.5,940.5 C 723.54,942.177 725.54,943.844 727.5,945.5C 726.883,945.611 726.383,945.944 726,946.5C 723.873,944.886 722.373,942.886 721.5,940.5 Z"/></g>
<g><path style="opacity:1" fill="#4b4644" d="M 429.5,940.5 C 430.922,941.925 432.589,942.925 434.5,943.5C 436.167,944.833 437.833,946.167 439.5,947.5C 439.44,948.043 439.107,948.376 438.5,948.5C 436.507,946.501 434.173,945.001 431.5,944C 430.177,943.184 429.511,942.017 429.5,940.5 Z"/></g>
<g><path style="opacity:1" fill="#464645" d="M 409.5,940.5 C 411.306,942.089 412.639,944.089 413.5,946.5C 413.376,947.107 413.043,947.44 412.5,947.5C 410.935,945.491 409.935,943.157 409.5,940.5 Z"/></g>
<g><path style="opacity:1" fill="#5c4d4a" d="M 727.5,945.5 C 728.872,946.512 730.205,947.512 731.5,948.5C 729.244,949.292 727.91,948.292 727.5,945.5 Z"/></g>
<g><path style="opacity:1" fill="#6d6d6b" d="M 850.5,945.5 C 850.737,946.791 850.404,947.791 849.5,948.5C 848.285,947.221 848.618,946.221 850.5,945.5 Z"/></g>
<g><path style="opacity:1" fill="#8f908e" d="M 440.5,947.5 C 441.492,947.328 442.158,947.662 442.5,948.5C 441.075,950.031 440.409,949.698 440.5,947.5 Z"/></g>
<g><path style="opacity:1" fill="#615a57" d="M 500.5,944.5 C 499.542,945.962 498.376,947.295 497,948.5C 495.395,948.438 493.895,948.438 492.5,948.5C 494.849,946.659 497.515,945.326 500.5,944.5 Z"/></g>
<g><path style="opacity:1" fill="#72615c" d="M 442.5,948.5 C 445.397,949.129 448.064,950.129 450.5,951.5C 448.438,951.438 446.272,951.438 444,951.5C 443.487,950.473 442.987,949.473 442.5,948.5 Z"/></g>
<g><path style="opacity:0.839" fill="#5f5552" d="M 731.5,948.5 C 734.167,950.5 736.5,952.833 738.5,955.5C 738.565,955.938 738.399,956.272 738,956.5C 735.218,954.229 733.051,951.563 731.5,948.5 Z"/></g>
<g><path style="opacity:1" fill="#807d7c" d="M 841.5,948.5 C 843.031,949.925 842.698,950.591 840.5,950.5C 840.328,949.508 840.662,948.842 841.5,948.5 Z"/></g>
<g><path style="opacity:1" fill="#525252" d="M 413.5,950.5 C 415.698,950.409 416.031,951.075 414.5,952.5C 413.662,952.158 413.328,951.492 413.5,950.5 Z"/></g>
<g><path style="opacity:1" fill="#706562" d="M 491.5,948.5 C 491.53,949.497 491.03,950.164 490,950.5C 483.929,952.985 477.762,953.985 471.5,953.5C 469.833,953.5 468.167,953.5 466.5,953.5C 474.889,952.756 483.223,951.089 491.5,948.5 Z"/></g>
<g><path style="opacity:1" fill="#4e4c4a" d="M 632.5,944.5 C 632.918,945.222 633.584,945.722 634.5,946C 630.818,948.511 628.485,952.011 627.5,956.5C 627.043,957.298 626.376,957.631 625.5,957.5C 626.833,954.167 628.167,950.833 629.5,947.5C 630.728,946.694 631.728,945.694 632.5,944.5 Z"/></g>
<g><path style="opacity:1" fill="#534540" d="M 849.5,949.5 C 849.737,950.791 849.404,951.791 848.5,952.5C 847.115,951.053 847.448,950.053 849.5,949.5 Z"/></g>
<g><path style="opacity:1" fill="#706563" d="M 840.5,950.5 C 840.611,951.117 840.944,951.617 841.5,952C 840.267,953.667 838.933,955.167 837.5,956.5C 837.992,954.181 838.992,952.181 840.5,950.5 Z"/></g>
<g><path style="opacity:1" fill="#3d393a" d="M 455.5,952.5 C 459.234,952.323 462.901,952.656 466.5,953.5C 468.167,953.5 469.833,953.5 471.5,953.5C 469.527,954.163 467.361,954.496 465,954.5C 461.523,954.672 458.356,954.006 455.5,952.5 Z"/></g>
<g><path style="opacity:1" fill="#6f6d6c" d="M 622.5,951.5 C 623.404,952.209 623.737,953.209 623.5,954.5C 622.761,954.631 622.094,954.464 621.5,954C 622.252,953.329 622.586,952.496 622.5,951.5 Z"/></g>
<g><path style="opacity:0.761" fill="#6b5652" d="M 740.5,956.5 C 742.5,957.833 744.167,959.5 745.5,961.5C 745.565,961.938 745.399,962.272 745,962.5C 742.873,960.886 741.373,958.886 740.5,956.5 Z"/></g>
<g><path style="opacity:1" fill="#505050" d="M 837.5,956.5 C 837.5,957.833 836.833,958.5 835.5,958.5C 835.833,957.5 836.5,956.833 837.5,956.5 Z"/></g>
<g><path style="opacity:1" fill="#53504e" d="M 414.5,952.5 C 415.79,953.058 416.623,954.058 417,955.5C 417.333,955.167 417.667,954.833 418,954.5C 417.795,957.63 418.961,960.464 421.5,963C 421.272,963.399 420.938,963.565 420.5,963.5C 417.722,960.279 415.722,956.612 414.5,952.5 Z"/></g>
<g><path style="opacity:1" fill="#655d5b" d="M 623.5,955.5 C 624.167,956.5 624.833,957.5 625.5,958.5C 626.478,959.297 626.145,959.964 624.5,960.5C 622.621,958.93 622.288,957.264 623.5,955.5 Z"/></g>
<g><path style="opacity:0.761" fill="#7a4137" d="M 835.5,958.5 C 836.674,960.368 836.007,961.368 833.5,961.5C 833.932,960.29 834.599,959.29 835.5,958.5 Z"/></g>
<g><path style="opacity:1" fill="#818180" d="M 846.5,959.5 C 846.737,960.791 846.404,961.791 845.5,962.5C 844.185,961.105 844.519,960.105 846.5,959.5 Z"/></g>
<g><path style="opacity:1" fill="#575757" d="M 746.5,961.5 C 747.833,962.167 748.833,963.167 749.5,964.5C 747.5,964.5 746.5,963.5 746.5,961.5 Z"/></g>
<g><path style="opacity:1" fill="#4b4b48" d="M 833.5,961.5 C 832.367,964.971 830.033,966.971 826.5,967.5C 828.853,965.477 831.186,963.477 833.5,961.5 Z"/></g>
<g><path style="opacity:1" fill="#626262" d="M 845.5,962.5 C 845.204,964.403 844.537,966.07 843.5,967.5C 842.674,965.452 843.341,963.785 845.5,962.5 Z"/></g>
<g><path style="opacity:1" fill="#514c4b" d="M 420.5,964.5 C 423.292,965.392 424.625,967.392 424.5,970.5C 422.808,968.795 421.475,966.795 420.5,964.5 Z"/></g>
<g><path style="opacity:1" fill="#605351" d="M 751.5,965.5 C 752.833,966.167 754.167,966.833 755.5,967.5C 755.842,968.338 756.508,968.672 757.5,968.5C 757.5,968.833 757.5,969.167 757.5,969.5C 756.883,969.611 756.383,969.944 756,970.5C 754.242,968.917 752.742,967.25 751.5,965.5 Z"/></g>
<g><path style="opacity:1" fill="#7e7e7e" d="M 843.5,967.5 C 843.34,969.153 842.674,970.486 841.5,971.5C 841.229,969.62 841.896,968.287 843.5,967.5 Z"/></g>
<g><path style="opacity:1" fill="#4d4b49" d="M 424.5,970.5 C 426.86,971.865 428.527,973.865 429.5,976.5C 427.11,975.109 425.443,973.109 424.5,970.5 Z"/></g>
<g><path style="opacity:1" fill="#5e5b5a" d="M 757.5,969.5 C 758.492,969.328 759.158,969.662 759.5,970.5C 758.075,972.031 757.409,971.698 757.5,969.5 Z"/></g>
<g><path style="opacity:1" fill="#4e4544" d="M 826.5,967.5 C 825.878,970.776 823.878,972.109 820.5,971.5C 822.463,970.18 824.463,968.846 826.5,967.5 Z"/></g>
<g><path style="opacity:1" fill="#5a443f" d="M 759.5,970.5 C 760.71,970.932 761.71,971.599 762.5,972.5C 762.095,973.55 761.429,973.55 760.5,972.5C 759.702,972.043 759.369,971.376 759.5,970.5 Z"/></g>
<g><path style="opacity:1" fill="#3c3c3c" d="M 820.5,971.5 C 820.611,972.117 820.944,972.617 821.5,973C 820.234,973.309 819.067,973.809 818,974.5C 817.601,974.272 817.435,973.938 817.5,973.5C 818.29,972.599 819.29,971.932 820.5,971.5 Z"/></g>
<g><path style="opacity:0.761" fill="#7c5b55" d="M 765.5,973.5 C 762.977,976.239 762.31,975.906 763.5,972.5C 764.925,970.969 765.591,971.302 765.5,973.5 Z"/></g>
<g><path style="opacity:1" fill="#50504e" d="M 765.5,973.5 C 766.492,973.328 767.158,973.662 767.5,974.5C 766.075,976.031 765.409,975.698 765.5,973.5 Z"/></g>
<g><path style="opacity:1" fill="#797977" d="M 767.5,974.5 C 768.791,974.263 769.791,974.596 770.5,975.5C 769.105,976.815 768.105,976.481 767.5,974.5 Z"/></g>
<g><path style="opacity:1" fill="#b4b4b2" d="M 773.5,976.5 C 772.105,977.815 771.105,977.481 770.5,975.5C 771.496,975.586 772.329,975.252 773,974.5C 773.464,975.094 773.631,975.761 773.5,976.5 Z"/></g>
<g><path style="opacity:1" fill="#5f5958" d="M 814.5,974.5 C 813.354,976.767 811.687,977.434 809.5,976.5C 810.93,975.463 812.597,974.796 814.5,974.5 Z"/></g>
<g><path style="opacity:1" fill="#4c4544" d="M 432.5,978.5 C 433.11,979.391 433.443,980.391 433.5,981.5C 431.833,980.5 430.5,979.167 429.5,977.5C 430.117,977.389 430.617,977.056 431,976.5C 431.278,977.416 431.778,978.082 432.5,978.5 Z"/></g>
<g><path style="opacity:1" fill="#867c7a" d="M 777.5,977.5 C 779.415,977.216 781.081,977.549 782.5,978.5C 780.662,979.678 778.995,979.345 777.5,977.5 Z"/></g>
<g><path style="opacity:1" fill="#544a49" d="M 809.5,976.5 C 808.531,977.309 807.698,978.309 807,979.5C 805.157,979.561 803.323,979.227 801.5,978.5C 803.961,977.469 806.627,976.802 809.5,976.5 Z"/></g>
<g><path style="opacity:1" fill="#6a524d" d="M 841.5,971.5 C 840.921,974.331 839.588,976.664 837.5,978.5C 836.711,978.217 836.044,977.717 835.5,977C 836.253,975.513 837.086,975.346 838,976.5C 838.22,974.027 839.386,972.36 841.5,971.5 Z"/></g>
<g><path style="opacity:1" fill="#372b2b" d="M 432.5,978.5 C 433.386,977.224 434.386,977.224 435.5,978.5C 434.767,979.087 433.767,979.087 432.5,978.5 Z"/></g>
<g><path style="opacity:1" fill="#524948" d="M 783.5,978.5 C 789.167,978.5 794.833,978.5 800.5,978.5C 800.389,979.117 800.056,979.617 799.5,980C 794.833,980.667 790.167,980.667 785.5,980C 784.584,979.722 783.918,979.222 783.5,978.5 Z"/></g>
<g><path style="opacity:1" fill="#5c5c5c" d="M 837.5,979.5 C 836.974,981.23 835.974,982.564 834.5,983.5C 834.554,981.368 835.554,980.035 837.5,979.5 Z"/></g>
<g><path style="opacity:1" fill="#6d5f5d" d="M 439.5,988.5 C 438.222,988.218 437.222,987.551 436.5,986.5C 435.5,985.167 434.5,983.833 433.5,982.5C 434.117,982.389 434.617,982.056 435,981.5C 437.11,983.443 438.61,985.776 439.5,988.5 Z"/></g>
<g><path style="opacity:1" fill="#7d7472" d="M 623.5,986.5 C 622.833,986.5 622.167,986.5 621.5,986.5C 621.062,986.565 620.728,986.399 620.5,986C 621.047,985.075 621.713,984.242 622.5,983.5C 624.404,984.257 624.737,985.257 623.5,986.5 Z"/></g>
<g><path style="opacity:1" fill="#635f5d" d="M 834.5,983.5 C 834.34,985.153 833.674,986.486 832.5,987.5C 831.571,985.678 832.238,984.345 834.5,983.5 Z"/></g>
<g><path style="opacity:0.99" fill="#262424" d="M 621.5,987.5 C 622.167,987.5 622.833,987.5 623.5,987.5C 623.993,989.806 624.326,992.139 624.5,994.5C 621.612,993.99 619.279,994.656 617.5,996.5C 616.5,997.167 615.5,997.833 614.5,998.5C 616.471,994.01 618.804,990.344 621.5,987.5 Z"/></g>
<g><path style="opacity:1" fill="#7b6863" d="M 623.5,987.5 C 625.051,989.761 626.384,992.261 627.5,995C 626.944,995.383 626.611,995.883 626.5,996.5C 625.833,995.833 625.167,995.167 624.5,994.5C 624.326,992.139 623.993,989.806 623.5,987.5 Z"/></g>
<g><path style="opacity:1" fill="#5d5857" d="M 448.5,996.5 C 446.859,995.853 445.526,994.853 444.5,993.5C 443.833,992.833 443.167,992.167 442.5,991.5C 443.117,991.389 443.617,991.056 444,990.5C 446.305,992.022 447.805,994.022 448.5,996.5 Z"/></g>
<g><path style="opacity:1" fill="#5b5a59" d="M 832.5,987.5 C 832.5,987.833 832.5,988.167 832.5,988.5C 830.453,990.55 828.786,992.883 827.5,995.5C 827.167,995.5 826.833,995.5 826.5,995.5C 826.954,992.86 828.121,990.527 830,988.5C 830.671,987.748 831.504,987.414 832.5,987.5 Z"/></g>
<g><path style="opacity:1" fill="#edeeeb" d="M 617.5,996.5 C 618.833,997.167 618.833,997.167 617.5,996.5 Z"/></g>
<g><path style="opacity:1" fill="#eff0ed" d="M 624.5,997.5 C 625.833,998.167 625.833,998.167 624.5,997.5 Z"/></g>
<g><path style="opacity:0.839" fill="#6f534e" d="M 626.5,996.5 C 627.922,996.75 628.922,997.583 629.5,999C 629.272,999.399 628.938,999.565 628.5,999.5C 627.094,999.027 626.427,998.027 626.5,996.5 Z"/></g>
<g><path style="opacity:1" fill="#5f5e5e" d="M 826.5,995.5 C 825.5,997.167 824.167,998.5 822.5,999.5C 822.833,997.167 824.167,995.833 826.5,995.5 Z"/></g>
<g><path style="opacity:0.839" fill="#514544" d="M 456.5,1001.5 C 453.63,1000.57 451.296,998.9 449.5,996.5C 449.435,996.062 449.601,995.728 450,995.5C 452.335,997.4 454.502,999.4 456.5,1001.5 Z"/></g>
<g><path style="opacity:1" fill="#767371" d="M 613.5,1000.5 C 612.789,1002.03 611.789,1003.36 610.5,1004.5C 609.833,1004.83 609.167,1005.17 608.5,1005.5C 609.167,1002.83 610.833,1001.17 613.5,1000.5 Z"/></g>
<g><path style="opacity:1" fill="#545452" d="M 456.5,1001.5 C 459.292,1001.62 461.292,1002.96 462.5,1005.5C 460.147,1004.66 458.147,1003.33 456.5,1001.5 Z"/></g>
<g><path style="opacity:1" fill="#6d6d6b" d="M 629.5,1002.5 C 632.007,1002.63 632.674,1003.63 631.5,1005.5C 630.833,1005.5 630.167,1005.5 629.5,1005.5C 630.833,1004.5 630.833,1003.5 629.5,1002.5 Z"/></g>
<g><path style="opacity:1" fill="#ebede9" d="M 821.5,1002.5 C 822.833,1003.17 822.833,1003.17 821.5,1002.5 Z"/></g>
<g><path style="opacity:0.839" fill="#6c2924" d="M 466.5,1004.5 C 467.469,1003.69 468.302,1002.69 469,1001.5C 469.854,1004.47 469.021,1005.47 466.5,1004.5 Z"/></g>
<g><path style="opacity:1" fill="#eff0ed" d="M 456.5,1004.5 C 457.833,1005.17 457.833,1005.17 456.5,1004.5 Z"/></g>
<g><path style="opacity:1" fill="#eeefec" d="M 610.5,1004.5 C 611.833,1005.17 611.833,1005.17 610.5,1004.5 Z"/></g>
<g><path style="opacity:1" fill="#f1f3ef" d="M 614.5,1005.5 C 615.833,1006.17 615.833,1006.17 614.5,1005.5 Z"/></g>
<g><path style="opacity:1" fill="#eeefec" d="M 629.5,1005.5 C 629.5,1005.83 629.5,1006.17 629.5,1006.5C 628.83,1006.02 628.83,1005.69 629.5,1005.5 Z"/></g>
<g><path style="opacity:1" fill="#4d4b4a" d="M 631.5,1005.5 C 634.167,1006.17 635.833,1007.83 636.5,1010.5C 634.5,1009.17 632.833,1007.5 631.5,1005.5 Z"/></g>
<g><path style="opacity:1" fill="#3f3c3a" d="M 819.5,1002.5 C 818.215,1004.45 816.549,1006.12 814.5,1007.5C 815.167,1004.83 816.833,1003.17 819.5,1002.5 Z"/></g>
<g><path style="opacity:1" fill="#f0f1ee" d="M 629.5,1006.5 C 630.833,1007.17 630.833,1007.17 629.5,1006.5 Z"/></g>
<g><path style="opacity:1" fill="#67524d" d="M 608.5,1005.5 C 605.792,1008.21 602.792,1010.54 599.5,1012.5C 599.579,1011.04 600.079,1009.71 601,1008.5C 601.333,1008.83 601.667,1009.17 602,1009.5C 603.638,1007.27 605.805,1005.93 608.5,1005.5 Z"/></g>
<g><path style="opacity:1" fill="#ebede9" d="M 606.5,1009.5 C 607.833,1010.17 607.833,1010.17 606.5,1009.5 Z"/></g>
<g><path style="opacity:1" fill="#4c4a48" d="M 814.5,1007.5 C 813.089,1009.91 811.089,1011.58 808.5,1012.5C 809.09,1011.23 809.59,1009.9 810,1008.5C 810.333,1008.83 810.667,1009.17 811,1009.5C 811.816,1008.18 812.983,1007.51 814.5,1007.5 Z"/></g>
<g><path style="opacity:1" fill="#544847" d="M 466.5,1004.5 C 466.414,1005.5 466.748,1006.33 467.5,1007C 475.142,1010.87 483.142,1013.87 491.5,1016C 492.056,1016.38 492.389,1016.88 492.5,1017.5C 481.777,1015.13 471.777,1011.13 462.5,1005.5C 463.959,1005.57 465.292,1005.23 466.5,1004.5 Z"/></g>
<g><path style="opacity:1" fill="#eff0ed" d="M 606.5,1010.5 C 605.833,1011.17 605.833,1011.17 606.5,1010.5 Z"/></g>
<g><path style="opacity:1" fill="#666463" d="M 597.5,1013.5 C 595.819,1015.01 593.819,1016.01 591.5,1016.5C 592.687,1014.02 594.687,1013.02 597.5,1013.5 Z"/></g>
<g><path style="opacity:1" fill="#f1f3ef" d="M 599.5,1013.5 C 600.833,1014.17 600.833,1014.17 599.5,1013.5 Z"/></g>
<g><path style="opacity:1" fill="#f1f3ef" d="M 602.5,1013.5 C 603.833,1014.17 603.833,1014.17 602.5,1013.5 Z"/></g>
<g><path style="opacity:1" fill="#efeeec" d="M 636.5,1014.5 C 635.833,1013.17 635.833,1013.17 636.5,1014.5 Z"/></g>
<g><path style="opacity:1" fill="#747371" d="M 808.5,1012.5 C 807.461,1014.53 805.795,1015.86 803.5,1016.5C 804.585,1014.41 806.251,1013.08 808.5,1012.5 Z"/></g>
<g><path style="opacity:1" fill="#f1f3ef" d="M 810.5,1013.5 C 811.833,1014.17 811.833,1014.17 810.5,1013.5 Z"/></g>
<g><path style="opacity:1" fill="#eeedeb" d="M 636.5,1014.5 C 637.833,1015.17 637.833,1015.17 636.5,1014.5 Z"/></g>
<g><path style="opacity:1" fill="#52504f" d="M 643.5,1017.5 C 641.451,1016.12 639.785,1014.45 638.5,1012.5C 638.435,1012.06 638.601,1011.73 639,1011.5C 641.095,1013.09 642.595,1015.09 643.5,1017.5 Z"/></g>
<g><path style="opacity:1" fill="#f0f1ee" d="M 810.5,1014.5 C 809.833,1015.17 809.833,1015.17 810.5,1014.5 Z"/></g>
<g><path style="opacity:1" fill="#f2f1ee" d="M 632.5,1015.5 C 633.833,1016.17 633.833,1016.17 632.5,1015.5 Z"/></g>
<g><path style="opacity:1" fill="#727270" d="M 803.5,1016.5 C 803.167,1017.5 802.5,1018.17 801.5,1018.5C 801.5,1017.17 802.167,1016.5 803.5,1016.5 Z"/></g>
<g><path style="opacity:1" fill="#6f6565" d="M 496.5,1018.5 C 495.209,1018.74 494.209,1018.4 493.5,1017.5C 494.779,1016.28 495.779,1016.62 496.5,1018.5 Z"/></g>
<g><path style="opacity:1" fill="#5b4b46" d="M 647.5,1020.5 C 646.128,1019.49 644.795,1018.49 643.5,1017.5C 644.117,1017.39 644.617,1017.06 645,1016.5C 645.903,1017.7 647.069,1018.53 648.5,1019C 647.944,1019.38 647.611,1019.88 647.5,1020.5 Z"/></g>
<g><path style="opacity:1" fill="#6e6e6e" d="M 501.5,1019.5 C 499.901,1019.77 498.568,1019.43 497.5,1018.5C 498.962,1017.53 500.295,1017.86 501.5,1019.5 Z"/></g>
<g><path style="opacity:1" fill="#675c5b" d="M 506.5,1020.5 C 504.901,1020.77 503.568,1020.43 502.5,1019.5C 504.128,1018.15 505.462,1018.48 506.5,1020.5 Z"/></g>
<g><path style="opacity:1" fill="#726f6d" d="M 588.5,1017.5 C 584.915,1019.81 580.915,1021.14 576.5,1021.5C 576.611,1020.88 576.944,1020.38 577.5,1020C 581.153,1019.23 584.653,1018.06 588,1016.5C 588.399,1016.73 588.565,1017.06 588.5,1017.5 Z"/></g>
<g><path style="opacity:1" fill="#594742" d="M 800.5,1018.5 C 799.564,1019.97 798.23,1020.97 796.5,1021.5C 796.762,1019.44 797.929,1018.1 800,1017.5C 800.399,1017.73 800.565,1018.06 800.5,1018.5 Z"/></g>
<g><path style="opacity:1" fill="#6e6867" d="M 513.5,1021.5 C 511.265,1021.79 509.265,1021.46 507.5,1020.5C 509.792,1019.15 511.792,1019.49 513.5,1021.5 Z"/></g>
<g><path style="opacity:1" fill="#6c6a69" d="M 647.5,1020.5 C 649.179,1020.29 650.179,1020.95 650.5,1022.5C 649.29,1022.07 648.29,1021.4 647.5,1020.5 Z"/></g>
<g><path style="opacity:1" fill="#666666" d="M 519.5,1022.5 C 517.265,1022.79 515.265,1022.46 513.5,1021.5C 515.792,1020.15 517.792,1020.49 519.5,1022.5 Z"/></g>
<g><path style="opacity:1" fill="#949491" d="M 576.5,1021.5 C 575.432,1022.43 574.099,1022.77 572.5,1022.5C 573.665,1020.89 574.999,1020.56 576.5,1021.5 Z"/></g>
<g><path style="opacity:1" fill="#f0f1ee" d="M 801.5,1021.5 C 802.833,1022.17 802.833,1022.17 801.5,1021.5 Z"/></g>
<g><path style="opacity:1" fill="#7f807d" d="M 796.5,1021.5 C 795.486,1022.67 794.153,1023.34 792.5,1023.5C 793.287,1021.9 794.62,1021.23 796.5,1021.5 Z"/></g>
<g><path style="opacity:1" fill="#eeefec" d="M 800.5,1023.5 C 799.833,1022.17 799.833,1022.17 800.5,1023.5 Z"/></g>
<g><path style="opacity:1" fill="#87807e" d="M 545.5,1024.5 C 536.611,1024.8 527.944,1024.14 519.5,1022.5C 520.695,1022.32 521.862,1021.99 523,1021.5C 530.456,1022.58 537.956,1023.58 545.5,1024.5 Z"/></g>
<g><path style="opacity:1" fill="#726d6b" d="M 571.5,1022.5 C 564.319,1024.24 556.986,1024.91 549.5,1024.5C 556.488,1023.28 563.488,1022.28 570.5,1021.5C 571.107,1021.62 571.44,1021.96 571.5,1022.5 Z"/></g>
<g><path style="opacity:1" fill="#f3f2ef" d="M 651.5,1023.5 C 650.833,1024.17 650.833,1024.17 651.5,1023.5 Z"/></g>
<g><path style="opacity:1" fill="#6f6d6c" d="M 656.5,1025.5 C 654.486,1025.61 652.82,1024.94 651.5,1023.5C 651.5,1023.17 651.5,1022.83 651.5,1022.5C 651.435,1022.06 651.601,1021.73 652,1021.5C 653.667,1022.73 655.167,1024.07 656.5,1025.5 Z"/></g>
<g><path style="opacity:1" fill="#5c5554" d="M 660.5,1027.5 C 659.167,1027.17 657.833,1026.83 656.5,1026.5C 656.5,1026.17 656.5,1025.83 656.5,1025.5C 658.322,1024.57 659.655,1025.24 660.5,1027.5 Z"/></g>
<g><path style="opacity:1" fill="#888886" d="M 789.5,1025.5 C 789.158,1026.34 788.492,1026.67 787.5,1026.5C 787.409,1024.3 788.075,1023.97 789.5,1025.5 Z"/></g>
<g><path style="opacity:1" fill="#eff0ef" d="M 656.5,1026.5 C 655.833,1027.17 655.833,1027.17 656.5,1026.5 Z"/></g>
<g><path style="opacity:1" fill="#626260" d="M 786.5,1026.5 C 786.158,1027.34 785.492,1027.67 784.5,1027.5C 785.006,1025.89 785.673,1025.56 786.5,1026.5 Z"/></g>
<g><path style="opacity:1" fill="#757273" d="M 662.5,1028.5 C 661.508,1028.67 660.842,1028.34 660.5,1027.5C 661.925,1025.97 662.591,1026.3 662.5,1028.5 Z"/></g>
<g><path style="opacity:1" fill="#5e5350" d="M 674.5,1032.5 C 670.463,1031.93 666.797,1030.6 663.5,1028.5C 664.117,1028.39 664.617,1028.06 665,1027.5C 668.5,1028.91 671.667,1030.58 674.5,1032.5 Z"/></g>
<g><path style="opacity:1" fill="#737371" d="M 782.5,1028.5 C 782.158,1029.34 781.492,1029.67 780.5,1029.5C 780.409,1027.3 781.075,1026.97 782.5,1028.5 Z"/></g>
<g><path style="opacity:1" fill="#828380" d="M 780.5,1029.5 C 779.791,1030.4 778.791,1030.74 777.5,1030.5C 778.105,1028.52 779.105,1028.19 780.5,1029.5 Z"/></g>
<g><path style="opacity:1" fill="#565554" d="M 774.5,1031.5 C 772.485,1032.92 770.152,1033.59 767.5,1033.5C 767.611,1032.88 767.944,1032.38 768.5,1032C 770.473,1031.5 772.473,1031.34 774.5,1031.5 Z"/></g>
<g><path style="opacity:1" fill="#7d7473" d="M 682.5,1034.5 C 681.209,1034.74 680.209,1034.4 679.5,1033.5C 680.779,1032.28 681.779,1032.62 682.5,1034.5 Z"/></g>
<g><path style="opacity:1" fill="#4d3f3d" d="M 683.5,1034.5 C 683.917,1033.88 684.584,1033.54 685.5,1033.5C 686.713,1033.75 687.38,1034.41 687.5,1035.5C 686.041,1035.57 684.708,1035.23 683.5,1034.5 Z"/></g>
<g><path style="opacity:1" fill="#5d504e" d="M 767.5,1033.5 C 765.401,1034.61 763.067,1035.28 760.5,1035.5C 762.423,1033.19 764.756,1032.52 767.5,1033.5 Z"/></g>
<g><path style="opacity:1" fill="#666363" d="M 688.5,1035.5 C 690.68,1034.21 692.68,1034.54 694.5,1036.5C 692.379,1036.67 690.379,1036.34 688.5,1035.5 Z"/></g>
<g><path style="opacity:1" fill="#656363" d="M 759.5,1035.5 C 755.733,1036.79 751.733,1037.46 747.5,1037.5C 750.695,1035.91 754.195,1034.91 758,1034.5C 758.765,1034.57 759.265,1034.9 759.5,1035.5 Z"/></g>
<g><path style="opacity:1" fill="#656363" d="M 695.5,1036.5 C 698.34,1035.08 701.007,1035.42 703.5,1037.5C 700.721,1037.72 698.054,1037.39 695.5,1036.5 Z"/></g>
<g><path style="opacity:1" fill="#5d5959" d="M 705.5,1037.5 C 719.165,1037.47 732.831,1037.47 746.5,1037.5C 732.863,1038.82 719.197,1038.82 705.5,1037.5 Z"/></g>
</svg>
